<svg xmlns="http://www.w3.org/2000/svg" viewBox="0 0 1100 660" width="100%" height="100%">
  <defs>
    <linearGradient id="canvasBg" x1="0%" y1="0%" x2="100%" y2="100%">
      <stop offset="0%" stop-color="#0a0e17" />
      <stop offset="100%" stop-color="#111827" />
    </linearGradient>
    <linearGradient id="panelGrad" x1="0%" y1="0%" x2="0%" y2="100%">
      <stop offset="0%" stop-color="#1e293b" stop-opacity="0.7" />
      <stop offset="100%" stop-color="#0f172a" stop-opacity="0.9" />
    </linearGradient>
    
    <linearGradient id="emeraldIngest" x1="0%" y1="0%" x2="100%" y2="0%">
      <stop offset="0%" stop-color="#10b981" />
      <stop offset="100%" stop-color="#059669" />
    </linearGradient>
    <linearGradient id="cobaltProcess" x1="0%" y1="0%" x2="100%" y2="0%">
      <stop offset="0%" stop-color="#3b82f6" />
      <stop offset="100%" stop-color="#1d4ed8" />
    </linearGradient>
    <linearGradient id="purpleStorage" x1="0%" y1="0%" x2="100%" y2="0%">
      <stop offset="0%" stop-color="#8b5cf6" />
      <stop offset="100%" stop-color="#6d28d9" />
    </linearGradient>

    <filter id="cardShadow" x="-10%" y="-10%" width="120%" height="120%">
      <feDropShadow dx="0" dy="12" stdDeviation="8" flood-color="#000000" flood-opacity="0.5" />
    </filter>
    <filter id="streamGlow" x="-20%" y="-20%" width="140%" height="140%">
      <feGaussianBlur stdDeviation="5" result="blur" />
      <feComposite in="SourceGraphic" in2="blur" operator="over" />
    </filter>
  </defs>

  <rect width="1100" height="660" fill="url(#canvasBg)" />
  <g stroke="#1e293b" stroke-width="0.5" opacity="0.35">
    <path d="M 0,50 L 1100,50 M 0,100 L 1100,100 M 0,150 L 1100,150 M 0,200 L 1100,200 M 0,250 L 1100,250 M 0,300 L 1100,300 M 0,350 L 1100,350 M 0,400 L 1100,400 M 0,450 L 1100,450 M 0,500 L 1100,500 M 0,550 L 1100,550 M 0,600 L 1100,600" />
    <path d="M 50,0 L 50,660 M 100,0 L 100,660 M 150,0 L 150,660 M 200,0 L 200,660 M 250,0 L 250,660 M 300,0 L 300,660 M 350,0 L 350,660 M 400,0 L 400,660 M 450,0 L 450,660 M 500,0 L 500,660 M 550,0 L 550,660 M 600,0 L 600,660 M 650,0 L 650,660 M 700,0 L 700,660 M 750,0 L 750,660 M 800,0 L 800,660 M 850,0 L 850,660 M 900,0 L 900,660 M 950,0 L 950,660 M 1000,0 L 1000,660" />
  </g>

  <rect x="40" y="30" width="1020" height="60" rx="10" fill="#1e293b" filter="url(#cardShadow)" stroke="#334155" stroke-width="1"/>
  <text x="550" y="66" fill="#f8fafc" font-family="-apple-system, BlinkMacSystemFont, 'Segoe UI', sans-serif" font-size="15" font-weight="700" text-anchor="middle" letter-spacing="1.5">DATA-BRIDGE-FRAMEWORK: AUTOMATED MULTI-SOURCE PIPELINE &amp; EXTRACTOR</text>

  <rect x="40" y="120" width="250" height="500" rx="14" fill="url(#panelGrad)" stroke="url(#emeraldTech)" stroke-width="1.5" filter="url(#cardShadow)"/>
  <rect x="40" y="120" width="250" height="48" rx="14" fill="url(#emeraldTech)" fill-opacity="0.15"/>
  <text x="165" y="150" fill="#34d399" font-family="-apple-system, BlinkMacSystemFont, 'Segoe UI', sans-serif" font-size="12" font-weight="bold" text-anchor="middle" letter-spacing="1">INGESTION SOURCE INTERFACE</text>

  <rect x="55" y="195" width="220" height="190" rx="8" fill="#0b0f19" stroke="#334155" stroke-width="1.25"/>
  <text x="165" y="225" font-family="-apple-system, BlinkMacSystemFont, 'Segoe UI', sans-serif" font-size="13" font-weight="bold" fill="#ffffff" text-anchor="middle">Directory Automation</text>
  <line x1="75" y1="242" x2="255" y2="242" stroke="#1e293b" stroke-width="1.5"/>
  <text x="165" y="265" font-family="-apple-system, BlinkMacSystemFont, 'Segoe UI', sans-serif" font-size="11" fill="#94a3b8" text-anchor="middle">📁 Input Files Scanning (.xlsx, .xls)</text>
  <text x="165" y="287" font-family="-apple-system, BlinkMacSystemFont, 'Segoe UI', sans-serif" font-size="11" fill="#94a3b8" text-anchor="middle">⚙️ CLI Batch Runtime Launcher</text>
  <text x="165" y="309" font-family="-apple-system, BlinkMacSystemFont, 'Segoe UI', sans-serif" font-size="11" fill="#94a3b8" text-anchor="middle">📦 Safe Copy-Delete Routing</text>
  <text x="165" y="331" font-family="-apple-system, BlinkMacSystemFont, 'Segoe UI', sans-serif" font-size="11" fill="#ef4444" font-weight="600" text-anchor="middle">⚠️ Error Isolation Handler</text>
  <text x="165" y="362" font-family="-apple-system, BlinkMacSystemFont, 'Segoe UI', sans-serif" font-size="10" fill="#10b981" font-weight="600" text-anchor="middle">✔ Windows Server Production Safe</text>

  <rect x="335" y="120" width="430" height="340" rx="14" fill="url(#panelGrad)" stroke="url(#cobaltProcess)" stroke-width="2" filter="url(#cardShadow)"/>
  <rect x="335" y="120" width="430" height="48" rx="14" fill="url(#cobaltProcess)" fill-opacity="0.15"/>
  <text x="550" y="150" fill="#60a5fa" font-family="-apple-system, BlinkMacSystemFont, 'Segoe UI', sans-serif" font-size="12" font-weight="bold" text-anchor="middle" letter-spacing="1">CORE ETL TRANSFORMATION SYSTEM (PYTHON)</text>

  <g transform="translate(360, 195)">
    <rect x="0" y="0" width="180" height="65" rx="6" fill="#0b0f19" stroke="#1e293b" stroke-width="1.5"/>
    <text x="90" y="38" font-family="-apple-system, BlinkMacSystemFont, 'Segoe UI', sans-serif" font-size="11" fill="#e2e8f0" text-anchor="middle">Layered Strategy Classifier</text>
  </g>
  <g transform="translate(560, 195)">
    <rect x="0" y="0" width="180" height="65" rx="6" fill="#0b0f19" stroke="#1e293b" stroke-width="1.5"/>
    <text x="90" y="38" font-family="-apple-system, BlinkMacSystemFont, 'Segoe UI', sans-serif" font-size="11" fill="#e2e8f0" text-anchor="middle">Regex Scan Pattern Matcher</text>
  </g>
  <g transform="translate(360, 280)">
    <rect x="0" y="0" width="180" height="65" rx="6" fill="#0b0f19" stroke="#1e293b" stroke-width="1.5"/>
    <text x="90" y="38" font-family="-apple-system, BlinkMacSystemFont, 'Segoe UI', sans-serif" font-size="11" fill="#e2e8f0" text-anchor="middle">Header Shorten &amp; Deduplication</text>
  </g>
  <g transform="translate(560, 280)">
    <rect x="0" y="0" width="180" height="65" rx="6" fill="#0b0f19" stroke="#1e293b" stroke-width="1.5"/>
    <text x="90" y="38" font-family="-apple-system, BlinkMacSystemFont, 'Segoe UI', sans-serif" font-size="11" fill="#e2e8f0" text-anchor="middle">Robust Data Type Coercion</text>
  </g>
  <rect x="360" y="370" width="380" height="40" rx="6" fill="#0f172a" stroke="#3b82f6" stroke-width="1" stroke-dasharray="4"/>
  <text x="550" y="395" font-family="-apple-system, BlinkMacSystemFont, 'Segoe UI', sans-serif" font-size="11" fill="#60a5fa" font-weight="600" text-anchor="middle">⚡ High-Memory Pandas / Dataframe Normalization</text>

  <rect x="810" y="120" width="250" height="340" rx="14" fill="url(#panelGrad)" stroke="#475569" stroke-width="1.5" filter="url(#cardShadow)"/>
  <rect x="810" y="120" width="250" height="48" rx="14" fill="#475569" fill-opacity="0.3"/>
  <text x="935" y="150" fill="#f1f5f9" font-family="-apple-system, BlinkMacSystemFont, 'Segoe UI', sans-serif" font-size="12" font-weight="bold" text-anchor="middle" letter-spacing="1">DECLARATIVE SCHEMAS</text>

  <rect x="825" y="195" width="220" height="245" rx="8" fill="#0b0f19" stroke="#334155" stroke-width="1.25"/>
  <text x="935" y="228" font-family="-apple-system, BlinkMacSystemFont, 'Segoe UI', sans-serif" font-size="13" font-weight="bold" fill="#ffffff" text-anchor="middle">YAML Mapping Engine</text>
  <line x1="845" y1="245" x2="1025" y2="245" stroke="#1e293b" stroke-width="1.5"/>
  <text x="845" y="272" font-family="-apple-system, BlinkMacSystemFont, 'Segoe UI', sans-serif" font-size="11" fill="#cbd5e1">⚙️ Core Attribute Projections</text>
  <text x="845" y="297" font-family="-apple-system, BlinkMacSystemFont, 'Segoe UI', sans-serif" font-size="11" fill="#cbd5e1">⚙️ Extensible Category Rules</text>
  <text x="845" y="322" font-family="-apple-system, BlinkMacSystemFont, 'Segoe UI', sans-serif" font-size="11" fill="#cbd5e1">⚙️ Money / Decimals Cast Map</text>
  <rect x="840" y="355" width="190" height="65" rx="5" fill="#111827" stroke="#3b82f6" stroke-width="0.75"/>
  <text x="935" y="378" font-family="-apple-system, BlinkMacSystemFont, 'Segoe UI', sans-serif" font-size="11" fill="#60a5fa" font-weight="600" text-anchor="middle">Decoupled File Layout</text>
  <text x="935" y="398" font-family="-apple-system, BlinkMacSystemFont, 'Segoe UI', sans-serif" font-size="10" fill="#64748b" text-anchor="middle">Independent Configuration</text>

  <rect x="335" y="490" width="430" height="130" rx="14" fill="url(#panelGrad)" stroke="url(#purpleStorage)" stroke-width="2" filter="url(#cardShadow)"/>
  <rect x="335" y="490" width="430" height="35" rx="14" fill="url(#purpleStorage)" fill-opacity="0.2"/>
  <text x="550" y="512" fill="#a78bfa" font-family="-apple-system, BlinkMacSystemFont, 'Segoe UI', sans-serif" font-size="12" font-weight="bold" text-anchor="middle" letter-spacing="1">DATA PERSISTENCE &amp; HISTORICAL ARCHIVE LAYER</text>
  <text x="550" y="555" font-family="-apple-system, BlinkMacSystemFont, 'Segoe UI', sans-serif" font-size="13" font-weight="bold" fill="#f1f5f9" text-anchor="middle">SQL Server Ingestion Target Framework (pyodbc)</text>
  <text x="550" y="582" font-family="-apple-system, BlinkMacSystemFont, 'Segoe UI', sans-serif" font-size="11" fill="#94a3b8" text-anchor="middle">Canonical Normalized Rows • Raw Mapping Trace Matrix • Execution Performance Logs</text>

  <path d="M 290,265 L 335,265" stroke="#10b981" stroke-width="3" fill="none" filter="url(#streamGlow)"/>
  <polygon points="335,265 323,258 323,272" fill="#10b981"/>

  <path d="M 765,290 L 810,290" stroke="#64748b" stroke-width="2" fill="none"/>
  <polygon points="765,290 775,284 775,296" fill="#64748b"/>
  <polygon points="810,290 800,284 800,296" fill="#64748b"/>

  <path d="M 550,460 L 550,490" stroke="#3b82f6" stroke-width="3" fill="none"/>
  <polygon points="550,490 543,478 557,478" fill="#3b82f6"/>
  <polygon points="550,460 543,472 557,472" fill="#3b82f6"/>
</svg>
