<svg xmlns="http://www.w3.org/2000/svg" viewBox="0 0 1100 660" width="100%" height="100%">
  <defs>
    <linearGradient id="canvasBg" x1="0%" y1="0%" x2="100%" y2="100%">
      <stop offset="0%" stop-color="#0a0e17" />
      <stop offset="100%" stop-color="#101726" />
    </linearGradient>
    <linearGradient id="panelGrad" x1="0%" y1="0%" x2="0%" y2="100%">
      <stop offset="0%" stop-color="#1e293b" stop-opacity="0.7" />
      <stop offset="100%" stop-color="#0f172a" stop-opacity="0.9" />
    </linearGradient>
    
    <linearGradient id="emeraldTech" x1="0%" y1="0%" x2="100%" y2="0%">
      <stop offset="0%" stop-color="#10b981" />
      <stop offset="100%" stop-color="#059669" />
    </linearGradient>
    <linearGradient id="cobaltData" x1="0%" y1="0%" x2="100%" y2="0%">
      <stop offset="0%" stop-color="#3b82f6" />
      <stop offset="100%" stop-color="#1d4ed8" />
    </linearGradient>
    <linearGradient id="amberEgress" x1="0%" y1="0%" x2="100%" y2="0%">
      <stop offset="0%" stop-color="#f59e0b" />
      <stop offset="100%" stop-color="#d97706" />
    </linearGradient>

    <filter id="cardShadow" x="-10%" y="-10%" width="120%" height="120%">
      <feDropShadow dx="0" dy="12" stdDeviation="8" flood-color="#000000" flood-opacity="0.5" />
    </filter>
    <filter id="dataGlow" x="-20%" y="-20%" width="140%" height="140%">
      <feGaussianBlur stdDeviation="5" result="blur" />
      <feComposite in="SourceGraphic" in2="blur" operator="over" />
    </filter>
  </defs>

  <rect width="1100" height="660" fill="url(#canvasBg)" />
  
  <g stroke="#1e293b" stroke-width="0.5" opacity="0.4">
    <path d="M 0,50 L 1100,50 M 0,100 L 1100,100 M 0,150 L 1100,150 M 0,200 L 1100,200 M 0,250 L 1100,250 M 0,300 L 1100,300 M 0,350 L 1100,350 M 0,400 L 1100,400 M 0,450 L 1100,450 M 0,500 L 1100,500 M 0,550 L 1100,550 M 0,600 L 1100,600" />
    <path d="M 50,0 L 50,660 M 100,0 L 100,660 M 150,0 L 150,660 M 200,0 L 200,660 M 250,0 L 250,660 M 300,0 L 300,660 M 350,0 L 350,660 M 400,0 L 400,660 M 450,0 L 450,660 M 500,0 L 500,660 M 550,0 L 550,660 M 600,0 L 600,660 M 650,0 L 650,660 M 700,0 L 700,660 M 750,0 L 750,660 M 800,0 L 800,660 M 850,0 L 850,660 M 900,0 L 900,660 M 950,0 L 950,660 M 1000,0 L 1000,660 M 1050,0 L 1050,660" />
  </g>

  <rect x="40" y="30" width="1020" height="60" rx="10" fill="#1e293b" filter="url(#cardShadow)" stroke="#334155" stroke-width="1"/>
  <text x="550" y="66" fill="#f8fafc" font-family="-apple-system, BlinkMacSystemFont, 'Segoe UI', Roboto, sans-serif" font-size="16" font-weight="700" text-anchor="middle" letter-spacing="2">PRODUCT ARCHITECTURE: AUTOMATED PUBLIC SAFETY FREQUENCY COORDINATION PLATFORM</text>

  <rect x="40" y="120" width="250" height="500" rx="14" fill="url(#panelGrad)" stroke="#334155" stroke-width="1.5" filter="url(#cardShadow)"/>
  <rect x="40" y="120" width="250" height="48" rx="14" fill="#334155" fill-opacity="0.4"/>
  <text x="165" y="150" fill="#f1f5f9" font-family="-apple-system, BlinkMacSystemFont, 'Segoe UI', Roboto, sans-serif" font-size="12" font-weight="bold" text-anchor="middle" letter-spacing="1">PUBLIC PORTAL INGRESS</text>
  
  <rect x="55" y="195" width="220" height="165" rx="8" fill="#0b0f19" stroke="#475569" stroke-width="1.25"/>
  <text x="165" y="228" font-family="-apple-system, BlinkMacSystemFont, 'Segoe UI', Roboto, sans-serif" font-size="13" font-weight="bold" fill="#ffffff" text-anchor="middle">Gated Intake Dashboard</text>
  <line x1="75" y1="245" x2="255" y2="245" stroke="#1e293b" stroke-width="1.5"/>
  <text x="165" y="268" font-family="-apple-system, BlinkMacSystemFont, 'Segoe UI', Roboto, sans-serif" font-size="11" fill="#94a3b8" text-anchor="middle">• Verified Safety Entities</text>
  <text x="165" y="290" font-family="-apple-system, BlinkMacSystemFont, 'Segoe UI', Roboto, sans-serif" font-size="11" fill="#94a3b8" text-anchor="middle">• Dynamic Form 601 Engine</text>
  <text x="165" y="312" font-family="-apple-system, BlinkMacSystemFont, 'Segoe UI', Roboto, sans-serif" font-size="11" fill="#94a3b8" text-anchor="middle">• Pre-Filing Validation Logic</text>
  <text x="165" y="338" font-family="-apple-system, BlinkMacSystemFont, 'Segoe UI', Roboto, sans-serif" font-size="10" fill="#f59e0b" font-weight="600" text-anchor="middle">🔒 Restricted Municipal Access</text>

  <rect x="335" y="120" width="430" height="340" rx="14" fill="url(#panelGrad)" stroke="url(#emeraldTech)" stroke-width="2" filter="url(#cardShadow)"/>
  <rect x="335" y="120" width="430" height="48" rx="14" fill="url(#emeraldTech)" fill-opacity="0.15"/>
  <text x="550" y="150" fill="#34d399" font-family="-apple-system, BlinkMacSystemFont, 'Segoe UI', Roboto, sans-serif" font-size="12" font-weight="bold" text-anchor="middle" letter-spacing="1">NODE.JS BACKEND PROCESSOR (NESTJS / TYPESCRIPT)</text>

  <g transform="translate(360, 195)">
    <rect x="0" y="0" width="180" height="65" rx="6" fill="#0b0f19" stroke="#1e293b" stroke-width="1.5"/>
    <text x="90" y="38" font-family="-apple-system, BlinkMacSystemFont, 'Segoe UI', Roboto, sans-serif" font-size="11" fill="#e2e8f0" text-anchor="middle">Form 601 Validation Wizard</text>
  </g>
  <g transform="translate(560, 195)">
    <rect x="0" y="0" width="180" height="65" rx="6" fill="#0b0f19" stroke="#1e293b" stroke-width="1.5"/>
    <text x="90" y="38" font-family="-apple-system, BlinkMacSystemFont, 'Segoe UI', Roboto, sans-serif" font-size="11" fill="#e2e8f0" text-anchor="middle">NAD83 Coordinate Processor</text>
  </g>
  <g transform="translate(360, 280)">
    <rect x="0" y="0" width="180" height="65" rx="6" fill="#0b0f19" stroke="#1e293b" stroke-width="1.5"/>
    <text x="90" y="38" font-family="-apple-system, BlinkMacSystemFont, 'Segoe UI', Roboto, sans-serif" font-size="11" fill="#e2e8f0" text-anchor="middle">Automated Renewal Sweeper</text>
  </g>
  <g transform="translate(560, 280)">
    <rect x="0" y="0" width="180" height="65" rx="6" fill="#0b0f19" stroke="#1e293b" stroke-width="1.5"/>
    <text x="90" y="38" font-family="-apple-system, BlinkMacSystemFont, 'Segoe UI', Roboto, sans-serif" font-size="11" fill="#e2e8f0" text-anchor="middle">Batch Data Serialization</text>
  </g>
  <rect x="360" y="370" width="380" height="40" rx="6" fill="#0f172a" stroke="#10b981" stroke-width="1" stroke-dasharray="4"/>
  <text x="550" y="395" font-family="-apple-system, BlinkMacSystemFont, 'Segoe UI', Roboto, sans-serif" font-size="11" fill="#10b981" font-weight="600" text-anchor="middle">⚡ Event-Driven Asynchronous Pipeline</text>

  <rect x="810" y="120" width="250" height="340" rx="14" fill="url(#panelGrad)" stroke="#475569" stroke-width="1.5" filter="url(#cardShadow)"/>
  <rect x="810" y="120" width="250" height="48" rx="14" fill="#475569" fill-opacity="0.3"/>
  <text x="935" y="150" fill="#f1f5f9" font-family="-apple-system, BlinkMacSystemFont, 'Segoe UI', Roboto, sans-serif" font-size="12" font-weight="bold" text-anchor="middle" letter-spacing="1">INTERNAL MANAGEMENT</text>

  <rect x="825" y="195" width="220" height="245" rx="8" fill="#0b0f19" stroke="#334155" stroke-width="1.25"/>
  <text x="935" y="228" font-family="-apple-system, BlinkMacSystemFont, 'Segoe UI', Roboto, sans-serif" font-size="13" font-weight="bold" fill="#ffffff" text-anchor="middle">Coordinator Workbench</text>
  <line x1="845" y1="245" x2="1025" y2="245" stroke="#1e293b" stroke-width="1.5"/>
  <text x="845" y="275" font-family="-apple-system, BlinkMacSystemFont, 'Segoe UI', Roboto, sans-serif" font-size="11" fill="#cbd5e1">📊 Spatial Analysis Console</text>
  <text x="845" y="303" font-family="-apple-system, BlinkMacSystemFont, 'Segoe UI', Roboto, sans-serif" font-size="11" fill="#cbd5e1">📡 Interference Engineering</text>
  <text x="845" y="331" font-family="-apple-system, BlinkMacSystemFont, 'Segoe UI', Roboto, sans-serif" font-size="11" fill="#cbd5e1">📜 Approval Verification</text>
  <rect x="840" y="365" width="190" height="55" rx="5" fill="#111827" stroke="#ef4444" stroke-width="0.75"/>
  <text x="935" y="388" font-family="-apple-system, BlinkMacSystemFont, 'Segoe UI', Roboto, sans-serif" font-size="11" fill="#f87171" font-weight="600" text-anchor="middle">Identity Guard Layer</text>
  <text x="935" y="405" font-family="-apple-system, BlinkMacSystemFont, 'Segoe UI', Roboto, sans-serif" font-size="10" fill="#64748b" text-anchor="middle">Role-Based RBAC Token</text>

  <rect x="335" y="490" width="430" height="130" rx="14" fill="url(#panelGrad)" stroke="url(#cobaltData)" stroke-width="2" filter="url(#cardShadow)"/>
  <rect x="335" y="490" width="430" height="35" rx="14" fill="url(#cobaltData)" fill-opacity="0.2"/>
  <text x="550" y="512" fill="#60a5fa" font-family="-apple-system, BlinkMacSystemFont, 'Segoe UI', Roboto, sans-serif" font-size="12" font-weight="bold" text-anchor="middle" letter-spacing="1">PERSISTENT OBJECT &amp; SPATIAL DATA TIER</text>
  <text x="550" y="555" font-family="-apple-system, BlinkMacSystemFont, 'Segoe UI', Roboto, sans-serif" font-size="13" font-weight="bold" fill="#f1f5f9" text-anchor="middle">PostgreSQL Relational DB + PostGIS Extension</text>
  <text x="550" y="582" font-family="-apple-system, BlinkMacSystemFont, 'Segoe UI', Roboto, sans-serif" font-size="11" fill="#94a3b8" text-anchor="middle">Call Signs • Active Authorizations • Radial Contours • System Security Logs</text>

  <rect x="810" y="490" width="250" height="130" rx="14" fill="url(#panelGrad)" stroke="url(#amberEgress)" stroke-width="1.5" filter="url(#cardShadow)"/>
  <rect x="810" y="490" width="250" height="35" rx="14" fill="url(#amberEgress)" fill-opacity="0.2"/>
  <text x="935" y="512" fill="#f59e0b" font-family="-apple-system, BlinkMacSystemFont, 'Segoe UI', Roboto, sans-serif" font-size="12" font-weight="bold" text-anchor="middle" letter-spacing="1">EXTERNAL REGULATORY SYNC</text>
  <text x="935" y="555" font-family="-apple-system, BlinkMacSystemFont, 'Segoe UI', Roboto, sans-serif" font-size="12" font-weight="bold" fill="#f8fafc" text-anchor="middle">Federal Gateway Systems</text>
  <text x="935" y="582" font-family="-apple-system, BlinkMacSystemFont, 'Segoe UI', Roboto, sans-serif" font-size="11" fill="#a1a1aa" text-anchor="middle">Universal Licensing Hub &amp; APIs</text>

  <path d="M 290,265 L 335,265" stroke="#3b82f6" stroke-width="3" fill="none" filter="url(#dataGlow)"/>
  <polygon points="335,265 323,258 323,272" fill="#3b82f6"/>
  <text x="312" y="250" font-family="-apple-system, BlinkMacSystemFont, 'Segoe UI', Roboto, sans-serif" font-size="10" fill="#60a5fa" font-weight="bold" text-anchor="middle">HTTPS</text>

  <path d="M 765,290 L 810,290" stroke="#64748b" stroke-width="2" fill="none"/>
  <polygon points="765,290 775,284 775,296" fill="#64748b"/>
  <polygon points="810,290 800,284 800,296" fill="#64748b"/>

  <path d="M 550,460 L 550,490" stroke="#3b82f6" stroke-width="3" fill="none"/>
  <polygon points="550,490 543,478 557,478" fill="#3b82f6"/>
  <polygon points="550,460 543,472 557,472" fill="#3b82f6"/>

  <path d="M 680,460 L 680,478 L 935,478 L 935,490" stroke="#f59e0b" stroke-width="2" fill="none" stroke-dasharray="6 3"/>
  <polygon points="935,490 928,478 942,478" fill="#f59e0b"/>
</svg>
