<?xml version="1.0" standalone="no"?>
<!DOCTYPE svg PUBLIC "-//W3C//DTD SVG 20010904//EN"
 "http://www.w3.org/TR/2001/REC-SVG-20010904/DTD/svg10.dtd">
<svg version="1.0" xmlns="http://www.w3.org/2000/svg"
 width="1254.000000pt" height="1254.000000pt" viewBox="0 0 1254.000000 1254.000000"
 preserveAspectRatio="xMidYMid meet">
<metadata>
Created by potrace 1.16, written by Peter Selinger 2001-2019
</metadata>
<g transform="translate(0.000000,1254.000000) scale(0.100000,-0.100000)"
fill="#000000" stroke="none">
<path d="M6170 10251 c-99 -31 -195 -113 -236 -204 -39 -87 -45 -199 -14 -280
40 -105 152 -216 238 -233 17 -4 32 -10 32 -14 0 -5 -10 -6 -22 -4 l-23 5 23
-17 22 -16 0 -422 c0 -231 -3 -431 -6 -443 -4 -13 -13 -23 -21 -23 -8 0 -12
-4 -9 -9 6 -9 -89 -21 -176 -21 -65 0 -99 -14 -140 -57 -42 -44 -48 -74 -48
-232 0 -107 -4 -151 -12 -158 -7 -6 -47 -20 -88 -33 -98 -29 -189 -68 -281
-120 -55 -31 -78 -39 -89 -32 -8 6 -14 15 -12 22 1 6 -2 9 -6 6 -10 -6 -45 28
-37 36 3 3 -3 11 -12 19 -17 13 -17 13 -3 -6 8 -11 0 -7 -18 9 -34 32 -44 48
-14 25 15 -13 16 -12 3 3 -7 10 -17 16 -21 13 -4 -2 -20 9 -36 26 -51 53 -91
72 -153 72 -57 0 -116 -26 -150 -67 -7 -8 -17 -14 -21 -11 -4 2 -15 -4 -25
-15 -10 -11 -14 -20 -9 -20 5 0 -67 -76 -160 -169 -94 -94 -173 -168 -178
-165 -5 3 -8 2 -7 -3 3 -13 -13 -43 -20 -38 -4 2 -8 -1 -9 -8 -1 -7 -4 -33 -8
-59 -11 -77 1 -109 70 -189 36 -40 63 -76 61 -80 -3 -3 10 -19 28 -35 l32 -29
-30 35 -30 35 38 -35 c20 -19 35 -40 32 -48 -2 -7 0 -10 5 -7 11 7 13 -6 4
-29 -3 -9 -11 -13 -17 -9 -5 3 -7 1 -4 -5 10 -15 -3 -43 -16 -35 -5 3 -7 1 -4
-4 4 -6 -13 -55 -37 -109 -24 -55 -52 -125 -61 -156 -10 -31 -22 -55 -27 -52
-4 3 -5 -2 -2 -10 3 -8 1 -24 -6 -35 -10 -20 -19 -21 -162 -21 -144 0 -153 -1
-194 -25 -26 -15 -54 -43 -69 -69 l-25 -43 0 -306 0 -307 -228 0 -228 0 -23
49 c-51 114 -197 195 -305 171 -102 -23 -175 -78 -213 -161 l-28 -60 -200 3
c-235 4 -254 10 -299 100 l-26 52 0 298 0 298 708 2 707 3 67 32 c36 17 68 29
71 27 2 -3 10 2 17 11 7 8 9 15 5 15 -4 0 9 19 30 41 21 23 49 67 64 98 l26
56 3 1209 c3 1335 6 1249 -60 1352 -18 27 -31 53 -30 57 1 5 -2 6 -7 3 -11 -7
-33 19 -23 28 4 4 2 6 -3 5 -6 -2 -32 10 -59 26 -97 57 -47 55 -1376 55
l-1225 -1 -70 -23 c-38 -13 -73 -22 -78 -19 -4 2 -6 1 -5 -4 2 -4 -21 -30 -50
-57 -32 -30 -64 -74 -85 -115 l-32 -66 0 -1220 0 -1220 23 -58 c14 -35 46 -82
80 -120 32 -34 48 -55 37 -48 -19 14 -19 14 -4 -3 9 -9 27 -19 40 -21 13 -2
49 -13 79 -24 52 -19 79 -20 522 -21 l467 0 3 -327 c3 -319 4 -329 26 -374 45
-90 127 -166 211 -195 28 -9 99 -14 245 -14 l205 -1 30 -54 c36 -64 105 -120
174 -140 66 -19 82 -19 160 5 74 23 141 79 176 149 l21 41 245 0 244 0 46 -32
47 -33 160 -5 c130 -4 162 -8 168 -20 4 -8 22 -55 40 -105 17 -49 58 -145 90
-212 l58 -122 -21 -18 -22 -18 20 25 20 25 -22 -19 c-13 -10 -20 -22 -18 -26
3 -5 -33 -49 -80 -99 -46 -49 -88 -103 -92 -118 -11 -43 -6 -164 7 -160 9 3
349 -346 345 -353 -2 -4 9 -20 25 -35 17 -16 30 -25 30 -20 0 5 15 -5 33 -22
68 -65 144 -80 216 -44 20 11 71 51 113 90 41 39 79 67 83 63 5 -4 5 -2 2 4
-4 6 3 20 16 30 14 13 17 14 9 3 -11 -14 -9 -16 14 -11 20 3 23 7 12 14 -10 7
-8 8 5 4 10 -3 21 -6 23 -6 3 0 3 -4 0 -9 -3 -5 1 -8 10 -7 10 0 18 -8 21 -23
2 -14 6 -27 10 -30 3 -3 3 4 0 17 -3 12 -1 22 4 22 5 0 9 -235 9 -567 0 -543
-1 -570 -20 -611 -11 -24 -24 -41 -29 -38 -5 4 -13 1 -17 -5 -4 -8 -3 -9 4 -5
19 11 14 -9 -6 -27 -21 -19 -37 -22 -26 -5 4 7 3 8 -5 4 -6 -4 -9 -11 -6 -16
3 -5 -9 -17 -27 -27 -31 -17 -79 -18 -649 -21 l-616 -3 -19 48 c-10 26 -17 53
-16 60 1 6 -3 15 -9 19 -8 5 -10 2 -5 -7 4 -8 -10 5 -31 28 -21 23 -59 55 -85
71 -26 16 -46 31 -44 33 6 6 -72 13 -149 13 -60 1 -81 -4 -137 -32 -42 -20
-83 -50 -109 -80 -23 -26 -45 -46 -50 -45 -4 2 -5 -5 -2 -14 5 -12 3 -14 -7
-8 -9 5 -11 4 -6 -3 4 -6 0 -33 -9 -59 -42 -122 -8 -262 84 -353 84 -84 135
-105 251 -105 78 0 103 4 139 22 24 13 49 20 55 16 6 -3 8 -3 4 2 -9 10 32 41
47 37 5 -2 7 -1 3 3 -3 4 11 29 32 57 20 27 43 67 50 89 l13 39 596 2 c328 2
615 2 639 2 23 0 38 3 32 6 -5 3 7 12 28 19 66 24 144 83 188 144 80 108 78
93 82 699 l3 536 92 -30 c51 -17 94 -33 97 -35 3 -3 7 -78 10 -167 5 -160 5
-163 34 -200 47 -62 90 -76 239 -76 l127 0 0 -349 c0 -197 -4 -361 -9 -375 -7
-16 -7 -26 0 -28 6 -2 -12 -14 -39 -26 -106 -48 -191 -158 -208 -268 -8 -58
11 -158 41 -210 32 -54 101 -117 161 -145 39 -17 67 -22 134 -23 74 0 92 3
139 28 135 70 215 217 190 350 -22 118 -96 218 -197 265 l-52 24 0 379 0 378
127 0 c146 0 193 15 241 78 26 34 27 40 32 198 3 89 7 165 10 167 3 3 38 15
79 27 40 12 79 24 87 27 10 4 13 -94 16 -534 3 -494 5 -542 22 -583 10 -25 20
-61 23 -80 4 -37 9 -47 19 -38 3 4 0 17 -6 30 -11 22 -11 22 9 -2 11 -14 19
-30 16 -37 -4 -11 11 -27 25 -28 13 0 120 -84 113 -87 -4 -3 -3 -4 4 -2 18 4
84 -19 73 -26 -5 -3 9 -6 32 -6 24 0 314 0 646 -2 473 -2 602 -5 602 -14 0 -7
10 -33 22 -58 12 -25 20 -50 19 -56 0 -6 7 -18 16 -25 17 -13 17 -13 3 6 -8
11 10 -2 40 -30 30 -27 54 -53 53 -57 -2 -4 5 -4 14 -1 11 4 14 3 9 -5 -5 -8
-1 -10 10 -5 10 3 15 2 12 -3 -8 -12 45 -18 152 -18 66 0 96 4 132 21 66 30
143 105 175 172 25 49 28 67 28 151 0 88 -3 101 -33 162 -77 157 -260 235
-417 178 -33 -12 -68 -22 -77 -24 -10 -1 -21 -6 -25 -11 -5 -4 -2 -5 4 -1 7 4
-11 -17 -40 -46 -28 -29 -62 -74 -75 -100 -13 -26 -26 -47 -30 -47 -4 1 -18 0
-32 -1 -21 -2 -20 -4 10 -10 19 -4 -239 -8 -575 -8 -486 -1 -618 2 -648 12
-51 19 -110 65 -103 82 3 8 0 13 -7 11 -7 -1 -11 6 -11 15 1 10 -2 16 -6 13
-26 -16 -30 63 -30 613 l0 568 43 20 c48 23 83 25 79 6 -1 -8 1 -11 6 -8 10 6
75 -57 67 -65 -2 -3 11 -21 30 -39 19 -19 35 -31 35 -26 0 4 19 -7 43 -24 81
-58 158 -53 242 16 30 24 55 41 55 38 0 -4 9 1 20 11 11 10 17 21 15 25 -6 9
91 105 105 105 5 0 15 6 22 13 6 6 8 12 3 12 -5 0 11 20 35 45 24 24 46 42 50
40 4 -2 20 9 35 25 16 17 25 30 21 30 -4 0 13 23 38 51 41 46 66 98 66 139 0
50 -26 95 -105 181 -47 50 -83 95 -80 99 2 4 -5 16 -18 26 l-22 19 20 -25 20
-25 -22 19 -22 18 54 108 c30 60 71 157 91 217 21 59 41 113 46 120 6 7 64 12
173 15 l163 3 40 32 40 32 260 0 261 0 21 -44 c12 -25 43 -64 70 -88 138 -124
369 -79 450 88 l21 44 226 1 c124 0 243 5 263 10 64 17 156 84 194 142 54 81
66 145 66 346 0 95 4 171 8 168 4 -2 14 -1 22 5 12 7 9 9 -10 11 -14 1 191 5
455 8 429 4 484 7 514 22 18 10 39 15 45 11 6 -3 8 -3 4 1 -4 4 8 21 26 36 18
16 45 53 62 82 l29 53 3 1300 c2 1007 0 1312 -10 1355 -7 30 -12 61 -11 68 0
7 -1 11 -4 8 -3 -3 -18 10 -32 29 -14 20 -45 48 -69 63 -23 16 -39 31 -36 35
3 3 -4 3 -17 0 -15 -4 -20 -2 -15 5 5 8 -259 11 -981 9 l-988 -2 -52 -23 c-28
-13 -59 -32 -69 -43 -9 -10 -22 -16 -28 -12 -6 3 -8 3 -4 -1 3 -4 -5 -24 -18
-43 -56 -83 -54 -27 -54 -1417 0 -705 4 -1298 9 -1318 5 -21 22 -59 37 -85 16
-26 28 -51 27 -55 -2 -3 5 -12 15 -20 16 -12 16 -11 3 7 -8 11 1 3 21 -17 20
-21 42 -39 49 -39 43 -5 102 -5 486 -7 l421 -2 -2 -193 c-2 -221 -9 -246 -85
-301 l-43 -31 -227 -3 -228 -3 -16 42 c-9 23 -14 46 -10 52 3 6 2 7 -3 4 -5
-3 -27 12 -49 34 -21 22 -63 51 -92 66 -47 22 -63 25 -126 21 -39 -3 -88 -12
-109 -22 -52 -25 -123 -99 -145 -151 l-18 -45 -242 0 -243 0 0 308 0 308 -29
47 c-49 76 -82 87 -259 87 -108 0 -152 3 -159 13 -5 6 -24 56 -41 110 -18 54
-48 132 -67 173 -19 42 -32 81 -28 87 4 6 1 7 -7 2 -10 -6 -12 -4 -6 11 4 10
4 15 0 11 -10 -10 -33 24 -34 48 0 24 82 109 95 98 4 -5 5 -2 1 4 -8 15 72
106 85 97 5 -3 8 -2 7 3 -1 4 6 22 15 40 19 35 23 117 7 158 -5 14 -33 51 -61
81 -29 30 -48 54 -43 54 4 0 -7 16 -26 35 -18 19 -36 32 -40 30 -9 -5 -42 30
-35 37 3 2 -9 17 -25 33 -17 16 -30 25 -30 20 0 -5 -18 8 -40 30 -21 21 -36
43 -33 48 3 6 2 7 -4 4 -5 -4 -23 8 -39 26 l-29 32 30 -25 30 -25 -24 27 c-13
15 -27 25 -31 23 -4 -2 -18 7 -31 21 -45 48 -88 67 -148 67 -31 0 -67 -6 -81
-13 -14 -7 -73 -60 -132 -118 -104 -102 -109 -105 -133 -92 -13 7 -22 18 -18
23 3 6 1 7 -6 3 -6 -4 -28 2 -48 14 -55 32 -237 108 -291 121 -26 7 -53 16
-59 22 -10 7 -13 51 -13 159 0 164 -7 194 -58 241 -49 47 -92 56 -224 50
l-118 -6 0 480 0 481 34 6 c42 8 143 81 180 129 14 19 38 63 52 98 23 56 26
74 21 146 -9 145 -87 261 -219 323 -54 26 -74 30 -143 29 -44 0 -91 -4 -105
-8z m195 -179 c70 -34 105 -93 105 -176 0 -65 -13 -104 -43 -129 -12 -10 -15
-16 -7 -12 8 3 0 -7 -19 -24 -46 -40 -117 -57 -178 -41 -54 13 -106 47 -97 62
4 6 2 8 -3 5 -31 -20 -72 115 -54 179 24 88 80 139 168 153 54 9 84 5 128 -17z
m-2511 -444 c58 -18 120 -82 134 -140 7 -27 12 -123 12 -228 0 -160 -2 -181
-17 -187 -15 -6 -15 -7 3 -14 10 -4 -608 -8 -1373 -8 l-1393 -1 0 214 c0 216
3 251 23 239 6 -3 7 -1 3 5 -18 30 54 102 122 122 15 5 571 9 1236 9 929 1
1218 -2 1250 -11z m7425 -173 c16 -14 34 -40 39 -58 10 -34 16 -649 6 -680 -3
-9 -10 -15 -15 -12 -5 4 -9 -1 -9 -9 0 -13 -12 -16 -52 -16 -29 0 -487 0
-1018 0 l-965 0 -3 345 c-2 288 0 351 13 381 9 22 19 33 26 28 7 -4 9 -3 5 4
-3 6 4 18 16 26 20 14 126 16 974 16 l952 0 31 -25z m-7281 -1452 l-3 -888
-22 -41 c-12 -23 -36 -53 -53 -68 -70 -58 -25 -57 -1336 -54 -1180 3 -1200 3
-1239 23 -22 11 -39 26 -37 33 1 8 -2 11 -8 7 -15 -9 -42 15 -36 32 3 8 1 11
-4 8 -6 -4 -17 9 -25 29 -13 30 -15 162 -15 921 l0 885 1390 0 1391 0 -3 -887z
m7331 108 l2 -398 -133 -6 c-144 -6 -1756 -6 -1850 1 -42 3 -58 8 -61 20 -3
12 -5 9 -6 -6 0 -13 -5 -20 -11 -17 -7 4 -10 145 -9 406 l1 399 1033 0 1033 0
1 -399z m-4751 287 c8 -8 12 -59 12 -165 0 -222 15 -247 171 -289 99 -26 252
-91 350 -149 117 -68 137 -62 284 85 81 82 116 110 135 110 19 0 71 -46 222
-197 131 -131 198 -205 198 -219 0 -11 -12 -31 -27 -45 -15 -13 -21 -16 -14
-6 9 11 10 17 2 17 -10 0 -15 -14 -12 -34 1 -5 -27 -39 -62 -75 -147 -152
-148 -158 -48 -352 42 -82 84 -181 107 -254 31 -102 43 -125 75 -157 51 -49
120 -60 276 -45 57 6 88 5 104 -3 13 -8 18 -15 11 -19 -7 -4 -8 -26 -3 -66 12
-83 10 -527 -2 -542 -7 -10 -51 -13 -159 -13 -225 0 -243 -13 -308 -215 -25
-77 -68 -180 -106 -253 -94 -180 -94 -179 51 -337 63 -68 115 -130 115 -136 0
-21 -403 -419 -425 -419 -13 0 -58 38 -120 101 -55 55 -112 107 -127 115 -52
27 -94 18 -207 -45 -115 -63 -195 -97 -311 -131 -158 -47 -170 -66 -170 -278
0 -117 -3 -154 -14 -165 -12 -11 -66 -13 -309 -12 -162 2 -300 6 -306 9 -7 5
-11 60 -11 163 0 167 -9 207 -55 237 -12 8 -85 35 -161 60 -89 30 -178 68
-249 107 -114 63 -155 76 -201 65 -15 -4 -78 -56 -140 -117 -62 -60 -121 -109
-131 -109 -10 0 -108 90 -223 205 -239 240 -230 194 -72 364 98 106 102 112
102 156 0 36 -12 68 -59 158 -65 122 -99 204 -131 314 -40 140 -84 165 -292
162 -93 -1 -144 3 -151 10 -12 12 -23 564 -12 609 5 22 8 22 161 22 228 0 243
10 309 207 49 149 78 215 134 311 31 54 41 81 41 115 0 52 -6 61 -137 202 -51
55 -93 108 -93 118 0 10 86 105 197 217 152 154 203 200 222 200 18 0 55 -30
140 -114 132 -130 161 -144 228 -109 203 107 269 137 349 163 52 16 102 30
111 30 24 0 81 46 98 80 11 22 15 68 16 192 0 94 4 155 9 143 7 -18 8 -18 15
8 l7 27 292 0 c214 0 295 -3 304 -12z m-1738 -322 c0 -2 -8 -10 -17 -17 -16
-13 -17 -12 -4 4 13 16 21 21 21 13z m3040 -171 c13 -14 21 -25 18 -25 -2 0
-15 11 -28 25 -13 14 -21 25 -18 25 2 0 15 -11 28 -25z m96 -97 l29 -33 -32
29 c-31 28 -38 36 -30 36 2 0 16 -15 33 -32z m3354 -618 c0 -389 -2 -404 -62
-437 -31 -17 -84 -18 -978 -18 -884 0 -948 1 -973 17 -14 10 -31 28 -38 39
-24 46 -23 739 1 724 5 -3 11 -1 14 4 4 5 -4 12 -16 14 -13 2 444 5 1015 6
l1037 1 0 -350z m-8005 -1104 c63 -27 86 -126 45 -194 -66 -107 -244 -37 -227
90 7 51 31 86 70 103 41 18 70 18 112 1z m6067 -25 c101 -113 -32 -279 -160
-201 -60 37 -77 125 -37 187 40 61 148 69 197 14z m-1382 -1214 c0 -2 -12 -14
-27 -28 l-28 -24 24 28 c23 25 31 32 31 24z m-3190 -282 c13 -14 21 -25 18
-25 -2 0 -15 11 -28 25 -13 14 -21 25 -18 25 2 0 15 -11 28 -25z m2526 -17
l29 -33 -32 29 c-31 28 -38 36 -30 36 2 0 16 -15 33 -32z m394 28 c0 -2 -8
-10 -17 -17 -16 -13 -17 -12 -4 4 13 16 21 21 21 13z m-3965 -1189 c127 -72
122 -266 -9 -334 -18 -9 -41 -13 -60 -9 -22 4 -27 3 -16 -4 12 -8 12 -10 -5
-10 -101 0 -195 92 -194 190 0 47 22 106 38 102 7 -1 10 2 6 8 -19 30 75 80
150 80 33 0 63 -8 90 -23z m5199 -11 c26 -20 35 -33 31 -46 -3 -10 0 -22 6
-26 9 -5 10 -2 6 10 -4 10 -3 15 3 11 13 -8 30 -72 30 -113 0 -70 -58 -143
-132 -168 -146 -48 -279 82 -239 233 24 90 90 135 192 130 55 -2 73 -7 103
-31z m-2613 -279 c41 -27 79 -98 79 -147 0 -49 -38 -120 -79 -147 -47 -32
-135 -32 -181 0 -72 48 -98 117 -74 196 14 49 52 93 94 110 47 18 124 13 161
-12z"/>
<path d="M6240 9698 c0 -4 14 -8 30 -8 17 0 30 2 30 4 0 2 -13 6 -30 8 -16 3
-30 1 -30 -4z"/>
<path d="M3906 9571 c10 -10 21 -17 23 -15 6 6 -20 34 -32 34 -6 0 -2 -8 9
-19z"/>
<path d="M1570 9433 c-54 -20 -81 -83 -56 -132 31 -60 99 -70 147 -22 47 48
38 116 -21 146 -30 16 -45 17 -70 8z"/>
<path d="M1968 9424 c-83 -44 -53 -174 40 -174 44 0 68 14 87 49 13 26 19 108
7 96 -3 -2 -18 7 -34 20 -33 28 -61 31 -100 9z"/>
<path d="M2394 9430 c-56 -23 -73 -112 -29 -155 71 -72 193 25 145 116 -11 20
-60 49 -82 48 -7 0 -23 -4 -34 -9z"/>
<path d="M1230 9070 c0 -5 5 -10 10 -10 6 0 10 5 10 10 0 6 -4 10 -10 10 -5 0
-10 -4 -10 -10z"/>
<path d="M10893 9190 c-62 -37 -84 -131 -42 -184 69 -88 198 -63 231 45 9 31
8 43 -8 75 -37 76 -117 104 -181 64z"/>
<path d="M1230 8869 c0 -5 5 -7 10 -4 6 3 10 8 10 11 0 2 -4 4 -10 4 -5 0 -10
-5 -10 -11z"/>
<path d="M2763 8505 c-15 -10 -69 -134 -174 -400 -86 -217 -157 -381 -162
-378 -6 3 -7 1 -3 -6 10 -16 -54 -182 -67 -174 -6 3 -7 1 -3 -6 4 -6 -3 -40
-15 -75 -20 -55 -21 -67 -10 -94 17 -42 64 -61 100 -41 34 19 40 32 185 399
272 689 277 703 271 727 -13 54 -77 79 -122 48z"/>
<path d="M1920 8165 c-102 -102 -191 -198 -197 -214 -8 -18 -9 -39 -5 -51 4
-12 92 -106 196 -210 170 -170 191 -188 226 -192 21 -2 37 -1 34 3 -2 3 5 14
16 24 13 12 20 31 20 53 0 31 -12 47 -105 142 -58 58 -102 110 -98 115 5 4 3
5 -3 2 -14 -8 -87 66 -77 78 5 4 3 5 -4 1 -6 -3 -14 -3 -17 2 -3 5 65 78 150
163 137 136 154 157 154 187 0 23 -8 40 -26 57 -52 48 -64 41 -264 -160z"/>
<path d="M3035 8336 c-20 -12 -25 -20 -33 -69 -4 -25 12 -45 154 -188 147
-148 157 -161 139 -172 -11 -6 -23 -12 -27 -12 -5 0 -8 -4 -8 -10 -1 -17 -73
-85 -83 -78 -6 3 -7 1 -3 -6 4 -6 -25 -44 -74 -94 -88 -89 -100 -105 -100
-137 0 -32 44 -70 81 -70 28 0 50 18 169 135 75 75 139 133 143 130 4 -3 5 -2
2 2 -3 3 17 30 45 59 51 54 68 93 54 123 -5 10 -72 84 -149 165 -77 81 -139
151 -138 155 1 5 -4 15 -12 21 -8 7 -15 9 -15 5 0 -4 -16 7 -35 24 -38 33 -74
38 -110 17z"/>
<path d="M10903 8225 c-63 -27 -91 -112 -58 -175 52 -101 186 -91 232 17 25
62 -11 136 -80 162 -37 14 -55 13 -94 -4z"/>
<path d="M10812 8105 c0 -16 2 -22 5 -12 2 9 2 23 0 30 -3 6 -5 -1 -5 -18z"/>
<path d="M6573 8340 c0 -25 2 -35 4 -22 2 12 2 32 0 45 -2 12 -4 2 -4 -23z"/>
<path d="M6100 7644 c-257 -47 -403 -101 -573 -210 -38 -25 -73 -42 -78 -38
-5 3 -8 2 -7 -3 2 -5 -42 -52 -98 -106 -437 -420 -548 -1063 -276 -1604 23
-45 39 -89 36 -97 -3 -7 -1 -17 5 -21 7 -4 9 1 5 12 -5 17 -4 17 8 0 90 -126
141 -188 229 -272 57 -54 104 -102 104 -106 0 -4 4 -11 9 -16 5 -5 6 -3 2 5
-12 20 -1 15 75 -34 127 -83 307 -157 460 -190 41 -8 137 -18 214 -21 172 -7
320 13 471 62 57 19 110 33 117 31 6 -1 8 -1 3 2 -4 2 36 28 91 56 513 269
793 829 707 1415 -20 142 -83 326 -151 448 -30 54 -55 104 -56 111 0 6 -4 12
-7 12 -4 0 -26 24 -48 53 -22 29 -78 91 -123 136 -46 45 -84 86 -84 91 0 5 -4
12 -9 17 -5 5 -6 3 -2 -4 4 -7 5 -13 2 -13 -12 0 -121 82 -119 90 1 4 -5 7
-15 6 -9 0 -16 4 -15 11 2 8 -4 10 -14 6 -12 -5 -14 -3 -8 7 5 8 4 11 -3 6 -6
-4 -46 11 -89 32 -43 22 -111 50 -151 63 -56 18 -69 25 -55 31 13 6 10 7 -9 3
-14 -3 -57 2 -95 11 -66 15 -397 28 -453 18z m452 -193 c100 -23 241 -79 232
-92 -3 -5 1 -6 9 -3 22 8 173 -86 253 -158 118 -106 232 -247 218 -269 -5 -8
-3 -9 6 -4 10 6 12 4 7 -9 -4 -10 -3 -15 3 -11 16 10 103 -180 95 -208 -4 -15
-3 -18 3 -9 10 15 8 19 43 -108 26 -97 36 -329 20 -454 -7 -48 -23 -125 -37
-170 -33 -106 -94 -237 -107 -229 -6 4 -7 1 -3 -6 15 -24 -174 -279 -196 -265
-4 3 -7 2 -6 -3 7 -20 -126 -128 -143 -117 -7 4 -9 3 -6 -3 9 -14 -40 -46 -55
-37 -6 4 -8 3 -5 -3 9 -14 -144 -93 -233 -122 -302 -97 -636 -74 -909 63 -95
47 -191 114 -188 129 1 7 -5 11 -14 9 -20 -3 -173 144 -164 157 3 5 0 13 -6
17 -8 5 -9 3 -4 -7 8 -12 6 -12 -8 0 -19 15 -23 36 -5 25 7 -4 8 -3 4 5 -4 6
-11 9 -16 6 -4 -3 -16 7 -25 21 -12 18 -13 24 -4 19 8 -4 2 3 -13 16 -35 31
-102 155 -94 175 3 8 2 13 -3 10 -12 -8 -48 81 -79 193 -24 88 -26 113 -26
291 -1 185 1 200 27 294 33 114 85 238 98 230 5 -3 6 1 3 9 -9 24 107 209 128
204 7 -1 12 7 13 18 0 11 6 19 13 17 8 -1 11 1 8 6 -5 9 52 71 67 72 4 0 7 3
6 6 -1 9 53 64 63 64 5 0 6 -6 2 -12 -4 -8 -3 -10 2 -5 5 5 9 14 9 20 0 17
107 88 123 82 7 -2 10 0 7 5 -15 24 243 127 391 155 112 21 378 14 496 -14z"/>
<path d="M7286 6877 c3 -10 9 -15 12 -12 3 3 0 11 -7 18 -10 9 -11 8 -5 -6z"/>
<path d="M5206 6793 c-6 -14 -5 -15 5 -6 7 7 10 15 7 18 -3 3 -9 -2 -12 -12z"/>
<path d="M5699 6741 c-27 -21 -42 -55 -119 -266 -29 -77 -67 -180 -85 -230
-92 -249 -115 -323 -109 -341 23 -64 95 -86 132 -39 11 14 30 54 43 90 l23 65
159 -2 160 -3 24 -65 c30 -79 57 -110 95 -110 41 0 63 14 77 48 11 27 6 47
-59 221 -39 105 -68 196 -64 203 4 6 3 8 -3 5 -6 -4 -28 43 -53 111 -100 277
-112 302 -141 318 -37 19 -51 18 -80 -5z m89 -411 c42 -112 49 -135 34 -126
-4 2 -14 1 -22 -5 -11 -6 -7 -9 15 -10 19 -1 23 -3 12 -6 -10 -3 -32 1 -48 8
-23 9 -33 9 -42 0 -6 -6 -30 -11 -53 -11 l-43 0 31 83 c16 45 37 103 46 130 9
26 19 47 22 47 4 0 25 -50 48 -110z"/>
<path d="M6277 6749 c-42 -24 -43 -44 -37 -466 5 -397 5 -403 27 -424 31 -32
80 -30 110 5 22 26 23 35 23 172 l0 144 107 0 c86 0 115 4 147 20 67 32 113
77 145 142 25 50 31 73 31 127 0 82 -22 133 -86 201 -71 75 -119 90 -302 90
-81 0 -155 -5 -165 -11z m334 -175 c56 -28 75 -113 39 -172 -28 -45 -73 -62
-170 -62 l-80 0 0 125 0 125 90 0 c63 0 100 -5 121 -16z"/>
<path d="M6979 6730 l-30 -29 3 -411 3 -412 24 -19 c32 -26 77 -24 106 6 l25
24 0 406 0 407 -29 29 c-37 37 -65 37 -102 -1z"/>
<path d="M6750 7580 c8 -5 20 -10 25 -10 6 0 3 5 -5 10 -8 5 -19 10 -25 10 -5
0 -3 -5 5 -10z"/>
<path d="M7870 4979 c0 -5 5 -7 10 -4 6 3 10 8 10 11 0 2 -4 4 -10 4 -5 0 -10
-5 -10 -11z"/>
<path d="M5928 4963 c7 -3 16 -2 19 1 4 3 -2 6 -13 5 -11 0 -14 -3 -6 -6z"/>
<path d="M5968 4953 c7 -3 16 -2 19 1 4 3 -2 6 -13 5 -11 0 -14 -3 -6 -6z"/>
<path d="M6073 4933 c9 -2 23 -2 30 0 6 3 -1 5 -18 5 -16 0 -22 -2 -12 -5z"/>
<path d="M7594 4699 c-19 -22 -19 -22 4 -10 12 6 22 16 22 21 0 15 -5 12 -26
-11z"/>
<path d="M6572 4500 c0 -14 2 -19 5 -12 2 6 2 18 0 25 -3 6 -5 1 -5 -13z"/>
<path d="M5962 4295 c0 -16 2 -22 5 -12 2 9 2 23 0 30 -3 6 -5 -1 -5 -18z"/>
<path d="M10889 7245 c-65 -35 -76 -143 -21 -198 76 -76 215 -23 215 82 0 99
-107 163 -194 116z"/>
<path d="M10948 6993 c6 -2 18 -2 25 0 6 3 1 5 -13 5 -14 0 -19 -2 -12 -5z"/>
<path d="M3170 5901 c5 -11 15 -23 21 -27 6 -3 3 5 -6 20 -20 30 -30 35 -15 7z"/>
<path d="M3253 5853 c9 -2 25 -2 35 0 9 3 1 5 -18 5 -19 0 -27 -2 -17 -5z"/>
<path d="M9400 5944 c-7 -27 -18 -56 -24 -64 -10 -13 -9 -13 6 -1 18 14 42 84
35 104 -2 6 -9 -11 -17 -39z"/>
<path d="M9283 5853 c9 -2 25 -2 35 0 9 3 1 5 -18 5 -19 0 -27 -2 -17 -5z"/>
<path d="M3515 3299 c-4 -6 -5 -12 -2 -15 2 -3 7 2 10 11 7 17 1 20 -8 4z"/>
<path d="M3545 3100 c10 -11 20 -20 23 -20 3 0 -3 9 -13 20 -10 11 -20 20 -23
20 -3 0 3 -9 13 -20z"/>
<path d="M9015 3149 c-4 -6 -5 -12 -2 -15 2 -3 7 2 10 11 7 17 1 20 -8 4z"/>
<path d="M1563 9823 c15 -2 39 -2 55 0 15 2 2 4 -28 4 -30 0 -43 -2 -27 -4z"/>
<path d="M2908 9823 c23 -2 61 -2 85 0 23 2 4 4 -43 4 -47 0 -66 -2 -42 -4z"/>
<path d="M3538 9823 c12 -2 32 -2 45 0 12 2 2 4 -23 4 -25 0 -35 -2 -22 -4z"/>
<path d="M3900 9806 c0 -2 7 -7 16 -10 8 -3 12 -2 9 4 -6 10 -25 14 -25 6z"/>
<path d="M1032 9300 c0 -19 2 -27 5 -17 2 9 2 25 0 35 -3 9 -5 1 -5 -18z"/>
<path d="M9081 9074 c0 -11 3 -14 6 -6 3 7 2 16 -1 19 -3 4 -6 -2 -5 -13z"/>
<path d="M9082 8980 c0 -14 2 -19 5 -12 2 6 2 18 0 25 -3 6 -5 1 -5 -13z"/>
<path d="M1032 8800 c0 -14 2 -19 5 -12 2 6 2 18 0 25 -3 6 -5 1 -5 -13z"/>
<path d="M9081 8584 c0 -11 3 -14 6 -6 3 7 2 16 -1 19 -3 4 -6 -2 -5 -13z"/>
<path d="M9082 8460 c0 -19 2 -27 5 -17 2 9 2 25 0 35 -3 9 -5 1 -5 -18z"/>
<path d="M9082 8340 c0 -19 2 -27 5 -17 2 9 2 25 0 35 -3 9 -5 1 -5 -18z"/>
<path d="M9082 8150 c0 -14 2 -19 5 -12 2 6 2 18 0 25 -3 6 -5 1 -5 -13z"/>
<path d="M7100 7996 c0 -2 7 -7 16 -10 8 -3 12 -2 9 4 -6 10 -25 14 -25 6z"/>
<path d="M9082 7965 c0 -16 2 -22 5 -12 2 9 2 23 0 30 -3 6 -5 -1 -5 -18z"/>
<path d="M9082 7890 c0 -14 2 -19 5 -12 2 6 2 18 0 25 -3 6 -5 1 -5 -13z"/>
<path d="M9081 7824 c0 -11 3 -14 6 -6 3 7 2 16 -1 19 -3 4 -6 -2 -5 -13z"/>
<path d="M11501 7534 c0 -11 3 -14 6 -6 3 7 2 16 -1 19 -3 4 -6 -2 -5 -13z"/>
<path d="M1033 7425 c0 -22 2 -30 4 -17 2 12 2 30 0 40 -3 9 -5 -1 -4 -23z"/>
<path d="M7955 7310 c-16 -17 -16 -20 -3 -15 9 4 19 13 22 21 7 19 2 18 -19
-6z"/>
<path d="M9082 7115 c0 -16 2 -22 5 -12 2 9 2 23 0 30 -3 6 -5 -1 -5 -18z"/>
<path d="M11502 6920 c0 -14 2 -19 5 -12 2 6 2 18 0 25 -3 6 -5 1 -5 -13z"/>
<path d="M9091 6784 c0 -11 3 -14 6 -6 3 7 2 16 -1 19 -3 4 -6 -2 -5 -13z"/>
<path d="M1793 6773 c15 -2 39 -2 55 0 15 2 2 4 -28 4 -30 0 -43 -2 -27 -4z"/>
<path d="M2073 6773 c9 -2 25 -2 35 0 9 3 1 5 -18 5 -19 0 -27 -2 -17 -5z"/>
<path d="M2255 6770 c3 -5 8 -10 11 -10 2 0 4 5 4 10 0 6 -5 10 -11 10 -5 0
-7 -4 -4 -10z"/>
<path d="M2483 6773 c9 -2 23 -2 30 0 6 3 -1 5 -18 5 -16 0 -22 -2 -12 -5z"/>
<path d="M3293 6773 c15 -2 37 -2 50 0 12 2 0 4 -28 4 -27 0 -38 -2 -22 -4z"/>
<path d="M3643 6773 c9 -2 25 -2 35 0 9 3 1 5 -18 5 -19 0 -27 -2 -17 -5z"/>
<path d="M10598 6553 c12 -2 30 -2 40 0 9 3 -1 5 -23 4 -22 0 -30 -2 -17 -4z"/>
<path d="M9574 6088 c8 -18 19 -34 25 -36 6 -2 2 12 -10 32 -26 45 -32 46 -15
4z"/>
<path d="M2658 6053 c6 -2 18 -2 25 0 6 3 1 5 -13 5 -14 0 -19 -2 -12 -5z"/>
<path d="M3550 5860 c0 -5 5 -10 11 -10 5 0 7 5 4 10 -3 6 -8 10 -11 10 -2 0
-4 -4 -4 -10z"/>
<path d="M9006 5861 c-3 -5 1 -14 8 -20 12 -10 13 -8 9 8 -6 23 -9 25 -17 12z"/>
<path d="M7121 4604 c0 -11 3 -14 6 -6 3 7 2 16 -1 19 -3 4 -6 -2 -5 -13z"/>
<path d="M6921 4514 c0 -11 3 -14 6 -6 3 7 2 16 -1 19 -3 4 -6 -2 -5 -13z"/>
<path d="M8700 3560 c-8 -5 -10 -10 -5 -10 6 0 17 5 25 10 8 5 11 10 5 10 -5
0 -17 -5 -25 -10z"/>
<path d="M6932 3490 c0 -14 2 -19 5 -12 2 6 2 18 0 25 -3 6 -5 1 -5 -13z"/>
<path d="M4030 3330 c0 -5 5 -10 11 -10 5 0 7 5 4 10 -3 6 -8 10 -11 10 -2 0
-4 -4 -4 -10z"/>
<path d="M4138 3323 c12 -2 30 -2 40 0 9 3 -1 5 -23 4 -22 0 -30 -2 -17 -4z"/>
<path d="M3648 2853 c7 -3 16 -2 19 1 4 3 -2 6 -13 5 -11 0 -14 -3 -6 -6z"/>
</g>
</svg>
