<?xml version="1.0" standalone="no"?>
<!DOCTYPE svg PUBLIC "-//W3C//DTD SVG 20010904//EN"
 "http://www.w3.org/TR/2001/REC-SVG-20010904/DTD/svg10.dtd">
<svg version="1.0" xmlns="http://www.w3.org/2000/svg"
 width="1254.000000pt" height="1254.000000pt" viewBox="0 0 1254.000000 1254.000000"
 preserveAspectRatio="xMidYMid meet">
<metadata>
Created by potrace 1.16, written by Peter Selinger 2001-2019
</metadata>
<g transform="translate(0.000000,1254.000000) scale(0.100000,-0.100000)"
fill="#000000" stroke="none">
<path d="M8465 10690 c3 -5 22 -10 41 -10 21 0 33 4 29 10 -3 6 -22 10 -41 10
-21 0 -33 -4 -29 -10z"/>
<path d="M7499 10660 c-77 -14 -147 -71 -195 -160 -18 -33 -19 -65 -19 -655 0
-590 1 -622 19 -655 35 -64 65 -96 118 -126 l53 -29 318 -3 317 -3 0 -363 0
-363 -39 -31 c-34 -28 -40 -29 -44 -14 -2 9 -3 8 -2 -5 1 -16 -31 -52 -133
-145 -129 -116 -201 -182 -489 -446 -115 -105 -153 -135 -122 -94 11 14 9 13
-9 -2 -12 -11 -20 -21 -17 -24 2 -3 -7 -24 -20 -47 -40 -66 -28 -142 28 -194
15 -13 24 -28 20 -34 -3 -6 -2 -7 4 -4 5 4 23 -8 39 -26 29 -31 29 -32 2 -8
-33 29 -38 21 -6 -8 11 -11 25 -18 30 -15 11 7 174 -146 170 -159 -1 -5 1 -6
6 -3 5 3 19 -5 31 -18 l22 -23 -136 -147 c-77 -83 -141 -143 -147 -140 -7 4
-8 2 -4 -4 4 -7 -58 -80 -153 -179 -229 -242 -205 -196 -209 -405 l-3 -178
-77 -1 c-374 -2 -397 -6 -476 -79 -74 -68 -76 -81 -77 -487 0 -379 -2 -368 55
-448 11 -16 21 -34 21 -40 0 -5 9 -9 19 -7 10 2 16 -1 12 -6 -3 -5 0 -9 7 -10
7 -1 37 -8 67 -17 47 -13 129 -15 590 -13 525 3 536 3 575 24 22 12 43 21 47
20 3 0 10 3 15 8 5 6 2 6 -7 1 -8 -5 -2 5 15 23 32 35 46 43 24 15 -13 -16
-12 -17 3 -4 10 7 15 17 12 22 -2 5 3 23 13 41 16 30 18 69 21 368 3 359 0
392 -46 470 -14 25 -25 49 -24 53 1 5 -2 6 -8 2 -5 -3 -21 5 -34 18 -14 14
-27 23 -29 21 -2 -3 -17 0 -33 7 -23 9 -136 16 -324 22 -8 0 -45 -3 -82 -7
l-68 -8 0 144 0 143 121 128 c67 70 126 124 131 120 7 -3 8 -1 4 5 -6 10 58
83 289 330 l51 54 52 -47 c28 -25 51 -52 49 -58 -1 -7 3 -11 10 -10 7 2 71
-52 143 -120 73 -67 140 -127 151 -133 11 -5 17 -12 15 -15 -11 -11 112 -1
134 11 14 7 112 94 218 193 l194 179 44 -42 c24 -24 41 -47 38 -52 -3 -4 5
-12 18 -17 21 -8 75 -69 71 -81 -3 -8 70 -79 77 -75 9 5 146 -147 142 -158 -1
-5 1 -6 6 -3 5 3 40 -26 77 -64 59 -59 66 -70 47 -70 -29 0 -21 -14 18 -34 20
-9 28 -10 24 -3 -4 7 7 -1 24 -17 l32 -30 -2 -140 c-1 -121 -3 -130 -8 -66
l-6 75 -2 -67 -2 -68 -142 0 c-123 0 -278 -10 -328 -22 -8 -1 -21 -10 -28 -18
-8 -8 -11 -9 -7 -2 3 6 1 12 -5 12 -6 0 -15 -10 -20 -22 -6 -13 -24 -41 -40
-63 -47 -64 -51 -111 -48 -477 3 -320 4 -335 25 -375 12 -22 19 -44 15 -48 -4
-4 -2 -5 3 -4 6 2 24 -9 40 -25 17 -16 24 -26 16 -21 -10 5 -12 4 -7 -4 4 -6
11 -9 14 -7 4 2 32 -4 62 -14 51 -18 92 -19 576 -20 553 0 576 2 642 49 16 11
31 18 34 15 3 -2 11 2 18 11 7 8 10 15 6 15 -3 0 4 19 17 43 21 41 22 51 25
407 3 379 2 391 -40 453 -11 15 -17 27 -13 27 10 0 -35 44 -48 46 -6 1 -28 10
-47 19 -19 9 -25 14 -13 11 13 -2 25 0 28 4 3 5 -27 8 -67 7 -40 -1 -155 -1
-255 1 l-183 2 0 148 c0 81 -5 164 -10 184 -8 29 -69 99 -267 305 -141 148
-288 301 -327 342 l-71 74 125 118 c113 107 166 148 129 102 -13 -16 -12 -17
3 -4 10 7 16 17 13 21 -2 4 12 22 31 41 48 46 64 79 64 134 0 52 -16 89 -54
124 -14 13 -23 28 -19 34 3 6 1 7 -5 3 -7 -4 -65 43 -144 116 -72 68 -208 192
-302 277 -94 84 -174 162 -178 173 -4 11 -12 17 -16 14 -5 -3 -48 31 -95 75
l-87 80 1 360 0 359 297 0 297 0 61 29 c72 34 125 92 147 162 15 45 17 119 17
617 0 655 1 647 -82 737 -87 96 -34 90 -828 91 -382 0 -711 -3 -731 -6z m1408
-222 c8 -8 16 -34 18 -57 3 -35 0 -44 -14 -48 -21 -5 -18 -45 5 -64 19 -16 21
-669 2 -669 -9 0 -9 -3 0 -12 19 -19 16 -288 -3 -314 -11 -13 -13 -14 -9 -3 4
13 0 15 -20 12 -29 -6 -35 -22 -8 -24 9 -1 -3 -5 -28 -9 -71 -13 -1301 -10
-1325 2 -11 6 -23 16 -27 22 -4 6 -8 263 -8 571 0 641 -5 602 83 607 28 2 337
2 686 1 534 -1 636 -3 648 -15z m-320 -2659 c191 -175 358 -328 371 -341 l22
-25 -317 -295 c-175 -162 -346 -320 -380 -352 l-63 -58 -46 38 c-25 21 -50 49
-55 62 -5 14 -12 22 -16 19 -5 -6 -94 71 -258 224 -33 30 -94 87 -135 124
-244 224 -261 241 -242 257 39 32 55 38 25 10 -19 -18 -27 -32 -20 -35 19 -6
36 3 31 17 -3 7 2 19 10 26 9 7 14 16 11 20 -4 7 103 110 268 259 32 28 63 49
69 45 6 -4 8 -3 5 4 -4 5 12 28 36 49 24 21 103 93 176 160 89 82 138 120 146
115 8 -4 170 -149 362 -323z m333 -1144 c19 -19 32 -35 29 -35 -3 0 -20 16
-39 35 -19 19 -32 35 -29 35 3 0 20 -16 39 -35z m-1354 -919 c11 -16 14 -78
14 -327 0 -266 -2 -310 -16 -323 -14 -14 -75 -16 -524 -16 -449 0 -510 2 -524
16 -14 13 -16 57 -16 329 0 300 1 314 20 328 16 11 112 13 525 13 489 -1 507
-2 521 -20z m2389 0 c11 -15 14 -80 15 -320 0 -258 -2 -305 -15 -324 l-16 -22
-505 0 c-329 0 -512 4 -525 10 -18 10 -19 25 -19 329 0 340 -1 335 50 343 14
3 245 4 513 4 467 -1 489 -2 502 -20z"/>
<path d="M7500 10330 c0 -5 5 -10 11 -10 5 0 7 5 4 10 -3 6 -8 10 -11 10 -2 0
-4 -4 -4 -10z"/>
<path d="M7525 9270 c-4 -6 5 -10 20 -10 15 0 24 4 20 10 -3 6 -12 10 -20 10
-8 0 -17 -4 -20 -10z"/>
<path d="M8904 7464 c9 -8 16 -19 16 -24 0 -15 31 -40 42 -34 10 6 -49 74 -65
74 -4 0 -1 -7 7 -16z"/>
<path d="M7550 7335 c13 -14 26 -25 28 -25 3 0 -5 11 -18 25 -13 14 -26 25
-28 25 -3 0 5 -11 18 -25z"/>
<path d="M8385 6890 c-3 -5 -1 -10 4 -10 6 0 11 5 11 10 0 6 -2 10 -4 10 -3 0
-8 -4 -11 -10z"/>
<path d="M7562 5625 c0 -16 2 -22 5 -12 2 9 2 23 0 30 -3 6 -5 -1 -5 -18z"/>
<path d="M7547 5099 c-20 -36 -15 -51 9 -27 9 8 14 25 12 37 -3 19 -5 18 -21
-10z"/>
<path d="M6768 5073 c6 -2 18 -2 25 0 6 3 1 5 -13 5 -14 0 -19 -2 -12 -5z"/>
<path d="M7288 10534 c-5 -4 -8 -16 -8 -28 0 -14 3 -17 11 -9 6 6 9 19 7 28
-1 9 -6 13 -10 9z"/>
<path d="M9583 9523 c9 -2 23 -2 30 0 6 3 -1 5 -18 5 -16 0 -22 -2 -12 -5z"/>
<path d="M6870 9516 c0 -2 7 -7 16 -10 8 -3 12 -2 9 4 -6 10 -25 14 -25 6z"/>
<path d="M2140 9499 c-95 -16 -194 -70 -274 -152 -74 -74 -109 -134 -141 -238
-14 -49 -16 -287 -16 -2719 0 -2594 1 -2666 19 -2720 11 -31 29 -76 41 -100
12 -25 24 -62 26 -83 3 -21 9 -45 14 -55 9 -14 10 -12 11 13 0 17 -6 37 -12
45 -7 8 16 -13 52 -46 36 -33 82 -70 103 -83 20 -13 34 -27 31 -33 -4 -6 -3
-8 3 -5 5 3 38 -4 74 -16 l64 -22 1581 -3 1580 -2 -42 -248 c-24 -136 -53
-309 -65 -384 l-23 -138 -323 0 c-294 0 -327 -2 -373 -19 -28 -11 -66 -31 -85
-45 -21 -17 -40 -24 -51 -19 -14 5 -16 3 -11 -11 4 -10 -4 -31 -23 -57 -87
-121 -77 -296 24 -416 14 -17 22 -33 18 -37 -4 -4 -2 -6 3 -5 6 2 31 -9 58
-25 100 -59 -19 -56 1938 -56 1986 0 1839 -5 1939 62 24 17 50 31 57 32 17 3
81 137 94 197 29 135 -55 293 -193 366 l-53 28 -376 3 -375 3 -33 216 c-19
119 -46 291 -60 382 l-28 166 1546 5 1546 5 65 26 c165 64 261 164 329 337
l26 67 3 2640 c2 1936 0 2658 -9 2708 -31 189 -176 359 -359 419 -61 21 -87
22 -465 26 -219 2 -413 1 -431 -3 -65 -12 -104 -81 -80 -140 26 -62 10 -60
470 -65 412 -5 422 -5 470 -28 53 -24 120 -71 113 -78 -2 -3 8 -18 22 -33 47
-51 73 -175 50 -243 -10 -32 -11 -42 -1 -46 13 -4 16 -544 3 -664 -4 -38 -4
-68 0 -68 13 0 8 -1104 -5 -1112 -8 -6 -8 -8 0 -8 8 0 11 -106 12 -360 1 -225
-2 -360 -8 -360 -6 0 -10 -13 -10 -30 0 -16 5 -30 10 -30 6 0 10 -35 10 -84 0
-47 -4 -88 -10 -91 -5 -3 -10 -33 -10 -66 0 -33 4 -59 10 -59 16 0 13 -367 -2
-374 -10 -5 -10 -7 0 -12 14 -6 16 -149 3 -271 -4 -40 -3 -73 1 -73 4 0 7
-215 7 -477 l0 -478 -4350 0 -4349 0 0 40 c0 122 -1 1831 -1 1945 0 74 0 731
-1 1460 -1 1365 1 1418 37 1403 18 -6 29 15 16 31 -8 9 -2 23 24 53 44 52 105
87 173 102 38 8 698 11 2381 11 2300 0 2329 0 2353 20 40 31 52 71 37 117 -7
21 -12 45 -11 53 1 8 -1 10 -4 4 -3 -8 -15 -8 -42 2 -30 11 -456 13 -2362 12
-1330 0 -2349 -4 -2380 -9z m8475 -5476 c-4 -16 -9 -54 -12 -87 -4 -45 -2 -57
8 -51 9 6 11 -9 7 -71 -7 -91 -32 -166 -54 -157 -9 3 -14 -1 -14 -12 0 -10 5
-14 13 -9 7 4 9 3 4 -2 -5 -5 -14 -9 -20 -9 -7 0 -12 -7 -12 -15 -1 -25 -14
-39 -68 -70 -50 -29 -88 -41 -57 -19 12 8 10 9 -10 5 -14 -3 -32 -6 -40 -7 -8
0 -4 -4 10 -8 21 -7 15 -9 -30 -15 -30 -4 -1884 -6 -4120 -4 l-4065 3 -55 26
c-51 24 -127 89 -119 102 2 4 -4 12 -13 19 -36 27 -48 93 -48 254 l0 154 4351
0 4351 0 -7 -27z m-3510 -775 c3 -18 30 -184 60 -368 30 -184 57 -343 59 -352
4 -17 -45 -18 -924 -18 l-927 0 9 48 c19 103 59 336 88 512 17 102 33 191 35
198 3 9 172 12 799 12 l795 0 6 -32z m1055 -963 c119 -61 79 -244 -55 -256
-17 -1 -825 -1 -1796 -1 l-1766 2 -34 23 c-45 30 -73 87 -65 133 9 45 63 107
88 101 10 -3 16 -1 12 4 -3 5 719 9 1791 9 1569 0 1800 -2 1825 -15z"/>
<path d="M2038 4033 c6 -2 18 -2 25 0 6 3 1 5 -13 5 -14 0 -19 -2 -12 -5z"/>
<path d="M2148 3513 c7 -3 16 -2 19 1 4 3 -2 6 -13 5 -11 0 -14 -3 -6 -6z"/>
<path d="M2288 3503 c50 -2 134 -2 185 0 50 1 9 3 -93 3 -102 0 -143 -2 -92
-3z"/>
<path d="M3013 3503 c54 -2 139 -2 190 0 51 1 7 3 -98 3 -104 0 -146 -2 -92
-3z"/>
<path d="M3748 3503 c50 -2 134 -2 185 0 50 1 9 3 -93 3 -102 0 -143 -2 -92
-3z"/>
<path d="M4423 3503 c26 -2 68 -2 95 0 26 2 4 3 -48 3 -52 0 -74 -1 -47 -3z"/>
<path d="M4648 3503 c17 -2 47 -2 65 0 17 2 3 4 -33 4 -36 0 -50 -2 -32 -4z"/>
<path d="M5238 3503 c45 -2 119 -2 165 0 45 1 8 3 -83 3 -91 0 -128 -2 -82 -3z"/>
<path d="M5888 3503 c7 -3 16 -2 19 1 4 3 -2 6 -13 5 -11 0 -14 -3 -6 -6z"/>
<path d="M5993 3503 c43 -2 110 -2 150 0 40 1 5 3 -78 3 -82 0 -115 -2 -72 -3z"/>
<path d="M6648 3503 c46 -2 118 -2 160 0 42 1 5 3 -83 3 -88 0 -123 -2 -77 -3z"/>
<path d="M7388 3503 c50 -2 134 -2 185 0 50 1 9 3 -93 3 -102 0 -143 -2 -92
-3z"/>
<path d="M8093 3503 c15 -2 37 -2 50 0 12 2 0 4 -28 4 -27 0 -38 -2 -22 -4z"/>
<path d="M8223 3503 c32 -2 81 -2 110 0 29 2 3 3 -58 3 -60 0 -84 -1 -52 -3z"/>
<path d="M8858 3503 c50 -2 134 -2 185 0 50 1 9 3 -93 3 -102 0 -143 -2 -92
-3z"/>
<path d="M9603 3503 c48 -2 126 -2 175 0 48 1 8 3 -88 3 -96 0 -136 -2 -87 -3z"/>
<path d="M10253 3503 c15 -2 39 -2 55 0 15 2 2 4 -28 4 -30 0 -43 -2 -27 -4z"/>
<path d="M5513 3255 c-3 -9 -3 -18 -1 -21 3 -3 8 4 11 16 6 23 -1 27 -10 5z"/>
<path d="M7102 3150 c0 -14 4 -36 8 -50 6 -20 8 -21 8 -5 0 11 -4 34 -8 50 -7
27 -8 27 -8 5z"/>
<path d="M5462 2950 c0 -14 2 -19 5 -12 2 6 2 18 0 25 -3 6 -5 1 -5 -13z"/>
<path d="M5412 2660 c0 -14 2 -19 5 -12 2 6 2 18 0 25 -3 6 -5 1 -5 -13z"/>
<path d="M10515 9474 c21 -15 49 -19 41 -5 -3 5 -18 11 -33 14 -26 5 -26 4 -8
-9z"/>
<path d="M10335 9270 c3 -5 17 -10 31 -10 14 0 22 4 19 10 -3 6 -17 10 -31 10
-14 0 -22 -4 -19 -10z"/>
<path d="M7683 9013 c9 -2 23 -2 30 0 6 3 -1 5 -18 5 -16 0 -22 -2 -12 -5z"/>
<path d="M7793 9013 c26 -2 67 -2 90 0 23 2 2 3 -48 3 -49 0 -68 -1 -42 -3z"/>
<path d="M8458 9013 c12 -2 32 -2 45 0 12 2 2 4 -23 4 -25 0 -35 -2 -22 -4z"/>
<path d="M8713 9013 c9 -2 25 -2 35 0 9 3 1 5 -18 5 -19 0 -27 -2 -17 -5z"/>
<path d="M10602 8970 c0 -14 2 -19 5 -12 2 6 2 18 0 25 -3 6 -5 1 -5 -13z"/>
<path d="M4123 8686 c-19 -16 -41 -50 -53 -84 -12 -31 -27 -70 -34 -87 -35
-84 -255 -640 -396 -1005 -16 -41 -51 -129 -76 -195 -58 -146 -60 -187 -15
-227 62 -55 134 -30 175 62 9 19 13 25 10 13 -3 -14 -1 -23 6 -23 8 0 11 11 7
33 -3 25 25 109 126 367 71 184 133 337 136 340 3 3 8 14 9 25 2 11 19 56 37
100 105 256 225 580 225 610 0 48 -35 85 -86 92 -33 4 -45 1 -71 -21z"/>
<path d="M3001 8416 c-52 -52 -98 -93 -103 -90 -5 3 -7 0 -6 -7 2 -7 -4 -13
-12 -14 -8 0 -15 -7 -15 -15 -1 -8 -7 -13 -15 -12 -8 2 -12 0 -7 -4 9 -10 -93
-115 -105 -108 -5 3 -7 0 -6 -8 2 -7 -3 -12 -10 -10 -8 1 -11 -1 -8 -6 3 -5
-15 -28 -39 -52 -25 -24 -45 -40 -45 -36 0 5 -9 1 -20 -9 -11 -10 -18 -21 -15
-25 2 -4 -14 -24 -35 -45 -45 -43 -59 -90 -41 -133 7 -15 126 -142 266 -282
140 -139 252 -257 249 -261 -5 -8 12 -21 36 -28 22 -6 131 -9 125 -3 -2 3 5
16 15 30 13 15 20 40 20 65 0 40 -5 47 -240 282 l-241 241 226 220 c124 120
233 231 241 246 24 46 18 86 -20 124 -25 25 -43 34 -68 34 -29 0 -46 -12 -127
-94z m-371 -370 c0 -2 -8 -10 -17 -17 -16 -13 -17 -12 -4 4 13 16 21 21 21 13z"/>
<path d="M4619 8487 c-41 -28 -57 -74 -39 -117 7 -17 93 -109 192 -205 99 -95
181 -182 183 -192 2 -10 4 -24 4 -31 1 -7 6 -10 11 -7 8 5 7 12 -2 23 -7 10 3
4 22 -13 75 -65 74 -57 17 -111 -29 -27 -37 -33 -19 -14 17 20 32 40 32 45 0
5 -15 -9 -34 -30 -19 -21 -33 -42 -30 -46 6 -10 -297 -300 -307 -293 -5 3 -8
0 -7 -8 2 -7 -3 -12 -10 -10 -8 1 -11 -2 -8 -6 3 -5 -3 -17 -14 -27 -31 -28
-44 -79 -30 -119 14 -42 48 -66 94 -66 45 0 68 19 363 313 249 248 272 277
258 335 -3 15 -38 59 -77 98 -52 53 -70 79 -70 99 0 22 -4 26 -22 21 -18 -4
-54 27 -201 175 -99 99 -192 187 -207 195 -37 20 -60 18 -99 -9z"/>
<path d="M3242 8405 c0 -16 2 -22 5 -12 2 9 2 23 0 30 -3 6 -5 -1 -5 -18z"/>
<path d="M4840 8404 c0 -17 27 -37 34 -25 4 5 2 12 -4 16 -5 3 -10 3 -10 -2 0
-4 -5 -1 -10 7 -5 8 -10 10 -10 4z"/>
<path d="M7890 8140 c0 -5 4 -10 9 -10 6 0 13 5 16 10 3 6 -1 10 -9 10 -9 0
-16 -4 -16 -10z"/>
<path d="M2841 7961 c-9 -16 -8 -18 9 -14 11 3 20 12 20 19 0 20 -18 17 -29
-5z"/>
<path d="M4980 7930 c0 -5 10 -15 23 -21 22 -12 22 -12 3 10 -21 23 -26 26
-26 11z"/>
<path d="M2577 7743 c-11 -10 -8 -25 3 -18 6 4 19 -4 29 -17 11 -13 22 -20 25
-17 3 3 -7 18 -22 32 -16 15 -31 24 -35 20z"/>
<path d="M5091 7616 c-7 -8 -8 -17 -3 -20 6 -3 12 3 15 14 6 24 4 25 -12 6z"/>
<path d="M2868 7446 c9 -19 24 -35 33 -36 8 0 21 -6 29 -12 8 -7 6 -3 -4 9
-10 13 -23 20 -29 16 -5 -3 -7 -2 -4 4 4 6 -4 20 -18 33 l-23 22 16 -36z"/>
<path d="M4904 7429 c-19 -21 -19 -21 0 -18 11 2 20 12 22 22 3 22 1 22 -22
-4z"/>
<path d="M7192 7420 c0 -14 2 -19 5 -12 2 6 2 18 0 25 -3 6 -5 1 -5 -13z"/>
<path d="M7697 6812 c-32 -33 -34 -38 -17 -39 11 -1 20 4 20 12 0 7 12 22 27
33 14 10 22 22 16 25 -5 3 -26 -11 -46 -31z"/>
<path d="M8697 6844 c-4 -4 3 -12 16 -18 15 -8 26 -27 34 -61 6 -28 12 -41 13
-30 1 11 3 27 5 37 3 18 -57 82 -68 72z"/>
<path d="M5404 6490 c-23 -3 -664 -5 -1425 -4 -1159 1 -1388 -1 -1411 -13 -37
-18 -62 -67 -55 -110 3 -18 2 -31 -3 -28 -4 3 -10 0 -12 -7 -3 -7 11 -19 31
-28 31 -13 222 -15 1484 -17 l1448 -3 30 29 c22 22 29 39 29 67 0 39 -35 104
-57 104 -6 0 -13 3 -15 8 -1 4 -21 5 -44 2z"/>
<path d="M7151 6204 c0 -11 3 -14 6 -6 3 7 2 16 -1 19 -3 4 -6 -2 -5 -13z"/>
<path d="M9303 6165 c0 -27 2 -38 4 -22 2 15 2 37 0 50 -2 12 -4 0 -4 -28z"/>
<path d="M6465 5950 c-16 -7 -17 -9 -3 -9 9 -1 20 4 23 9 7 11 7 11 -20 0z"/>
<path d="M2549 5742 c-23 -21 -33 -40 -39 -75 -4 -30 -3 -44 3 -40 7 4 8 -1 3
-13 -4 -10 -4 -16 -1 -12 4 3 23 -5 42 -18 l36 -24 594 0 c654 0 647 -1 678
60 21 41 13 89 -21 121 l-26 24 -618 3 -619 2 -32 -28z"/>
<path d="M4291 5756 c-31 -17 -50 -53 -51 -94 0 -40 54 -102 89 -102 45 0 91
28 107 65 37 90 -60 178 -145 131z"/>
<path d="M4445 5619 c-4 -6 -5 -12 -2 -15 2 -3 7 2 10 11 7 17 1 20 -8 4z"/>
<path d="M8662 5255 c0 -16 2 -22 5 -12 2 9 2 23 0 30 -3 6 -5 -1 -5 -18z"/>
<path d="M2562 5044 c-59 -41 -63 -114 -10 -159 l30 -25 1241 0 c961 1 1245 3
1257 13 29 23 43 48 50 88 4 22 6 38 3 36 -2 -3 -19 11 -37 29 l-34 34 -1239
0 c-1106 0 -1241 -2 -1261 -16z"/>
<path d="M5141 4964 c0 -11 3 -14 6 -6 3 7 2 16 -1 19 -3 4 -6 -2 -5 -13z"/>
<path d="M3043 4843 c48 -2 125 -2 170 0 45 1 6 3 -88 3 -93 0 -130 -2 -82 -3z"/>
<path d="M3743 4843 c54 -2 139 -2 190 0 51 1 7 3 -98 3 -104 0 -146 -2 -92
-3z"/>
<path d="M4533 4843 c37 -2 96 -2 130 0 34 2 4 3 -68 3 -71 0 -99 -1 -62 -3z"/>
<path d="M6533 4823 c9 -2 23 -2 30 0 6 3 -1 5 -18 5 -16 0 -22 -2 -12 -5z"/>
<path d="M7028 4823 c50 -2 134 -2 185 0 50 1 9 3 -93 3 -102 0 -143 -2 -92
-3z"/>
<path d="M9178 4823 c29 -2 74 -2 100 0 26 2 2 3 -53 3 -55 0 -76 -1 -47 -3z"/>
<path d="M9373 4823 c26 -2 67 -2 90 0 23 2 2 3 -48 3 -49 0 -68 -1 -42 -3z"/>
<path d="M9928 4823 c7 -3 16 -2 19 1 4 3 -2 6 -13 5 -11 0 -14 -3 -6 -6z"/>
<path d="M10582 4385 c0 -16 2 -22 5 -12 2 9 2 23 0 30 -3 6 -5 -1 -5 -18z"/>
</g>
</svg>
