<?xml version="1.0" standalone="no"?>
<!DOCTYPE svg PUBLIC "-//W3C//DTD SVG 20010904//EN"
 "http://www.w3.org/TR/2001/REC-SVG-20010904/DTD/svg10.dtd">
<svg version="1.0" xmlns="http://www.w3.org/2000/svg"
 width="1536.000000pt" height="1024.000000pt" viewBox="0 0 1536.000000 1024.000000"
 preserveAspectRatio="xMidYMid meet">
<metadata>
Created by potrace 1.16, written by Peter Selinger 2001-2019
</metadata>
<g transform="translate(0.000000,1024.000000) scale(0.100000,-0.100000)"
fill="#000000" stroke="none">
<path d="M10446 9813 c-6 -14 -5 -15 5 -6 7 7 10 15 7 18 -3 3 -9 -2 -12 -12z"/>
<path d="M7370 8344 c-413 -27 -778 -89 -1026 -174 -32 -11 -67 -18 -78 -14
-15 4 -17 3 -7 -4 10 -7 5 -13 -23 -22 -19 -6 -41 -8 -48 -4 -7 4 -10 3 -5 -1
4 -5 -44 -34 -106 -64 -155 -77 -247 -140 -347 -240 -47 -47 -88 -85 -92 -85
-3 -1 -10 -5 -15 -10 -5 -5 -3 -6 5 -2 16 10 15 -9 -2 -23 -32 -27 -78 -152
-85 -234 -4 -45 -7 -921 -6 -1947 3 -2016 0 -1902 55 -2010 12 -25 31 -57 41
-72 23 -32 25 -45 4 -28 -10 9 -15 9 -15 1 0 -10 14 -15 24 -8 9 5 46 -38 42
-50 -3 -7 -2 -12 3 -10 14 4 170 -127 164 -138 -4 -5 -3 -7 2 -3 8 8 65 -21
65 -32 0 -4 6 -7 13 -7 6 0 41 -17 76 -37 188 -107 490 -209 806 -270 340 -66
820 -87 1257 -55 86 6 164 9 173 5 9 -3 14 -2 11 2 -3 5 44 14 103 20 227 25
576 117 787 208 109 46 217 103 309 162 95 61 242 211 283 288 67 128 62 -20
63 2109 0 1762 -1 1935 -16 1985 -34 113 -124 233 -249 333 -28 22 -50 44 -48
49 1 5 -2 7 -7 4 -5 -3 -44 15 -88 40 -274 163 -676 273 -1163 320 -145 14
-736 26 -860 18z m795 -269 c434 -40 737 -116 1010 -251 269 -133 388 -267
372 -420 -10 -95 -67 -175 -191 -266 -89 -65 -315 -181 -357 -182 -15 -1 -25
-4 -23 -7 4 -8 -131 -51 -263 -85 -139 -35 -317 -66 -394 -67 -37 -1 -65 -5
-63 -8 13 -21 -682 -36 -931 -20 -99 6 -190 13 -202 15 -12 3 -53 8 -90 11
-80 8 -294 48 -408 76 -415 104 -703 262 -800 440 -25 46 -27 59 -23 123 3 39
13 86 22 105 25 47 90 116 165 173 80 60 295 167 421 208 93 31 381 103 450
113 243 36 346 48 460 56 188 13 642 5 845 -14z m-2244 -1193 c26 -17 97 -56
158 -87 300 -150 731 -249 1238 -285 143 -10 627 -14 688 -6 17 3 71 7 121 11
50 3 99 7 110 9 10 2 51 7 89 11 74 7 263 39 330 54 400 96 676 210 843 349
l53 45 -3 -395 -3 -394 -38 -76 c-28 -58 -54 -92 -108 -142 -39 -36 -75 -63
-80 -60 -5 3 -9 1 -9 -4 0 -6 -35 -32 -77 -59 -331 -210 -868 -323 -1529 -323
-229 0 -513 19 -689 46 -55 8 -126 19 -158 24 -110 16 -287 62 -280 73 3 6 1
7 -6 3 -31 -19 -363 113 -491 196 -131 84 -231 193 -266 290 -13 35 -16 114
-19 432 l-5 388 43 -34 c23 -19 63 -49 88 -66z m64 -1244 c339 -201 811 -321
1405 -357 74 -4 257 -6 405 -3 149 3 296 5 328 6 31 1 57 4 57 9 0 4 16 7 35
7 59 0 254 30 400 61 392 85 685 210 883 376 l52 45 -2 -419 -3 -418 -29 -60
c-45 -92 -236 -278 -266 -260 -6 4 -9 1 -8 -6 2 -7 -52 -41 -127 -78 -354
-180 -814 -272 -1370 -273 -435 -1 -774 37 -1090 123 -157 43 -235 69 -235 80
0 6 -4 8 -9 5 -25 -16 -332 140 -314 158 4 4 1 5 -7 2 -20 -8 -143 90 -198
157 -56 69 -79 118 -91 197 -5 36 -9 228 -9 427 l0 362 67 -53 c36 -29 93 -69
126 -88z m-154 -1134 c34 -37 171 -126 272 -178 211 -107 585 -222 847 -260
874 -125 1694 -39 2245 236 122 61 193 105 272 170 40 32 75 58 78 58 3 0 5
-188 3 -417 l-3 -418 -28 -59 c-33 -71 -188 -232 -213 -222 -8 3 -12 1 -9 -4
19 -31 -438 -238 -476 -214 -7 4 -9 3 -6 -4 15 -22 -353 -96 -645 -129 -240
-26 -793 -24 -1035 5 -225 28 -245 31 -236 46 5 8 3 8 -8 -1 -36 -29 -448 88
-656 187 -233 111 -379 238 -422 371 -12 37 -22 859 -10 859 3 0 16 -12 30
-26z"/>
<path d="M836 8099 c3 -5 9 -7 14 -4 4 3 11 0 13 -5 3 -6 4 -5 3 1 -1 7 -10
13 -19 15 -9 1 -15 -2 -11 -7z"/>
<path d="M5546 3557 c3 -10 9 -15 12 -12 3 3 0 11 -7 18 -10 9 -11 8 -5 -6z"/>
<path d="M9981 1564 c0 -11 3 -14 6 -6 3 7 2 16 -1 19 -3 4 -6 -2 -5 -13z"/>
<path d="M9981 684 c0 -11 3 -14 6 -6 3 7 2 16 -1 19 -3 4 -6 -2 -5 -13z"/>
<path d="M10446 455 c-9 -26 -7 -32 5 -12 6 10 9 21 6 23 -2 3 -7 -2 -11 -11z"/>
<path d="M4947 381 c-4 -17 -3 -21 5 -13 5 5 8 16 6 23 -3 8 -7 3 -11 -10z"/>
<path d="M9236 258 c3 -5 10 -6 15 -3 13 9 11 12 -6 12 -8 0 -12 -4 -9 -9z"/>
<path d="M10910 210 c-9 -6 -10 -10 -3 -10 6 0 15 5 18 10 8 12 4 12 -15 0z"/>
<path d="M9480 99 c0 -5 5 -7 10 -4 6 3 10 8 10 11 0 2 -4 4 -10 4 -5 0 -10
-5 -10 -11z"/>
<path d="M10436 18 c3 -5 10 -6 15 -3 13 9 11 12 -6 12 -8 0 -12 -4 -9 -9z"/>
</g>
</svg>
