<?xml version="1.0" standalone="no"?>
<!DOCTYPE svg PUBLIC "-//W3C//DTD SVG 20010904//EN"
 "http://www.w3.org/TR/2001/REC-SVG-20010904/DTD/svg10.dtd">
<svg version="1.0" xmlns="http://www.w3.org/2000/svg"
 width="1536.000000pt" height="1024.000000pt" viewBox="0 0 1536.000000 1024.000000"
 preserveAspectRatio="xMidYMid meet">
<metadata>
Created by potrace 1.16, written by Peter Selinger 2001-2019
</metadata>
<g transform="translate(0.000000,1024.000000) scale(0.100000,-0.100000)"
fill="#000000" stroke="none">
<path d="M8526 10182 c-3 -5 1 -9 9 -9 8 0 12 4 9 9 -3 4 -7 8 -9 8 -2 0 -6
-4 -9 -8z"/>
<path d="M846 10022 c-3 -5 1 -9 9 -9 8 0 12 4 9 9 -3 4 -7 8 -9 8 -2 0 -6 -4
-9 -8z"/>
<path d="M10436 10018 c3 -5 10 -6 15 -3 13 9 11 12 -6 12 -8 0 -12 -4 -9 -9z"/>
<path d="M846 9942 c-3 -5 1 -9 9 -9 8 0 12 4 9 9 -3 4 -7 8 -9 8 -2 0 -6 -4
-9 -8z"/>
<path d="M10446 9813 c-6 -14 -5 -15 5 -6 7 7 10 15 7 18 -3 3 -9 -2 -12 -12z"/>
<path d="M10945 9819 c-4 -6 -5 -12 -2 -15 2 -3 7 2 10 11 7 17 1 20 -8 4z"/>
<path d="M10436 8978 c3 -5 10 -6 15 -3 13 9 11 12 -6 12 -8 0 -12 -4 -9 -9z"/>
<path d="M844 8419 c-4 -7 -3 -9 4 -5 5 3 13 0 15 -6 4 -9 6 -10 6 -1 1 17
-16 25 -25 12z"/>
<path d="M836 8099 c3 -5 9 -7 14 -4 4 3 11 0 13 -5 3 -6 4 -5 3 1 -1 7 -10
13 -19 15 -9 1 -15 -2 -11 -7z"/>
<path d="M5760 7399 c-92 -5 -165 -13 -200 -24 -30 -10 -65 -18 -77 -19 -11 0
-19 -5 -15 -10 3 -5 -2 -7 -11 -3 -9 3 -16 2 -14 -2 1 -5 -25 -27 -59 -49 -53
-36 -190 -169 -188 -182 3 -14 -51 -108 -59 -103 -6 3 -7 1 -3 -5 4 -6 -1 -40
-11 -74 -16 -54 -18 -105 -18 -363 0 -281 2 -305 23 -378 25 -89 62 -166 103
-218 16 -20 26 -39 24 -43 -3 -3 -2 -4 1 -1 4 2 33 -20 66 -50 64 -57 159
-112 248 -141 52 -18 116 -19 1023 -22 l967 -3 0 -316 c0 -314 0 -316 -20
-298 -11 10 -17 23 -13 29 3 6 3 8 -2 4 -9 -9 -37 11 -31 21 5 8 -19 11 -86
12 -58 1 -92 -22 -114 -77 -15 -39 -15 -45 0 -76 16 -33 287 -300 330 -325 12
-7 42 -12 68 -13 l47 0 158 151 c101 96 164 165 176 190 17 38 17 41 -2 83
-22 50 -40 63 -91 66 -69 4 -81 -1 -130 -46 l-49 -46 0 294 c0 161 2 305 5
320 l5 27 967 3 967 3 65 24 c214 76 368 230 419 420 20 74 22 103 21 393 0
284 -2 321 -20 387 -12 40 -28 87 -36 103 -8 16 -12 34 -8 40 4 6 3 8 -3 5 -6
-4 -25 14 -41 41 -35 53 -96 115 -159 159 -23 17 -40 32 -38 35 3 3 -1 5 -9 5
-8 0 -36 9 -63 21 -129 55 -29 53 -2079 55 -1039 1 -1954 -1 -2034 -4z m3953
-317 c112 -46 193 -129 224 -230 15 -48 18 -97 18 -312 0 -242 -1 -258 -23
-311 -30 -76 -87 -138 -164 -180 l-63 -34 -949 -3 c-803 -2 -951 0 -965 12
-26 22 -78 46 -102 46 -24 0 -99 -39 -99 -52 0 -4 -423 -8 -941 -8 -931 0
-1040 3 -1022 33 3 6 1 7 -5 3 -31 -19 -142 81 -181 163 l-26 56 0 285 c0 257
2 290 19 335 22 57 92 136 151 171 94 55 -3 53 2115 51 l1955 -2 58 -23z"/>
<path d="M5985 6793 c-125 -14 -196 -73 -220 -180 -9 -43 17 -130 50 -166 39
-41 98 -67 152 -67 156 1 258 160 192 298 -23 46 -95 102 -132 102 -10 0 -15
5 -12 10 3 6 5 9 3 9 -2 -1 -16 -4 -33 -6z"/>
<path d="M9346 6789 c2 -4 -10 -10 -27 -14 -18 -4 -50 -26 -73 -49 -132 -131
-42 -346 144 -346 89 0 153 39 193 115 24 48 25 130 2 175 -9 17 -13 36 -9 42
4 6 3 8 -3 5 -6 -4 -17 0 -24 9 -22 27 -86 54 -148 62 -33 5 -58 5 -55 1z"/>
<path d="M8719 6776 c-129 -46 -183 -184 -117 -297 15 -26 35 -49 43 -53 9 -3
13 -11 9 -17 -4 -8 -3 -9 4 -5 6 4 25 0 41 -9 17 -8 53 -15 81 -15 90 0 165
46 201 125 74 159 -94 331 -262 271z"/>
<path d="M845 7139 c-6 -8 -4 -10 5 -4 10 6 12 4 6 -11 -6 -15 -5 -17 5 -6 9
9 10 15 2 23 -8 8 -13 7 -18 -2z"/>
<path d="M854 6250 c0 -13 4 -16 10 -10 7 7 7 13 0 20 -6 6 -10 3 -10 -10z"/>
<path d="M6578 5693 c7 -3 16 -2 19 1 4 3 -2 6 -13 5 -11 0 -14 -3 -6 -6z"/>
<path d="M6878 5693 c7 -3 16 -2 19 1 4 3 -2 6 -13 5 -11 0 -14 -3 -6 -6z"/>
<path d="M843 5225 c0 -8 4 -12 9 -9 5 3 6 10 3 15 -9 13 -12 11 -12 -6z"/>
<path d="M8265 5159 c-57 -7 -83 -25 -100 -66 -20 -48 -19 -82 5 -121 11 -18
17 -39 14 -45 -4 -7 -4 -9 0 -5 5 4 20 1 35 -5 19 -9 222 -13 746 -17 l720 -5
57 -27 c76 -35 148 -104 184 -175 l29 -58 0 -295 0 -295 -33 -67 c-57 -115
-158 -187 -297 -208 -49 -7 -651 -10 -1990 -8 -1950 4 -2011 5 -1990 38 3 6
-1 7 -9 4 -20 -8 -70 20 -123 69 -47 43 -95 126 -108 187 -10 47 -13 482 -3
544 17 111 96 213 206 264 l57 27 737 5 c728 5 737 5 765 26 62 46 68 147 11
203 l-32 31 -760 0 -761 0 -79 -24 c-44 -14 -84 -22 -90 -19 -6 3 -8 3 -4 -2
4 -4 -25 -29 -65 -55 -40 -26 -86 -63 -103 -81 -47 -51 -112 -146 -124 -185
-7 -19 -15 -32 -18 -30 -4 2 -8 -6 -8 -17 -1 -12 -10 -62 -19 -112 -24 -126
-17 -549 10 -640 10 -33 18 -73 18 -90 0 -16 2 -24 4 -17 3 7 21 -15 42 -49
20 -34 53 -81 73 -104 21 -23 34 -46 30 -49 -4 -4 -2 -6 3 -4 13 4 105 -62
105 -75 0 -6 3 -7 6 -4 10 9 46 -12 39 -23 -3 -6 1 -7 9 -4 8 3 27 -1 43 -10
16 -8 66 -24 110 -35 81 -21 92 -21 2065 -21 1711 0 1993 2 2053 15 38 8 79
12 90 9 15 -4 16 -3 6 4 -11 8 -9 11 8 17 11 3 26 3 33 -1 7 -4 10 -3 5 1 -4
5 24 26 63 47 99 55 199 159 249 258 66 132 73 184 69 516 -3 288 -3 289 -31
364 -16 41 -29 83 -30 92 -1 9 -4 15 -8 12 -4 -2 -18 13 -30 33 -24 39 -134
162 -147 164 -17 3 -41 27 -34 34 4 5 2 5 -5 1 -14 -8 -76 28 -66 38 4 4 1 4
-8 1 -8 -3 -41 4 -74 15 -33 11 -91 23 -130 26 -96 7 -1370 10 -1420 3z"/>
<path d="M846 5062 c-3 -5 1 -9 9 -9 8 0 12 4 9 9 -3 4 -7 8 -9 8 -2 0 -6 -4
-9 -8z"/>
<path d="M9855 4760 c3 -5 8 -10 11 -10 2 0 4 5 4 10 0 6 -5 10 -11 10 -5 0
-7 -4 -4 -10z"/>
<path d="M5906 4560 c-16 -5 -34 -6 -40 -3 -6 3 -8 3 -5 -1 3 -3 -13 -25 -36
-49 -85 -84 -81 -206 9 -284 120 -106 319 -36 334 117 7 71 -5 116 -41 157
-55 63 -140 87 -221 63z"/>
<path d="M9325 4558 c-83 -29 -135 -102 -135 -188 0 -126 103 -212 235 -196
163 19 238 226 122 337 -54 52 -150 72 -222 47z"/>
<path d="M5604 3829 c-4 -7 -3 -9 4 -5 5 3 13 0 15 -6 4 -9 6 -10 6 -1 1 17
-16 25 -25 12z"/>
<path d="M843 3625 c0 -8 4 -12 9 -9 5 3 6 10 3 15 -9 13 -12 11 -12 -6z"/>
<path d="M846 2982 c-3 -5 1 -9 9 -9 8 0 12 4 9 9 -3 4 -7 8 -9 8 -2 0 -6 -4
-9 -8z"/>
<path d="M10436 2418 c3 -5 10 -6 15 -3 13 9 11 12 -6 12 -8 0 -12 -4 -9 -9z"/>
<path d="M4946 2197 c3 -10 9 -15 12 -12 3 3 0 11 -7 18 -10 9 -11 8 -5 -6z"/>
<path d="M9981 2034 c0 -11 3 -14 6 -6 3 7 2 16 -1 19 -3 4 -6 -2 -5 -13z"/>
<path d="M10420 1946 c0 -2 7 -7 16 -10 8 -3 12 -2 9 4 -6 10 -25 14 -25 6z"/>
<path d="M4951 1744 c0 -11 3 -14 6 -6 3 7 2 16 -1 19 -3 4 -6 -2 -5 -13z"/>
<path d="M856 1683 c-6 -14 -5 -15 5 -6 7 7 10 15 7 18 -3 3 -9 -2 -12 -12z"/>
<path d="M10437 1615 c3 -8 9 -12 14 -9 12 7 11 11 -5 17 -10 4 -13 1 -9 -8z"/>
<path d="M9981 1564 c0 -11 3 -14 6 -6 3 7 2 16 -1 19 -3 4 -6 -2 -5 -13z"/>
<path d="M10897 1409 c7 -7 15 -10 18 -7 3 3 -2 9 -12 12 -14 6 -15 5 -6 -5z"/>
<path d="M9480 1379 c0 -5 5 -7 10 -4 6 3 10 8 10 11 0 2 -4 4 -10 4 -5 0 -10
-5 -10 -11z"/>
<path d="M9975 1240 c-3 -5 -1 -10 4 -10 6 0 11 5 11 10 0 6 -2 10 -4 10 -3 0
-8 -4 -11 -10z"/>
<path d="M9966 1078 c3 -5 10 -6 15 -3 13 9 11 12 -6 12 -8 0 -12 -4 -9 -9z"/>
<path d="M4946 997 c3 -10 9 -15 12 -12 3 3 0 11 -7 18 -10 9 -11 8 -5 -6z"/>
<path d="M836 979 c3 -5 9 -7 14 -4 4 3 11 0 13 -5 3 -6 4 -5 3 1 -1 7 -10 13
-19 15 -9 1 -15 -2 -11 -7z"/>
<path d="M9480 979 c0 -5 5 -7 10 -4 6 3 10 8 10 11 0 2 -4 4 -10 4 -5 0 -10
-5 -10 -11z"/>
<path d="M11906 917 c3 -10 9 -15 12 -12 3 3 0 11 -7 18 -10 9 -11 8 -5 -6z"/>
<path d="M10436 898 c3 -5 10 -6 15 -3 13 9 11 12 -6 12 -8 0 -12 -4 -9 -9z"/>
<path d="M9981 684 c0 -11 3 -14 6 -6 3 7 2 16 -1 19 -3 4 -6 -2 -5 -13z"/>
<path d="M845 659 c-6 -8 -4 -10 5 -4 10 6 12 4 6 -11 -6 -15 -5 -17 5 -6 9 9
10 15 2 23 -8 8 -13 7 -18 -2z"/>
<path d="M10446 455 c-9 -26 -7 -32 5 -12 6 10 9 21 6 23 -2 3 -7 -2 -11 -11z"/>
<path d="M9980 441 c0 -6 4 -13 10 -16 6 -3 7 1 4 9 -7 18 -14 21 -14 7z"/>
<path d="M836 418 c3 -5 10 -6 15 -3 13 9 11 12 -6 12 -8 0 -12 -4 -9 -9z"/>
<path d="M4947 381 c-4 -17 -3 -21 5 -13 5 5 8 16 6 23 -3 8 -7 3 -11 -10z"/>
<path d="M844 339 c-4 -7 -3 -9 4 -5 5 3 13 0 15 -6 4 -9 6 -10 6 -1 1 17 -16
25 -25 12z"/>
<path d="M10436 338 c3 -5 10 -6 15 -3 13 9 11 12 -6 12 -8 0 -12 -4 -9 -9z"/>
<path d="M9976 273 c-6 -14 -5 -15 5 -6 7 7 10 15 7 18 -3 3 -9 -2 -12 -12z"/>
<path d="M11906 277 c3 -10 9 -15 12 -12 3 3 0 11 -7 18 -10 9 -11 8 -5 -6z"/>
<path d="M846 262 c-3 -5 1 -9 9 -9 8 0 12 4 9 9 -3 4 -7 8 -9 8 -2 0 -6 -4
-9 -8z"/>
<path d="M9236 258 c3 -5 10 -6 15 -3 13 9 11 12 -6 12 -8 0 -12 -4 -9 -9z"/>
<path d="M10910 210 c-9 -6 -10 -10 -3 -10 6 0 15 5 18 10 8 12 4 12 -15 0z"/>
<path d="M4946 117 c3 -10 9 -15 12 -12 3 3 0 11 -7 18 -10 9 -11 8 -5 -6z"/>
<path d="M11906 117 c3 -10 9 -15 12 -12 3 3 0 11 -7 18 -10 9 -11 8 -5 -6z"/>
<path d="M836 98 c3 -5 10 -6 15 -3 13 9 11 12 -6 12 -8 0 -12 -4 -9 -9z"/>
<path d="M9480 99 c0 -5 5 -7 10 -4 6 3 10 8 10 11 0 2 -4 4 -10 4 -5 0 -10
-5 -10 -11z"/>
<path d="M836 19 c3 -5 9 -7 14 -4 4 3 11 0 13 -5 3 -6 4 -5 3 1 -1 7 -10 13
-19 15 -9 1 -15 -2 -11 -7z"/>
<path d="M10436 18 c3 -5 10 -6 15 -3 13 9 11 12 -6 12 -8 0 -12 -4 -9 -9z"/>
</g>
</svg>
