<?xml version="1.0" standalone="no"?>
<!DOCTYPE svg PUBLIC "-//W3C//DTD SVG 20010904//EN"
 "http://www.w3.org/TR/2001/REC-SVG-20010904/DTD/svg10.dtd">
<svg version="1.0" xmlns="http://www.w3.org/2000/svg"
 width="1402.000000pt" height="1122.000000pt" viewBox="0 0 1402.000000 1122.000000"
 preserveAspectRatio="xMidYMid meet">
<metadata>
Created by potrace 1.16, written by Peter Selinger 2001-2019
</metadata>
<g transform="translate(0.000000,1122.000000) scale(0.100000,-0.100000)"
fill="#000000" stroke="none">
<path d="M11410 10096 c-36 -8 -85 -22 -109 -30 -51 -19 -54 -19 -47 -7 4 5
-3 7 -14 4 -11 -3 -23 -9 -26 -14 -3 -5 3 -6 13 -3 10 4 -20 -17 -67 -46 -52
-33 -118 -87 -172 -141 -48 -49 -84 -81 -81 -72 4 11 3 14 -6 9 -7 -5 -10 -15
-7 -23 3 -8 -2 -27 -13 -41 -34 -48 -68 -126 -97 -217 -27 -83 -29 -102 -28
-235 1 -103 6 -159 17 -193 l15 -48 -41 -18 c-23 -10 -71 -32 -107 -49 -279
-131 -453 -212 -457 -212 -2 0 -1 5 3 11 4 7 1 10 -7 7 -8 -3 -13 -11 -11 -17
3 -14 -46 -34 -60 -25 -6 4 -8 3 -5 -3 4 -6 -78 -50 -191 -103 -108 -51 -289
-137 -402 -190 -113 -54 -274 -130 -359 -169 l-154 -73 -53 53 c-29 29 -51 55
-49 57 7 7 -15 32 -28 32 -6 0 -2 -7 9 -16 17 -15 17 -15 -6 0 -165 105 -247
139 -387 157 -151 19 -326 -16 -462 -92 -73 -41 -171 -120 -205 -164 -15 -19
-31 -35 -36 -35 -23 0 -219 104 -213 113 3 6 1 7 -5 3 -11 -7 -146 54 -138 62
2 2 14 -1 25 -7 17 -10 20 -9 15 4 -7 17 -47 30 -69 22 -20 -8 -157 62 -149
75 5 7 2 8 -5 3 -16 -9 -832 395 -824 408 3 6 1 7 -5 4 -5 -4 -89 32 -184 79
l-175 85 15 52 c9 31 15 101 16 172 1 137 -13 201 -70 323 -33 70 -41 92 -43
114 -1 5 -4 7 -9 5 -4 -1 -38 31 -76 71 -38 39 -65 72 -61 72 4 0 2 7 -5 15
-7 8 -16 12 -21 10 -13 -8 -90 46 -82 58 3 5 1 7 -5 4 -14 -9 -43 3 -36 14 3
5 -3 6 -12 2 -12 -4 -15 -3 -10 5 5 8 1 10 -10 5 -10 -3 -15 -2 -12 3 4 5 -4
10 -15 10 -12 1 -47 9 -77 18 -152 45 -302 41 -457 -13 -48 -16 -91 -27 -97
-24 -6 3 -8 3 -4 -2 4 -4 0 -14 -10 -21 -21 -17 -36 -18 -26 -2 5 7 3 8 -5 4
-7 -5 -10 -10 -7 -13 8 -9 -107 -92 -118 -86 -5 4 -6 1 -3 -4 7 -11 -21 -41
-38 -42 -5 -1 -10 -5 -10 -9 0 -17 -92 -141 -100 -134 -5 4 -5 2 -2 -4 4 -7
-6 -41 -23 -75 -46 -98 -63 -203 -57 -334 3 -60 8 -123 11 -140 3 -16 3 -22 0
-12 -3 9 -10 15 -15 12 -16 -10 -10 -54 11 -75 19 -19 19 -19 14 13 -3 18 8 0
25 -42 17 -41 27 -79 24 -85 -3 -6 -3 -8 2 -4 5 5 26 -19 48 -52 42 -65 130
-160 186 -203 l35 -25 -78 -209 c-73 -194 -107 -274 -90 -213 14 51 14 54 0
25 -8 -16 -13 -37 -10 -46 2 -8 -39 -130 -92 -270 -53 -140 -115 -306 -139
-369 -94 -254 -106 -285 -112 -290 -3 -3 -3 4 1 15 6 16 5 17 -5 8 -6 -6 -12
-27 -13 -45 -2 -42 -45 -168 -57 -168 -6 0 -8 -4 -4 -9 5 -8 -65 -212 -110
-321 -8 -19 -37 -98 -65 -175 -28 -77 -62 -169 -76 -205 -14 -36 -37 -101 -52
-145 l-28 -80 -39 5 c-22 3 -92 4 -155 4 -93 -1 -132 -6 -203 -28 -49 -14 -94
-23 -100 -20 -7 4 -9 4 -5 -1 8 -8 -128 -98 -149 -98 -7 0 -10 -3 -8 -7 3 -4
-16 -25 -42 -46 -98 -82 -204 -258 -249 -414 -14 -49 -19 -97 -19 -195 1 -128
4 -145 51 -292 5 -15 4 -16 -5 -3 -9 12 -11 10 -11 -12 0 -15 7 -34 16 -42 20
-21 25 -20 17 1 -10 28 1 13 45 -60 23 -37 37 -65 32 -62 -6 4 -10 -11 -10
-35 0 -38 2 -41 23 -34 32 9 32 11 12 36 -11 13 5 0 34 -28 l52 -50 -39 -67
c-21 -37 -42 -64 -47 -60 -4 5 -5 2 -1 -4 6 -11 -39 -103 -51 -103 -2 0 -1 4
2 10 3 5 4 10 1 10 -3 0 -10 -10 -17 -21 -7 -15 -8 -19 0 -15 7 5 9 1 5 -8 -3
-9 -10 -13 -15 -10 -5 3 -6 -3 -2 -12 5 -13 3 -15 -7 -9 -9 5 -11 4 -6 -3 9
-15 -24 -73 -37 -65 -6 3 -7 1 -3 -5 8 -14 -18 -55 -28 -45 -4 4 -4 -1 0 -11
5 -13 4 -17 -4 -12 -8 5 -10 1 -5 -10 5 -13 3 -15 -7 -9 -9 5 -11 4 -6 -3 4
-6 -34 -87 -85 -179 -116 -211 -124 -224 -133 -216 -4 4 -4 -1 0 -11 5 -13 4
-17 -4 -12 -8 5 -10 1 -5 -10 5 -13 3 -15 -7 -9 -8 5 -11 4 -6 -3 3 -6 -37
-89 -91 -184 -53 -95 -163 -292 -245 -438 -81 -146 -152 -264 -158 -263 -5 2
-6 -5 -3 -14 5 -12 3 -14 -7 -8 -9 5 -11 4 -6 -4 6 -10 -118 -253 -161 -316
-13 -19 -14 -18 -7 8 3 15 2 27 -3 27 -6 0 -9 -15 -8 -32 2 -20 -8 -52 -24
-81 -21 -38 -30 -47 -46 -42 -11 3 -45 12 -75 21 -30 8 -100 18 -155 21 -292
16 -563 -132 -716 -393 -152 -256 -143 -575 22 -820 26 -40 46 -74 44 -78 -3
-3 -2 -4 2 -1 9 7 124 -106 118 -116 -3 -4 3 -13 12 -20 14 -12 16 -12 9 0 -6
9 -4 12 5 9 8 -3 14 -10 14 -15 0 -6 4 -15 9 -20 5 -5 6 -2 1 6 -5 9 -3 12 6
9 8 -3 13 -11 11 -17 -1 -7 1 -10 6 -7 5 3 41 -10 81 -30 179 -88 381 -102
579 -39 41 13 80 21 87 19 7 -3 16 -1 20 5 4 7 -1 8 -12 5 -10 -4 14 14 54 39
102 64 156 111 223 194 32 39 61 69 65 65 3 -3 3 1 -1 11 -4 11 0 19 10 23 9
3 14 10 11 14 -3 4 7 34 21 66 14 31 31 82 38 113 l13 56 747 3 746 2 31 -35
c38 -43 120 -84 187 -92 57 -6 137 15 186 50 19 13 31 17 33 10 3 -7 12 -4 24
8 26 26 24 37 -3 13 l-22 -19 23 32 22 33 750 2 750 3 10 -39 c6 -21 8 -45 5
-53 -3 -8 -2 -12 3 -8 5 3 15 -12 21 -32 7 -21 29 -67 49 -103 20 -36 36 -72
36 -80 0 -8 7 -15 15 -15 8 0 15 -7 15 -15 1 -20 15 -41 24 -36 10 6 81 -66
78 -78 -1 -5 7 -10 17 -12 10 -1 26 -11 35 -20 15 -17 15 -17 -2 -5 -15 12
-17 12 -11 -3 4 -10 12 -15 19 -12 7 2 42 -10 77 -29 117 -62 210 -87 344 -93
92 -3 140 -1 198 12 65 15 80 15 94 4 15 -11 15 -11 5 3 -11 13 -5 19 45 39
156 64 307 200 384 347 77 147 93 213 93 388 0 144 -2 153 -33 240 -18 50 -34
95 -35 101 -3 15 381 286 394 279 5 -4 8 -2 7 4 -4 14 174 142 190 136 7 -3
10 -1 7 5 -7 11 65 61 77 54 5 -3 7 0 6 7 -2 6 3 14 11 17 9 3 11 0 6 -8 -5
-9 -4 -11 4 -6 6 4 9 11 7 15 -8 12 53 53 66 45 6 -4 8 -3 4 4 -8 14 80 75 96
66 6 -4 8 -3 4 4 -3 6 7 20 23 31 35 25 42 26 35 6 -4 -8 -1 -15 4 -15 6 0 9
9 7 20 -3 14 12 31 61 65 67 47 80 53 68 33 -4 -7 -3 -8 5 -4 6 4 9 11 6 15
-7 13 296 225 320 223 13 -1 15 2 7 7 -8 5 1 17 32 39 45 33 62 40 51 22 -3
-6 1 -7 10 -3 12 4 13 8 4 13 -8 6 -5 11 10 19 16 9 33 8 73 -4 65 -19 91 -19
158 1 75 22 162 109 184 184 9 30 16 70 17 89 0 34 6 40 87 96 81 57 223 157
767 545 127 90 238 164 247 164 9 0 15 4 12 7 -2 4 26 29 63 55 38 26 115 81
172 122 l103 74 47 -44 c67 -64 108 -92 208 -141 108 -53 206 -72 358 -71 129
1 204 18 321 73 196 92 356 270 428 477 52 148 58 339 15 479 -12 39 -22 80
-23 92 0 11 -5 19 -10 15 -5 -3 -6 2 -3 12 5 11 3 15 -5 10 -8 -5 -9 -2 -5 10
5 11 3 15 -5 10 -8 -5 -9 -2 -5 10 4 9 3 15 -1 12 -5 -3 -17 9 -27 27 -9 18
-37 57 -61 88 -24 31 -41 58 -39 61 3 2 -9 17 -25 33 -17 16 -30 26 -30 22 0
-4 -26 12 -57 35 -81 60 -232 135 -287 143 l-47 7 7 872 c4 479 8 880 9 891 1
11 3 191 4 401 l1 381 78 16 c43 10 111 33 151 52 40 19 78 32 83 28 7 -3 8
-1 4 5 -4 6 4 16 16 23 13 6 45 29 71 51 26 22 53 41 60 42 20 3 38 17 32 25
-2 5 16 34 41 66 59 77 129 220 156 320 30 113 29 279 -2 390 -13 44 -23 90
-24 102 -1 11 -5 19 -10 15 -5 -3 -6 2 -3 12 5 11 3 15 -5 10 -8 -5 -9 -2 -5
10 5 11 3 15 -5 10 -8 -5 -9 -2 -5 10 5 11 3 15 -5 10 -8 -5 -9 -1 -4 12 4 10
4 15 0 11 -9 -8 -85 103 -78 114 2 4 -1 11 -7 15 -8 5 -9 3 -4 -7 6 -11 5 -11
-4 -3 -7 6 -14 20 -15 30 -2 11 -9 19 -17 19 -8 0 -14 6 -14 13 0 6 -2 11 -5
10 -12 -6 -90 64 -84 74 4 6 2 8 -4 4 -12 -7 -88 41 -85 55 2 4 -5 5 -14 2
-10 -4 -14 -2 -9 5 3 6 1 14 -5 18 -8 4 -9 3 -5 -4 10 -17 1 -15 -42 7 -120
61 -333 86 -472 57z m325 -394 c93 -44 177 -127 223 -222 36 -74 37 -77 37
-195 0 -118 -1 -122 -35 -190 -19 -39 -40 -69 -47 -68 -7 2 -10 -3 -7 -11 7
-17 -93 -108 -148 -135 -58 -27 -153 -51 -206 -51 -97 0 -213 45 -292 113 -40
35 -102 115 -80 103 8 -4 7 -1 -2 7 -10 8 -28 36 -40 63 -20 42 -23 66 -23
164 0 101 3 122 26 175 14 33 30 59 37 58 6 -2 9 3 6 11 -8 22 99 130 165 165
78 41 126 51 233 47 72 -3 98 -9 153 -34z m-5536 -1053 c155 -77 279 -145 276
-150 -3 -5 0 -6 8 -3 8 3 231 -103 496 -236 266 -132 525 -261 577 -285 52
-24 94 -46 94 -47 0 -2 -7 -28 -15 -58 -34 -128 -29 -283 15 -408 11 -30 19
-56 17 -58 -14 -12 -68 -33 -62 -25 4 7 -2 10 -14 8 -27 -4 -38 -16 -24 -25
15 -10 -185 -121 -213 -119 -10 1 -18 -4 -17 -10 2 -7 -21 -25 -50 -39 -28
-15 -81 -43 -117 -64 -272 -154 -418 -230 -436 -224 -13 4 -15 3 -6 -3 9 -7
-51 -46 -205 -133 -120 -68 -221 -125 -225 -127 -4 -2 -5 4 -1 14 6 16 5 16
-10 5 -9 -8 -22 -12 -29 -9 -8 3 -5 6 7 6 12 1 16 4 9 11 -6 6 -46 6 -109 1
-58 -5 -101 -5 -103 0 -6 14 -38 10 -52 -5 -6 -8 -18 -12 -26 -9 -8 3 -14 0
-14 -6 0 -6 8 -11 18 -11 13 0 4 -15 -34 -54 -36 -37 -57 -68 -64 -98 -22 -78
-20 -74 -30 -58 -8 13 -10 13 -10 -2 0 -26 -249 -148 -302 -148 -37 0 -40 -2
-24 -13 19 -14 29 -8 -514 -285 -124 -63 -272 -139 -328 -169 -106 -55 -132
-60 -132 -23 0 20 -1 20 -16 6 -8 -9 -20 -13 -26 -10 -5 3 -2 -9 7 -27 23 -44
19 -40 -53 57 -34 46 -91 107 -131 139 -39 31 -71 58 -71 59 0 1 26 72 93 251
50 134 80 216 190 515 282 764 300 811 309 798 6 -9 7 -6 3 9 -8 27 123 375
138 366 6 -3 7 -1 3 6 -4 6 -2 28 4 47 9 28 15 33 22 23 7 -10 8 -8 3 7 -3 14
14 72 45 155 29 74 58 153 67 177 9 24 19 39 25 35 7 -3 8 -1 4 6 -8 12 11 81
22 80 18 -3 26 2 14 10 -7 4 35 6 92 3 121 -5 195 6 303 48 54 21 71 24 61 13
-11 -14 -9 -14 20 1 34 17 44 33 15 22 -23 -9 -17 -4 47 39 30 21 60 38 67 38
7 0 11 3 10 7 -1 4 21 32 48 63 28 30 50 55 51 56 0 1 128 -62 283 -140z
m4773 75 c62 -67 146 -132 206 -163 23 -12 40 -26 37 -31 -3 -5 3 -14 14 -19
30 -17 39 -12 11 5 -30 18 -14 15 63 -10 l57 -20 0 -223 c0 -142 -4 -223 -10
-223 -5 0 -10 -5 -10 -11 0 -5 5 -7 11 -3 12 7 11 -143 -7 -1598 l-7 -498 -46
0 c-26 0 -41 -4 -34 -8 8 -5 -13 -16 -56 -30 -68 -22 -200 -100 -251 -148
l-25 -23 -45 40 c-25 22 -39 37 -32 34 10 -5 13 1 10 26 -2 24 -7 33 -18 30
-8 -2 -23 -4 -32 -5 -14 0 -15 -3 -5 -15 7 -9 -14 6 -46 33 -39 33 -54 52 -46
57 8 5 3 9 -14 11 -38 4 -832 678 -815 691 9 6 8 7 -4 3 -17 -5 -59 29 -535
431 -62 52 -116 100 -120 106 -3 7 3 4 14 -6 11 -9 23 -14 26 -10 12 11 7 23
-7 17 -8 -3 -17 0 -21 5 -3 6 -11 9 -16 6 -9 -6 -149 103 -149 116 0 4 13 35
30 70 70 151 93 361 56 513 -9 38 -15 70 -13 72 4 4 252 122 293 139 28 12 30
11 30 -9 -1 -16 6 -22 29 -24 28 -3 31 0 30 25 0 24 -4 28 -25 25 -13 -1 -22
0 -19 2 2 3 101 50 219 106 118 56 298 141 400 190 301 143 379 180 490 230
58 27 152 71 210 99 58 28 108 51 112 51 4 0 31 -25 60 -56z m-2400 -641 c74
-35 175 -124 163 -144 -5 -7 -4 -10 3 -5 6 4 23 -19 41 -56 35 -72 48 -156 36
-244 -8 -52 -9 -56 -16 -29 -3 17 -7 23 -9 15 -1 -11 -4 -9 -10 5 -6 14 -9 3
-9 -40 0 -58 0 -59 15 -35 l15 25 -7 -25 c-17 -66 -87 -166 -106 -153 -6 3 -8
1 -4 -5 15 -24 -137 -109 -211 -118 -31 -3 -34 -3 -13 5 14 5 45 14 69 21 32
8 40 15 32 23 -8 8 -17 8 -33 0 -13 -6 -44 -17 -70 -24 -26 -7 -45 -16 -42
-20 20 -33 -131 -9 -216 35 -36 18 -64 39 -62 45 1 7 -2 9 -8 6 -17 -11 -88
73 -123 145 -30 62 -32 71 -32 180 0 109 2 119 32 183 30 62 50 90 37 50 -5
-15 -4 -15 4 -3 6 8 8 18 5 23 -7 12 28 48 40 40 5 -3 7 -1 4 5 -14 21 112
103 188 123 17 4 73 7 125 6 84 -2 103 -6 162 -34z m-637 -1036 c7 -7 6 -8 -2
-3 -19 10 -16 1 4 -15 14 -12 16 -12 9 0 -5 8 -5 12 0 10 11 -5 158 -81 161
-83 1 -1 -4 -22 -12 -46 -11 -38 -14 -41 -14 -17 -1 18 -5 26 -12 21 -7 -4 -9
-26 -6 -57 5 -59 13 -26 -113 -477 -56 -201 -114 -412 -130 -470 -15 -58 -59
-217 -98 -355 -38 -137 -82 -297 -97 -355 -16 -57 -30 -99 -33 -92 -2 7 -8 12
-14 12 -5 0 -8 -5 -6 -12 2 -6 -17 -23 -44 -36 -62 -31 -122 -100 -144 -164
-28 -87 -5 -213 51 -278 11 -12 11 -20 0 -45 l-14 -30 5 30 5 30 -15 -32 c-8
-18 -20 -33 -26 -33 -7 0 -6 -5 2 -14 9 -10 15 -11 20 -2 19 29 18 23 -142
-549 -33 -115 -62 -223 -66 -240 -7 -26 -8 -27 -16 -10 -6 15 -7 13 -4 -10 3
-16 -8 -75 -24 -130 -15 -55 -44 -161 -65 -235 -62 -227 -66 -240 -75 -240 -5
0 -7 -6 -5 -12 6 -15 -46 -213 -64 -246 -6 -11 -11 -29 -11 -39 0 -10 -10 -51
-21 -90 -19 -64 -23 -71 -35 -55 -10 13 -12 14 -11 2 2 -8 6 -20 10 -26 4 -7
4 -26 1 -42 l-6 -31 -112 0 c-127 0 -215 -17 -315 -60 -36 -16 -71 -31 -78
-33 -6 -2 -62 60 -124 137 -61 77 -106 134 -98 128 15 -15 33 -17 24 -4 -3 5
3 12 12 14 13 3 11 5 -7 7 -14 1 -32 3 -40 4 -8 0 -73 74 -145 162 -71 89
-190 234 -263 323 -73 89 -135 171 -137 183 -3 11 -7 23 -11 27 -4 3 -4 -3 0
-14 9 -26 11 -28 -132 149 -67 82 -119 152 -117 157 3 4 0 11 -6 15 -8 5 -10
3 -4 -7 12 -22 -15 7 -74 79 -28 35 -49 67 -46 72 3 4 -3 14 -13 21 -15 13
-16 12 -3 -3 7 -10 11 -18 8 -18 -13 0 -176 213 -170 222 3 6 1 8 -4 5 -13 -8
-33 14 -38 40 -1 10 -7 17 -12 16 -5 -1 -66 66 -134 150 -68 83 -178 217 -244
297 -66 80 -125 152 -132 161 -10 12 -4 27 32 80 91 135 142 320 131 480 l-7
97 81 41 c52 27 88 40 100 36 12 -4 20 -2 20 5 0 6 -4 8 -10 5 -5 -3 -10 -3
-10 0 0 14 167 84 191 79 19 -3 20 -3 5 4 -14 6 34 34 215 126 129 66 266 136
304 156 81 43 407 208 447 226 21 10 30 10 45 -2 17 -14 17 -14 -4 -5 -14 7
-24 8 -28 1 -3 -5 2 -10 12 -11 61 -3 175 -26 143 -29 -14 -2 -4 -6 25 -10 54
-8 110 5 86 19 -9 6 -5 11 16 19 86 30 167 132 179 225 7 52 14 59 53 62 14 1
34 3 44 3 9 1 17 9 17 17 0 13 -4 14 -22 5 -22 -11 -22 -11 -3 5 11 8 25 13
33 10 7 -2 11 -1 8 4 -3 5 67 49 157 99 89 49 269 148 400 221 130 72 240 131
243 131 3 0 2 -5 -2 -12 -4 -7 -3 -8 5 -4 6 4 8 12 5 18 -5 8 -1 9 10 5 9 -4
15 -3 12 1 -7 12 201 125 215 116 8 -5 9 -3 4 6 -6 10 -4 12 8 7 10 -4 16 -2
14 4 -1 6 38 33 88 59 l89 49 56 -51 c30 -28 60 -56 65 -61z m982 -23 c35 -28
42 -39 31 -46 -10 -8 -9 -9 4 -4 11 3 28 -5 45 -21 16 -14 19 -19 8 -12 -18
13 -19 13 -6 -3 7 -10 17 -16 21 -13 4 3 19 -4 31 -16 13 -11 18 -17 10 -13
-9 5 -12 3 -7 -5 4 -6 11 -9 15 -7 4 3 75 -52 157 -121 82 -69 242 -204 356
-300 114 -96 207 -179 205 -186 -1 -6 6 -11 15 -12 9 0 104 -73 210 -161 299
-250 715 -595 736 -609 1 -1 -11 -36 -27 -78 -46 -120 -56 -173 -55 -302 0
-101 5 -135 28 -214 15 -51 25 -99 23 -105 -3 -6 -78 -63 -168 -126 -90 -62
-211 -147 -269 -189 -57 -41 -110 -74 -117 -74 -7 0 -11 -2 -8 -5 8 -9 -176
-133 -187 -126 -6 4 -8 3 -5 -3 9 -14 -19 -37 -34 -27 -7 4 -9 3 -6 -3 3 -5
-21 -29 -55 -53 -33 -23 -58 -38 -54 -32 8 14 -14 20 -44 11 -23 -6 -23 -7 -3
-8 41 -2 33 -19 -29 -64 -35 -25 -64 -41 -66 -36 -6 14 -19 11 -26 -7 -3 -8
-2 -12 4 -9 6 3 10 4 10 1 0 -2 -37 -30 -82 -61 -46 -32 -74 -47 -63 -35 l20
23 -27 -6 c-17 -5 -28 -3 -31 6 -3 6 -6 -3 -6 -21 -1 -20 3 -31 9 -27 6 3 10
4 10 1 0 -10 -130 -97 -151 -101 -12 -3 -27 -10 -33 -16 -8 -8 -5 -8 12 0 36
19 25 3 -18 -25 -37 -24 -43 -26 -84 -15 -88 22 -160 9 -236 -44 -47 -33 -97
-104 -106 -152 -4 -22 -9 -30 -14 -23 -4 7 -6 -7 -3 -32 5 -40 3 -46 -23 -63
-24 -15 -27 -16 -15 -2 12 15 10 17 -20 16 -19 0 -28 -3 -22 -6 10 -3 9 -8 -2
-20 -8 -8 -13 -18 -10 -23 5 -8 -694 -510 -709 -510 -4 0 -4 6 0 13 5 8 3 8
-9 -2 -9 -7 -15 -17 -12 -21 2 -4 -31 -32 -75 -63 -77 -56 -97 -67 -85 -47 3
6 -1 7 -10 3 -11 -4 -13 -8 -6 -13 6 -3 -40 -43 -106 -90 -205 -146 -219 -156
-199 -132 23 26 15 28 -19 6 -23 -15 -37 -43 -15 -29 6 3 10 4 10 2 0 -7 -136
-107 -144 -107 -4 0 -4 6 0 13 4 7 3 9 -2 4 -5 -5 -9 -14 -9 -20 0 -7 -8 -12
-17 -12 -9 0 -20 -4 -25 -9 -5 -5 -2 -6 7 -2 8 4 4 -1 -10 -12 -23 -19 -26
-19 -42 -5 -10 9 -15 20 -12 25 3 4 1 7 -5 6 -5 -2 -35 13 -65 32 -64 40 -64
38 -21 180 13 41 35 120 50 175 27 101 72 262 145 520 65 228 173 613 245 870
37 132 73 264 81 293 10 32 21 52 30 52 30 0 91 39 136 88 93 99 103 253 24
357 l-26 33 19 64 c11 35 42 149 70 253 53 196 85 311 191 690 34 121 75 267
90 325 119 440 149 537 161 519 7 -11 9 -9 9 7 0 19 9 23 82 34 104 15 231 61
305 110 32 21 62 39 67 39 5 1 29 -15 53 -35z m-2867 -368 c0 -2 -7 -7 -16
-10 -8 -3 -12 -2 -9 4 6 10 25 14 25 6z m158 -553 c-10 -2 -26 -2 -35 0 -10 3
-2 5 17 5 19 0 27 -2 18 -5z m5842 -398 c13 -14 21 -25 18 -25 -2 0 -15 11
-28 25 -13 14 -21 25 -18 25 2 0 15 -11 28 -25z m-387 -172 c37 -18 67 -35 67
-38 0 -3 -9 -1 -21 5 -18 10 -19 10 -10 -8 15 -27 38 -45 51 -37 8 5 7 12 -2
23 -6 10 9 -3 36 -28 51 -48 100 -120 110 -160 l7 -25 -16 25 c-9 14 -14 18
-11 9 2 -9 0 -21 -5 -26 -7 -7 -4 -16 7 -28 17 -17 18 -17 24 1 6 15 8 14 14
-9 26 -107 14 -221 -35 -318 -34 -69 -126 -172 -146 -165 -8 3 -11 1 -8 -4 3
-5 -11 -18 -32 -29 -146 -74 -336 -66 -466 20 -84 56 -180 180 -161 211 4 6 3
8 -3 5 -28 -17 -49 166 -30 255 6 29 12 36 25 32 13 -5 14 -4 3 4 -33 24 51
160 141 229 103 79 150 93 293 90 89 -2 108 -6 168 -34z m-7387 -946 c23 -29
107 -132 188 -230 80 -97 145 -181 143 -185 -1 -4 3 -9 8 -10 16 -6 35 -24 35
-34 0 -5 -5 -6 -12 -2 -7 4 -8 3 -4 -5 4 -6 11 -9 16 -6 7 5 220 -247 220
-261 0 -3 -8 0 -17 7 -16 13 -17 12 -4 -3 7 -10 17 -16 21 -13 12 7 61 -55 54
-67 -4 -6 -2 -8 3 -5 6 4 81 -80 168 -186 86 -105 164 -201 173 -212 10 -11
98 -119 196 -240 99 -121 194 -238 212 -259 19 -21 31 -43 28 -48 -3 -5 0 -7
8 -6 7 2 13 -5 13 -14 0 -18 12 -33 26 -33 15 0 119 -137 112 -148 -3 -5 -1
-7 5 -3 12 7 99 -99 94 -115 -1 -6 2 -8 7 -4 9 5 28 -19 30 -38 1 -13 20 -43
21 -31 0 5 -3 14 -7 20 -5 5 4 -4 19 -21 15 -16 48 -55 72 -86 l45 -56 -36
-53 c-48 -71 -90 -167 -113 -254 -13 -51 -19 -63 -20 -41 -1 26 -3 27 -9 10
-5 -11 -7 -23 -4 -27 2 -5 -327 -8 -731 -8 l-736 0 -36 40 c-111 123 -303 125
-414 4 l-40 -44 -749 0 -748 0 -7 32 c-3 17 -4 33 -1 36 3 3 5 -3 6 -14 0 -12
4 -8 10 11 9 31 4 41 -21 47 -18 4 -61 93 -54 112 3 8 1 17 -5 21 -7 4 -8 -1
-5 -12 4 -10 -9 7 -29 37 -19 30 -33 59 -30 64 3 5 1 6 -5 2 -13 -8 -55 48
-44 59 4 5 2 5 -4 2 -6 -4 -19 2 -28 12 -16 18 -16 22 -2 50 9 17 21 30 27 28
7 -1 14 4 17 12 3 8 0 11 -7 7 -8 -5 -8 -1 0 18 7 14 15 23 20 21 4 -3 11 0
15 6 4 8 3 9 -4 5 -7 -4 -12 -5 -12 -2 0 5 140 259 316 576 57 102 108 184
113 183 6 -2 8 3 6 10 -3 6 22 62 56 122 58 102 252 456 392 710 51 94 116
210 258 462 l30 52 36 -15 c125 -53 357 -56 517 -8 14 4 18 3 11 -4 -5 -5 -19
-12 -30 -15 -11 -3 -4 -5 17 -6 31 -1 36 2 33 18 -4 24 73 59 88 38 6 -9 7 -8
4 3 -3 13 19 40 33 39 3 0 24 -23 46 -52z"/>
<path d="M11950 9380 c0 -11 7 -20 16 -20 8 0 12 -4 9 -10 -3 -5 -1 -18 4 -27
9 -15 10 -12 11 17 0 19 -4 40 -8 45 -13 18 -32 15 -32 -5z"/>
<path d="M11856 8975 c-8 -8 -18 -15 -23 -15 -4 0 -17 -13 -28 -28 l-19 -26
29 21 c32 22 72 63 62 63 -3 0 -12 -7 -21 -15z"/>
<path d="M11628 8853 c7 -3 16 -2 19 1 4 3 -2 6 -13 5 -11 0 -14 -3 -6 -6z"/>
<path d="M5882 8727 c-9 -10 -4 -12 25 -9 24 3 31 7 22 13 -20 12 -35 11 -47
-4z"/>
<path d="M6403 8517 c6 -12 12 -23 13 -25 1 -1 11 1 23 6 21 7 20 9 -13 25
l-36 17 13 -23z"/>
<path d="M6610 8410 c-11 -7 -6 -10 20 -10 26 0 31 3 20 10 -8 5 -17 10 -20
10 -3 0 -12 -5 -20 -10z"/>
<path d="M7598 7560 c-4 -22 -2 -39 6 -45 7 -5 15 -17 19 -25 10 -28 7 4 -7
55 l-13 50 -5 -35z"/>
<path d="M4796 7435 c-11 -29 -7 -37 10 -20 11 11 13 20 7 26 -7 7 -12 5 -17
-6z"/>
<path d="M7155 7150 c-3 -5 1 -10 9 -10 8 0 18 5 21 10 3 6 -1 10 -9 10 -8 0
-18 -4 -21 -10z"/>
<path d="M5887 6542 c-10 -10 -14 -22 -10 -25 3 -4 13 2 21 14 18 26 10 35
-11 11z"/>
<path d="M10800 8720 l-35 -19 38 -1 c28 0 37 -4 38 -17 0 -15 2 -15 9 2 13
30 12 55 -2 55 -7 -1 -29 -9 -48 -20z"/>
<path d="M10635 8640 c-3 -5 3 -10 14 -10 12 0 21 5 21 10 0 6 -6 10 -14 10
-8 0 -18 -4 -21 -10z"/>
<path d="M9182 7780 c0 -14 2 -19 5 -12 2 6 2 18 0 25 -3 6 -5 1 -5 -13z"/>
<path d="M10400 6175 c7 -8 19 -15 27 -15 12 0 12 2 -1 15 -8 8 -20 15 -27 15
-9 0 -8 -4 1 -15z"/>
<path d="M8323 8104 c3 -3 22 -6 42 -6 20 0 39 3 42 6 4 3 -15 6 -42 6 -27 0
-46 -3 -42 -6z"/>
<path d="M7980 7709 c0 -11 4 -18 10 -14 5 3 7 12 3 20 -7 21 -13 19 -13 -6z"/>
<path d="M8168 7343 c6 -2 18 -2 25 0 6 3 1 5 -13 5 -14 0 -19 -2 -12 -5z"/>
<path d="M8468 7323 c12 -2 30 -2 40 0 9 3 -1 5 -23 4 -22 0 -30 -2 -17 -4z"/>
<path d="M7787 7133 c-15 -7 -27 -16 -27 -19 0 -2 9 0 20 6 14 8 26 8 40 0 23
-12 26 -5 7 15 -11 10 -18 10 -40 -2z"/>
<path d="M7960 7016 c0 -3 9 -10 20 -16 11 -6 20 -8 20 -6 0 3 -9 10 -20 16
-11 6 -20 8 -20 6z"/>
<path d="M6630 6495 c-19 -11 -21 -14 -7 -15 9 0 17 -5 17 -12 0 -9 3 -9 11
-1 6 6 9 18 7 26 -3 14 -6 14 -28 2z"/>
<path d="M6452 6375 c0 -16 2 -22 5 -12 2 9 2 23 0 30 -3 6 -5 -1 -5 -18z"/>
<path d="M6438 6315 c-3 -16 -1 -25 7 -25 8 0 10 9 7 25 -2 14 -6 25 -7 25 -1
0 -5 -11 -7 -25z"/>
<path d="M7754 5772 c-6 -4 -8 -18 -4 -32 l6 -25 8 29 c8 32 5 38 -10 28z"/>
<path d="M5094 5695 c-10 -8 -14 -14 -9 -15 15 0 40 18 34 24 -3 3 -14 -1 -25
-9z"/>
<path d="M7721 5643 c0 -31 2 -34 9 -18 12 28 12 55 0 55 -5 0 -10 -17 -9 -37z"/>
<path d="M7642 5364 c-8 -9 -10 -20 -4 -30 8 -14 10 -12 16 11 8 33 5 38 -12
19z"/>
<path d="M4536 4941 c-4 -7 -5 -15 -2 -18 9 -9 19 4 14 18 -4 11 -6 11 -12 0z"/>
<path d="M6281 2598 c29 -40 38 -42 27 -5 -7 21 -16 33 -28 33 -17 0 -17 -2 1
-28z"/>
<path d="M6848 2593 c7 -3 16 -2 19 1 4 3 -2 6 -13 5 -11 0 -14 -3 -6 -6z"/>
<path d="M8860 7046 c0 -2 7 -7 16 -10 8 -3 12 -2 9 4 -6 10 -25 14 -25 6z"/>
<path d="M8230 6271 c0 -5 9 -7 20 -4 11 3 20 7 20 9 0 2 -9 4 -20 4 -11 0
-20 -4 -20 -9z"/>
<path d="M10170 5950 c0 -5 5 -10 11 -10 5 0 7 5 4 10 -3 6 -8 10 -11 10 -2 0
-4 -4 -4 -10z"/>
<path d="M10576 5605 c4 -8 13 -15 21 -15 13 0 13 3 3 15 -7 8 -16 15 -21 15
-5 0 -6 -7 -3 -15z"/>
<path d="M7922 5160 c-6 -24 -9 -46 -7 -48 6 -6 27 68 23 80 -3 7 -10 -8 -16
-32z"/>
<path d="M10642 5145 c0 -16 2 -22 5 -12 2 9 2 23 0 30 -3 6 -5 -1 -5 -18z"/>
<path d="M10647 4984 c-13 -13 -7 -52 8 -58 10 -3 15 1 14 12 -1 27 -14 54
-22 46z"/>
<path d="M7944 4914 c9 -36 14 -40 27 -27 8 8 5 17 -11 33 l-23 23 7 -29z"/>
<path d="M9820 4183 c0 -11 5 -11 20 -3 11 6 20 13 20 15 0 2 -9 3 -20 2 -11
-1 -20 -7 -20 -14z"/>
<path d="M9128 3793 c12 -2 30 -2 40 0 9 3 -1 5 -23 4 -22 0 -30 -2 -17 -4z"/>
<path d="M8841 3484 c0 -11 3 -14 6 -6 3 7 2 16 -1 19 -3 4 -6 -2 -5 -13z"/>
<path d="M7676 2663 c-18 -25 -18 -25 2 -14 25 13 35 28 25 34 -5 3 -16 -6
-27 -20z"/>
<path d="M11913 5115 c0 -27 2 -38 4 -22 2 15 2 37 0 50 -2 12 -4 0 -4 -28z"/>
<path d="M11796 4828 c-21 -29 -31 -47 -22 -39 26 21 79 91 69 91 -4 0 -26
-24 -47 -52z"/>
<path d="M11159 4806 c19 -20 37 -36 38 -36 9 0 -34 49 -52 60 -11 7 -4 -4 14
-24z"/>
<path d="M3650 4520 c8 -5 35 -9 60 -9 41 1 42 2 15 9 -16 4 -43 8 -60 9 -23
0 -26 -2 -15 -9z"/>
<path d="M4278 4523 c7 -3 16 -2 19 1 4 3 -2 6 -13 5 -11 0 -14 -3 -6 -6z"/>
<path d="M4710 4034 c1 -10 60 -82 60 -72 0 3 -13 22 -30 43 -16 21 -30 34
-30 29z"/>
<path d="M2305 2379 c-4 -6 -5 -12 -2 -15 2 -3 7 2 10 11 7 17 1 20 -8 4z"/>
<path d="M4069 2009 c-23 -19 -23 -20 -2 -10 12 6 25 16 28 21 10 16 -1 12
-26 -11z"/>
<path d="M4010 1951 c0 -6 -15 -12 -32 -14 l-33 -4 31 -1 c18 -1 37 5 44 13 9
10 9 15 1 15 -6 0 -11 -4 -11 -9z"/>
<path d="M2520 1940 c0 -6 7 -10 15 -10 8 0 15 2 15 4 0 2 -7 6 -15 10 -8 3
-15 1 -15 -4z"/>
<path d="M2643 1933 c15 -2 37 -2 50 0 12 2 0 4 -28 4 -27 0 -38 -2 -22 -4z"/>
<path d="M4694 9706 c-3 -9 -12 -16 -20 -16 -16 0 -19 -16 -5 -24 10 -7 46 43
37 51 -3 3 -8 -2 -12 -11z"/>
<path d="M4600 9542 c-8 -9 -15 -34 -16 -56 l-2 -41 19 54 c10 30 18 55 16 57
-1 1 -9 -5 -17 -14z"/>
<path d="M4542 9400 c0 -14 2 -19 5 -12 2 6 2 18 0 25 -3 6 -5 1 -5 -13z"/>
<path d="M10741 9134 c0 -11 3 -14 6 -6 3 7 2 16 -1 19 -3 4 -6 -2 -5 -13z"/>
<path d="M10738 9103 c7 -3 16 -2 19 1 4 3 -2 6 -13 5 -11 0 -14 -3 -6 -6z"/>
<path d="M6090 9036 c0 -2 7 -7 16 -10 8 -3 12 -2 9 4 -6 10 -25 14 -25 6z"/>
<path d="M6151 9006 c10 -9 89 -46 89 -41 0 5 -75 45 -86 45 -4 0 -5 -2 -3 -4z"/>
<path d="M4663 8871 c0 -10 9 -24 19 -30 18 -11 18 -10 3 19 -18 35 -24 38
-22 11z"/>
<path d="M8651 8456 c14 -13 99 -43 99 -36 0 11 -64 40 -88 40 -8 0 -13 -2
-11 -4z"/>
<path d="M7580 8296 c0 -2 7 -7 16 -10 8 -3 12 -2 9 4 -6 10 -25 14 -25 6z"/>
<path d="M8955 8260 c10 -11 20 -20 22 -20 2 0 -2 9 -9 20 -7 11 -17 20 -22
20 -5 0 -1 -9 9 -20z"/>
<path d="M7768 8203 c7 -3 16 -2 19 1 4 3 -2 6 -13 5 -11 0 -14 -3 -6 -6z"/>
<path d="M12291 5244 c0 -11 3 -14 6 -6 3 7 2 16 -1 19 -3 4 -6 -2 -5 -13z"/>
<path d="M3250 4729 c0 -5 5 -7 10 -4 6 3 10 8 10 11 0 2 -4 4 -10 4 -5 0 -10
-5 -10 -11z"/>
<path d="M3225 4684 c-9 -14 -14 -28 -12 -31 3 -3 13 9 22 26 19 38 14 41 -10
5z"/>
<path d="M10870 4540 c0 -5 5 -10 10 -10 6 0 10 5 10 10 0 6 -4 10 -10 10 -5
0 -10 -4 -10 -10z"/>
<path d="M10835 4510 c3 -5 8 -10 11 -10 2 0 4 5 4 10 0 6 -5 10 -11 10 -5 0
-7 -4 -4 -10z"/>
<path d="M10739 4443 c-13 -15 -12 -15 9 -4 23 12 28 21 13 21 -5 0 -15 -7
-22 -17z"/>
<path d="M9442 3505 c0 -16 2 -22 5 -12 2 9 2 23 0 30 -3 6 -5 -1 -5 -18z"/>
<path d="M8730 3025 c-11 -13 -10 -14 4 -9 9 3 16 10 16 15 0 13 -6 11 -20 -6z"/>
<path d="M1768 2563 c12 -2 30 -2 40 0 9 3 -1 5 -23 4 -22 0 -30 -2 -17 -4z"/>
<path d="M1990 2526 c0 -2 9 -6 20 -9 11 -3 18 -1 14 4 -5 9 -34 13 -34 5z"/>
<path d="M2893 1613 c48 -2 126 -2 175 0 48 1 8 3 -88 3 -96 0 -136 -2 -87 -3z"/>
<path d="M3528 1613 c7 -3 16 -2 19 1 4 3 -2 6 -13 5 -11 0 -14 -3 -6 -6z"/>
<path d="M3663 1613 c37 -2 96 -2 130 0 34 2 4 3 -68 3 -71 0 -99 -1 -62 -3z"/>
<path d="M4937 1613 c18 -2 50 -2 70 0 21 2 7 4 -32 4 -38 0 -55 -2 -38 -4z"/>
<path d="M5223 1613 c9 -2 23 -2 30 0 6 3 -1 5 -18 5 -16 0 -22 -2 -12 -5z"/>
<path d="M5618 1613 c7 -3 16 -2 19 1 4 3 -2 6 -13 5 -11 0 -14 -3 -6 -6z"/>
<path d="M5713 1613 c15 -2 39 -2 55 0 15 2 2 4 -28 4 -30 0 -43 -2 -27 -4z"/>
<path d="M4255 1490 l-50 -7 47 -1 c26 -1 50 3 53 8 3 6 5 9 3 8 -2 0 -25 -4
-53 -8z"/>
<path d="M1422 1021 c-10 -6 -2 -10 25 -15 21 -4 47 -9 58 -12 11 -2 2 5 -20
15 -48 23 -46 23 -63 12z"/>
<path d="M6528 1013 c7 -3 16 -2 19 1 4 3 -2 6 -13 5 -11 0 -14 -3 -6 -6z"/>
</g>
</svg>
