<?xml version="1.0" standalone="no"?>
<!DOCTYPE svg PUBLIC "-//W3C//DTD SVG 20010904//EN"
 "http://www.w3.org/TR/2001/REC-SVG-20010904/DTD/svg10.dtd">
<svg version="1.0" xmlns="http://www.w3.org/2000/svg"
 width="1254.000000pt" height="1254.000000pt" viewBox="0 0 1254.000000 1254.000000"
 preserveAspectRatio="xMidYMid meet">
<metadata>
Created by potrace 1.16, written by Peter Selinger 2001-2019
</metadata>
<g transform="translate(0.000000,1254.000000) scale(0.100000,-0.100000)"
fill="#000000" stroke="none">
<path d="M6148 11003 c6 -2 18 -2 25 0 6 3 1 5 -13 5 -14 0 -19 -2 -12 -5z"/>
<path d="M5898 10993 c6 -2 18 -2 25 0 6 3 1 5 -13 5 -14 0 -19 -2 -12 -5z"/>
<path d="M5995 10983 c-500 -30 -997 -145 -1465 -336 -51 -21 -87 -31 -91 -25
-4 5 -9 3 -12 -6 -4 -9 -77 -51 -164 -94 -87 -43 -169 -85 -183 -94 -14 -8
-77 -46 -140 -83 -190 -113 -408 -267 -578 -409 -40 -34 -79 -60 -87 -58 -7 1
-16 -2 -20 -8 -4 -6 1 -7 12 -4 12 4 9 -3 -10 -20 -16 -15 -33 -23 -39 -20 -6
4 -8 3 -5 -3 8 -13 -207 -226 -218 -216 -4 4 -5 3 -2 -3 8 -14 -66 -87 -78
-77 -4 5 -5 2 0 -5 5 -9 -6 -28 -32 -55 -22 -23 -56 -62 -77 -87 -20 -25 -43
-45 -49 -45 -7 -1 -11 -6 -10 -13 4 -15 -105 -157 -121 -157 -6 -1 -10 -6 -8
-13 3 -17 -97 -158 -110 -154 -5 1 -7 -2 -4 -7 3 -5 -37 -79 -89 -166 -94
-155 -231 -419 -295 -567 -18 -42 -36 -76 -39 -74 -3 2 -6 -9 -7 -24 -1 -16
-12 -53 -26 -82 -22 -46 -101 -288 -128 -388 -6 -19 -19 -66 -30 -105 -68
-238 -122 -623 -135 -960 -7 -173 8 -542 25 -650 49 -301 68 -403 107 -555 56
-224 133 -452 222 -658 38 -90 67 -171 64 -180 -3 -12 -2 -13 4 -5 6 8 24 -19
57 -85 26 -53 68 -132 92 -174 24 -43 44 -81 43 -85 -3 -20 2 -33 12 -31 6 2
14 -3 17 -11 3 -9 0 -11 -8 -6 -9 5 -11 4 -6 -4 4 -6 11 -9 15 -7 4 3 30 -29
56 -72 27 -42 71 -108 98 -147 28 -38 50 -75 50 -82 0 -7 2 -11 5 -8 3 2 30
-28 61 -68 31 -40 84 -107 118 -149 34 -41 59 -79 55 -83 -4 -3 -2 -5 4 -3 6
1 46 -35 90 -82 43 -47 123 -127 176 -179 54 -51 95 -98 91 -104 -3 -5 -1 -7
5 -4 5 4 52 -29 104 -74 85 -74 314 -251 380 -294 15 -9 25 -22 21 -28 -3 -6
-1 -7 5 -3 13 8 124 -63 116 -75 -6 -11 43 -42 55 -35 14 9 103 -48 94 -59 -5
-4 -2 -5 4 -1 14 8 224 -104 217 -115 -2 -4 2 -6 9 -5 6 0 72 -26 145 -58 91
-41 129 -62 120 -68 -9 -6 -6 -7 8 -3 12 3 49 -7 91 -24 208 -89 580 -197 845
-245 501 -92 1077 -100 1581 -21 364 57 775 181 1124 339 56 25 109 43 117 40
8 -3 17 -1 21 5 4 7 -1 9 -12 5 -10 -3 42 26 115 65 73 38 139 68 147 64 8 -3
15 0 15 7 0 6 -4 8 -10 5 -5 -3 -10 -4 -10 -1 0 11 143 85 152 79 7 -3 8 -1 4
5 -3 6 2 16 13 21 28 15 38 14 16 -2 -14 -11 -15 -16 -5 -22 8 -5 11 -4 7 2
-4 6 0 14 8 17 8 3 14 10 13 15 -2 5 53 49 122 97 69 48 155 111 192 141 66
52 86 64 72 41 -4 -7 -3 -8 5 -4 6 4 9 11 6 15 -2 5 22 31 54 60 58 50 80 63
65 39 -4 -7 -3 -8 5 -4 6 4 9 11 7 15 -3 4 54 62 125 130 71 67 171 168 221
224 51 56 97 100 103 99 5 -2 7 -1 3 3 -4 4 35 59 86 123 50 65 114 147 141
184 26 37 53 64 58 61 6 -3 7 -1 4 4 -4 6 27 64 69 130 42 65 99 159 127 210
28 50 55 89 61 86 5 -3 6 -1 2 5 -10 16 12 54 26 46 8 -5 9 -1 5 10 -8 20 53
147 66 139 6 -3 7 -1 3 5 -3 6 11 51 33 99 93 207 182 455 240 673 47 179 69
290 110 565 19 122 31 353 31 586 0 325 -19 538 -75 829 -22 115 -34 163 -94
395 -12 43 -39 131 -62 194 -31 89 -37 116 -27 123 10 6 9 8 -3 8 -10 0 -28
32 -54 98 -36 89 -83 196 -148 331 -15 29 -24 58 -20 64 3 6 2 7 -4 4 -12 -8
-46 61 -37 75 4 6 3 8 -3 5 -5 -3 -29 29 -53 71 -78 138 -197 326 -271 427
-39 55 -72 105 -73 112 -1 7 -6 16 -11 20 -4 4 -5 1 -1 -7 4 -8 1 -6 -8 4 -8
10 -13 23 -9 29 3 6 1 7 -4 4 -12 -8 -90 89 -85 105 1 5 -2 7 -7 4 -11 -7 -72
64 -65 76 3 5 0 7 -8 6 -7 -2 -12 3 -10 10 1 8 -2 11 -7 8 -11 -7 -32 17 -35
41 -2 10 -9 18 -17 18 -8 0 -14 7 -14 15 0 8 -5 15 -12 15 -14 0 -28 13 -28
26 0 5 -3 8 -6 7 -12 -5 -49 34 -42 45 3 5 1 7 -4 4 -12 -7 -46 26 -38 36 3 4
2 5 -1 2 -10 -7 -164 136 -158 147 3 4 2 7 -3 6 -15 -5 -143 104 -136 115 3 6
1 7 -5 4 -5 -4 -34 12 -64 36 -29 23 -77 60 -106 81 -29 21 -49 43 -45 48 3 7
1 8 -5 4 -6 -3 -53 22 -104 57 -51 35 -132 87 -180 117 -49 29 -88 57 -88 62
0 5 -4 7 -10 3 -5 -3 -18 3 -30 15 -11 11 -23 19 -26 18 -14 -4 -302 147 -297
155 3 6 1 7 -4 4 -6 -4 -53 12 -104 34 -482 207 -961 324 -1474 359 -128 9
-468 11 -590 3z m640 -494 c211 -20 542 -78 511 -89 -10 -3 7 -6 36 -6 132 -1
782 -232 771 -274 -4 -11 -2 -12 4 -2 12 16 74 -11 254 -111 198 -109 320
-189 504 -325 134 -100 158 -123 143 -135 -9 -6 -8 -7 5 -3 20 6 178 -127 174
-146 -1 -7 5 -12 13 -13 8 -1 14 -6 12 -13 -1 -7 4 -11 10 -10 7 2 12 -4 10
-12 -2 -8 0 -12 4 -7 9 8 46 -22 39 -33 -3 -4 3 -14 13 -21 15 -13 16 -12 3 4
-21 27 -7 20 20 -10 13 -14 17 -23 9 -18 -9 5 -12 5 -7 -1 5 -5 12 -9 15 -9
15 0 32 -17 26 -26 -3 -5 -2 -8 3 -7 9 3 71 -62 161 -170 39 -47 59 -80 55
-90 -3 -12 -2 -13 4 -5 14 19 167 -194 285 -397 107 -184 152 -274 263 -525
91 -205 178 -497 234 -783 81 -416 96 -739 55 -1152 -47 -477 -210 -1022 -429
-1435 -41 -77 -79 -139 -85 -137 -6 1 -9 -2 -5 -7 3 -6 -1 -24 -10 -41 -28
-55 -116 -185 -125 -185 -5 0 -12 -4 -17 -9 -5 -5 -3 -6 5 -2 6 4 12 5 12 1 0
-25 -295 -402 -311 -397 -5 1 -8 -2 -7 -6 4 -12 -93 -123 -102 -117 -9 6 -32
-20 -25 -27 7 -6 -215 -221 -303 -294 -36 -29 -69 -51 -74 -48 -5 3 -7 1 -6
-5 4 -16 -234 -192 -252 -185 -8 3 -11 2 -7 -2 7 -8 -107 -87 -205 -143 -39
-22 -58 -28 -59 -19 0 7 -4 4 -8 -7 -10 -24 -96 -69 -112 -59 -7 4 -9 3 -6 -3
3 -5 -9 -17 -28 -26 -42 -20 -47 -14 -7 7 15 8 22 15 15 16 -11 0 -82 -35 -93
-47 -3 -3 6 -3 20 1 41 10 -166 -90 -280 -135 -339 -134 -749 -233 -1110 -269
-150 -15 -451 -19 -618 -9 -432 25 -887 128 -1287 289 -130 52 -447 209 -442
218 3 4 -2 8 -11 8 -27 0 -213 115 -205 127 3 6 1 7 -5 3 -15 -9 -153 84 -145
97 3 6 1 7 -6 3 -13 -9 -44 12 -36 24 3 4 -3 7 -13 6 -10 0 -16 5 -14 14 2 8
0 12 -3 8 -4 -4 -15 -3 -25 2 -31 16 -105 83 -102 91 1 5 -1 8 -5 7 -16 -4
-53 23 -47 34 4 6 3 8 -4 4 -14 -9 -74 43 -65 57 3 7 3 9 -2 5 -10 -10 -87 51
-79 63 3 5 0 8 -8 7 -7 -2 -12 3 -10 10 1 8 -1 11 -6 8 -14 -8 -275 261 -266
275 4 7 3 10 -4 5 -12 -7 -84 72 -77 85 3 4 0 11 -6 15 -8 4 -9 3 -5 -4 21
-34 -8 -3 -66 70 -389 495 -649 1060 -772 1678 -19 96 -39 214 -45 263 -6 48
-16 126 -22 174 -16 118 -16 500 -1 653 63 626 238 1182 534 1695 122 211 343
523 367 517 7 -1 10 2 6 8 -7 12 143 186 157 182 5 -1 7 1 4 6 -7 12 168 184
178 175 4 -4 6 -1 4 7 -1 8 4 14 12 15 8 0 15 5 15 12 0 17 121 124 136 121 7
-2 13 3 14 10 1 29 279 232 503 367 570 342 1140 518 1877 579 74 6 469 -4
580 -15z m-2761 -7784 c11 -8 15 -15 10 -15 -6 0 -19 7 -30 15 -10 8 -14 14
-9 14 6 0 19 -6 29 -14z"/>
<path d="M3390 9293 c-25 -26 -32 -36 -15 -23 44 37 73 70 62 70 -2 0 -23 -21
-47 -47z"/>
<path d="M6005 9184 c-22 -2 -96 -9 -165 -14 -447 -39 -887 -158 -1240 -335
-109 -55 -316 -196 -380 -260 -38 -38 -60 -53 -72 -49 -13 4 -18 0 -18 -16 0
-12 -24 -51 -53 -88 -69 -86 -108 -152 -146 -244 -68 -163 -65 -68 -65 -1683
l-1 -1460 23 -80 c46 -157 137 -294 282 -422 41 -37 74 -70 73 -75 -2 -4 0 -7
5 -6 15 3 42 -15 35 -25 -3 -5 -2 -7 4 -4 11 7 126 -67 117 -75 -3 -3 1 -6 8
-5 7 1 87 -35 178 -80 349 -171 743 -269 1255 -315 175 -15 650 -15 810 1 132
13 422 55 500 73 121 28 338 89 434 122 57 19 108 33 113 30 5 -3 15 1 21 10
16 21 155 78 169 70 6 -4 8 -3 5 3 -3 5 31 29 76 53 45 24 119 69 165 101 45
33 84 59 86 59 2 0 44 42 94 93 146 147 212 257 253 415 18 72 19 128 19 1532
l0 1457 -25 98 c-46 183 -135 325 -302 486 -331 316 -891 538 -1553 614 -127
15 -616 28 -705 19z m725 -493 c409 -58 726 -158 986 -311 148 -87 299 -219
288 -252 -3 -10 0 -18 6 -18 6 0 8 6 4 13 -4 6 2 3 15 -7 32 -29 80 -132 93
-203 14 -76 1 -152 -42 -239 -34 -70 -107 -157 -122 -147 -6 3 -8 1 -5 -4 8
-13 -80 -96 -93 -88 -6 4 -9 1 -8 -7 2 -7 -5 -12 -14 -12 -10 1 -16 -2 -13 -6
3 -5 -19 -24 -48 -43 -74 -49 -96 -59 -109 -51 -6 4 -8 3 -5 -3 13 -21 -247
-132 -443 -188 -662 -189 -1530 -169 -2136 50 -166 60 -369 159 -359 176 4 5
0 6 -7 4 -20 -8 -153 88 -228 165 -141 144 -185 285 -139 441 11 34 14 38 21
23 6 -14 7 -11 3 9 -3 17 2 42 15 68 27 52 184 214 199 205 6 -4 10 -2 9 4 -4
16 122 102 139 96 9 -4 11 -1 7 6 -5 8 -2 9 10 5 9 -4 15 -3 12 2 -13 20 176
108 368 172 264 87 510 133 866 163 25 2 167 2 315 1 205 -3 305 -9 415 -24z
m-2065 -1851 c150 -72 278 -120 454 -170 135 -39 336 -83 439 -96 38 -5 50
-10 40 -16 -9 -7 -5 -8 12 -4 14 3 95 -2 180 -11 202 -22 672 -23 850 -3 69 8
152 15 185 14 32 0 53 2 45 4 -8 3 41 16 110 28 413 76 801 220 1060 394 l89
60 0 -283 c0 -155 -3 -296 -8 -312 -5 -17 -10 -23 -10 -16 -1 12 -4 12 -13 3
-10 -10 -10 -14 0 -21 19 -12 -5 -66 -63 -141 -47 -61 -83 -93 -95 -85 -4 3
-14 -3 -21 -13 -13 -16 -13 -16 6 -2 18 14 19 14 7 -2 -63 -80 -539 -319 -583
-292 -7 4 -10 3 -6 -3 12 -20 -337 -109 -387 -99 -19 4 -26 3 -18 -3 14 -9
-116 -31 -293 -51 -332 -37 -870 -13 -1150 50 -36 8 -34 9 20 5 33 -2 52 -1
43 1 -10 3 -18 9 -18 12 0 4 -28 7 -63 8 -42 1 -56 -2 -42 -7 28 -12 -29 -3
-138 23 -60 15 -84 24 -75 31 9 6 8 7 -5 3 -25 -8 -68 4 -60 17 4 6 1 7 -6 2
-13 -8 -183 44 -177 54 2 3 -7 7 -20 7 -36 3 -255 114 -248 126 4 7 2 8 -4 4
-18 -11 -133 71 -126 89 4 10 0 15 -11 15 -10 0 -13 -5 -9 -12 4 -7 -17 8 -47
33 -49 42 -141 154 -111 136 8 -6 12 -1 12 14 0 18 -2 19 -15 9 -13 -11 -14
-10 -9 5 6 14 4 16 -7 10 -11 -7 -11 -5 1 10 14 17 13 18 -2 13 -36 -14 -43
41 -43 336 0 221 3 280 13 284 10 3 9 9 -5 24 -10 11 32 -12 92 -52 61 -40
164 -98 230 -130z m3454 -1750 c-26 -124 -147 -249 -354 -365 -206 -116 -484
-207 -840 -276 -159 -30 -729 -69 -747 -51 -5 5 -41 7 -80 5 -114 -7 -518 30
-518 47 0 4 -33 10 -72 13 -90 7 -360 74 -488 121 -216 79 -367 155 -482 243
-59 45 -148 140 -148 158 0 5 5 3 11 -5 9 -13 10 -13 6 0 -2 8 -10 14 -16 12
-7 -1 -22 19 -34 45 -21 45 -22 64 -24 337 -3 258 -1 291 14 308 9 11 11 18 5
18 -7 0 -12 4 -12 10 0 5 28 -7 63 -28 361 -221 786 -351 1387 -424 166 -20
768 -17 950 6 380 46 760 144 1019 262 41 19 81 32 90 29 9 -2 23 0 31 6 11 8
9 9 -10 4 -35 -9 -14 5 80 55 41 22 98 55 125 73 l50 34 3 -291 c2 -197 -1
-309 -9 -346z"/>
<path d="M5823 8683 c9 -2 25 -2 35 0 9 3 1 5 -18 5 -19 0 -27 -2 -17 -5z"/>
<path d="M4471 8144 c0 -11 3 -14 6 -6 3 7 2 16 -1 19 -3 4 -6 -2 -5 -13z"/>
<path d="M7976 7555 c-11 -8 -15 -15 -9 -15 6 0 16 7 23 15 16 19 11 19 -14 0z"/>
<path d="M6775 7050 c-3 -5 -1 -10 4 -10 6 0 11 5 11 10 0 6 -2 10 -4 10 -3 0
-8 -4 -11 -10z"/>
<path d="M6348 7013 c7 -3 16 -2 19 1 4 3 -2 6 -13 5 -11 0 -14 -3 -6 -6z"/>
<path d="M7986 6935 c-11 -8 -15 -15 -10 -15 6 0 19 7 30 15 10 8 15 14 9 14
-5 0 -19 -6 -29 -14z"/>
<path d="M6718 6533 c12 -2 30 -2 40 0 9 3 -1 5 -23 4 -22 0 -30 -2 -17 -4z"/>
<path d="M5938 6513 c18 -2 45 -2 60 0 15 2 0 4 -33 4 -33 0 -45 -2 -27 -4z"/>
<path d="M6498 6513 c12 -2 32 -2 45 0 12 2 2 4 -23 4 -25 0 -35 -2 -22 -4z"/>
<path d="M4585 6130 c3 -5 11 -10 16 -10 6 0 7 5 4 10 -3 6 -11 10 -16 10 -6
0 -7 -4 -4 -10z"/>
<path d="M4910 5950 c8 -5 22 -9 30 -9 10 0 8 3 -5 9 -27 12 -43 12 -25 0z"/>
<path d="M5823 5733 c9 -2 25 -2 35 0 9 3 1 5 -18 5 -19 0 -27 -2 -17 -5z"/>
<path d="M6488 5723 c7 -3 16 -2 19 1 4 3 -2 6 -13 5 -11 0 -14 -3 -6 -6z"/>
<path d="M6533 5723 c9 -2 25 -2 35 0 9 3 1 5 -18 5 -19 0 -27 -2 -17 -5z"/>
<path d="M6138 5713 c12 -2 30 -2 40 0 9 3 -1 5 -23 4 -22 0 -30 -2 -17 -4z"/>
<path d="M6213 5713 c9 -2 23 -2 30 0 6 3 -1 5 -18 5 -16 0 -22 -2 -12 -5z"/>
<path d="M4970 5406 c0 -2 7 -7 16 -10 8 -3 12 -2 9 4 -6 10 -25 14 -25 6z"/>
<path d="M5768 5243 c6 -2 18 -2 25 0 6 3 1 5 -13 5 -14 0 -19 -2 -12 -5z"/>
<path d="M5843 5233 c9 -2 25 -2 35 0 9 3 1 5 -18 5 -19 0 -27 -2 -17 -5z"/>
<path d="M6158 5223 c50 -2 134 -2 185 0 50 1 9 3 -93 3 -102 0 -143 -2 -92
-3z"/>
<path d="M5230 4536 c0 -2 7 -6 15 -10 8 -3 15 -1 15 4 0 6 -7 10 -15 10 -8 0
-15 -2 -15 -4z"/>
<path d="M6689 4439 c-10 -6 -7 -9 14 -9 29 0 35 5 14 13 -8 3 -20 1 -28 -4z"/>
<path d="M7920 4270 c-13 -9 -13 -11 0 -20 15 -10 25 0 18 20 -2 6 -8 6 -18 0z"/>
<path d="M9014 3598 l-29 -33 33 29 c17 17 32 31 32 33 0 8 -8 1 -36 -29z"/>
<path d="M4580 2885 c33 -19 49 -19 24 0 -10 8 -26 14 -34 14 -9 0 -4 -6 10
-14z"/>
<path d="M7800 10740 c0 -5 5 -10 10 -10 6 0 10 5 10 10 0 6 -4 10 -10 10 -5
0 -10 -4 -10 -10z"/>
<path d="M2880 9495 c-7 -9 -8 -15 -2 -15 5 0 12 7 16 15 3 8 4 15 2 15 -2 0
-9 -7 -16 -15z"/>
<path d="M2636 9194 c-5 -14 -4 -15 9 -4 17 14 19 20 6 20 -5 0 -12 -7 -15
-16z"/>
<path d="M2077 8220 c-3 -11 -1 -20 4 -20 5 0 9 2 9 4 0 2 3 11 6 20 3 9 2 16
-4 16 -5 0 -12 -9 -15 -20z"/>
<path d="M1762 7090 c0 -14 2 -19 5 -12 2 6 2 18 0 25 -3 6 -5 1 -5 -13z"/>
<path d="M1761 5894 c0 -11 3 -14 6 -6 3 7 2 16 -1 19 -3 4 -6 -2 -5 -13z"/>
<path d="M4384 2416 c11 -9 24 -16 30 -16 12 0 7 5 -24 19 -24 11 -24 11 -6
-3z"/>
<path d="M5948 2023 c6 -2 18 -2 25 0 6 3 1 5 -13 5 -14 0 -19 -2 -12 -5z"/>
</g>
</svg>
