<?xml version="1.0" standalone="no"?>
<!DOCTYPE svg PUBLIC "-//W3C//DTD SVG 20010904//EN"
 "http://www.w3.org/TR/2001/REC-SVG-20010904/DTD/svg10.dtd">
<svg version="1.0" xmlns="http://www.w3.org/2000/svg"
 width="1254.000000pt" height="1254.000000pt" viewBox="0 0 1254.000000 1254.000000"
 preserveAspectRatio="xMidYMid meet">
<metadata>
Created by potrace 1.16, written by Peter Selinger 2001-2019
</metadata>
<g transform="translate(0.000000,1254.000000) scale(0.100000,-0.100000)"
fill="#000000" stroke="none">
<path d="M2925 9759 c26 -6 27 -7 6 -8 -108 -5 -339 -104 -457 -195 -40 -30
-75 -53 -78 -50 -3 2 -4 1 -1 -2 2 -4 -23 -36 -57 -73 -76 -82 -137 -175 -188
-286 -21 -47 -44 -85 -51 -85 -7 0 -9 -10 -6 -26 2 -15 -1 -52 -8 -83 -60
-261 -18 -526 123 -770 193 -333 553 -529 931 -508 400 23 750 280 901 662 20
52 41 92 45 87 5 -4 5 -2 1 5 -4 7 1 52 10 100 21 115 14 344 -14 449 -50 184
-160 372 -294 500 -46 43 -82 82 -81 85 1 3 -4 6 -11 6 -7 0 -32 13 -57 30
-104 71 -256 130 -394 152 -76 12 -369 21 -320 10z m380 -160 c175 -44 358
-159 465 -294 147 -185 219 -401 207 -625 -13 -243 -96 -434 -266 -613 -61
-64 -138 -120 -152 -111 -8 5 -9 3 -4 -6 6 -10 4 -12 -9 -7 -9 4 -15 3 -12 -2
16 -25 -209 -116 -263 -107 -28 4 -32 3 -16 -4 16 -8 13 -9 -17 -7 -20 2 -34
-1 -32 -5 9 -14 -224 -9 -301 7 -288 60 -514 246 -638 528 -106 239 -101 510
14 763 126 278 403 474 708 502 90 8 246 -1 316 -19z"/>
<path d="M2672 9323 c-18 -9 -44 -35 -58 -58 l-25 -43 3 -508 3 -509 23 -33
c50 -69 52 -70 482 -67 212 2 390 3 397 4 22 2 86 65 99 98 22 50 20 709 -1
760 -9 21 -70 93 -141 164 -68 70 -123 132 -122 137 2 6 0 10 -5 11 -4 0 -26
14 -49 31 l-41 30 -266 0 c-225 0 -271 -3 -299 -17z m465 -228 c2 -125 9 -147
56 -175 27 -17 51 -20 160 -20 l127 0 0 -324 c0 -247 -3 -326 -12 -333 -15
-11 -719 -10 -737 1 -12 8 -17 947 -4 959 3 4 97 7 207 7 l201 0 2 -115z m198
-15 l69 -70 -72 0 -72 0 0 70 c0 39 1 70 3 70 1 0 34 -31 72 -70z"/>
<path d="M3098 9193 c7 -3 16 -2 19 1 4 3 -2 6 -13 5 -11 0 -14 -3 -6 -6z"/>
<path d="M3255 8880 l20 -9 -20 -2 c-11 -2 -109 -3 -218 -3 l-199 -1 -20 -25
c-14 -17 -18 -33 -14 -53 4 -17 2 -26 -4 -22 -6 3 -10 18 -11 33 0 24 -1 25
-9 7 -11 -26 -12 -45 -2 -44 4 1 9 0 12 -1 30 -11 81 -14 307 -17 253 -4 263
-3 283 17 11 11 23 20 26 19 3 0 9 3 12 7 4 4 1 4 -5 0 -9 -5 -13 -1 -13 11 0
33 -29 63 -60 63 -16 0 -32 5 -36 12 -5 8 5 9 34 5 24 -3 40 -1 36 4 -3 5 -35
9 -72 8 -47 0 -61 -3 -47 -9z"/>
<path d="M3430 8883 c8 -3 21 -10 28 -16 8 -7 12 -5 12 7 0 11 -8 16 -27 15
-16 0 -22 -3 -13 -6z"/>
<path d="M2731 8784 c0 -11 3 -14 6 -6 3 7 2 16 -1 19 -3 4 -6 -2 -5 -13z"/>
<path d="M3115 8680 c-3 -5 3 -10 14 -10 12 0 21 5 21 10 0 6 -6 10 -14 10 -8
0 -18 -4 -21 -10z"/>
<path d="M2837 8645 c-12 -6 -26 -23 -31 -38 -8 -23 -6 -31 12 -50 22 -22 27
-22 280 -22 251 0 257 0 280 22 29 29 28 48 -3 79 l-25 25 -246 -2 c-149 -2
-254 -7 -267 -14z"/>
<path d="M2820 8430 c-24 -24 -25 -48 -4 -78 15 -22 18 -22 280 -22 251 0 265
1 284 20 11 11 20 29 20 40 0 11 -9 29 -20 40 -19 19 -33 20 -280 20 -247 0
-261 -1 -280 -20z"/>
<path d="M3270 9114 c0 -8 5 -12 10 -9 6 4 8 11 5 16 -9 14 -15 11 -15 -7z"/>
<path d="M2573 8925 c0 -38 2 -53 4 -32 2 20 2 52 0 70 -2 17 -4 1 -4 -38z"/>
<path d="M3622 8680 c0 -14 2 -19 5 -12 2 6 2 18 0 25 -3 6 -5 1 -5 -13z"/>
<path d="M3623 8465 c0 -22 2 -30 4 -17 2 12 2 30 0 40 -3 9 -5 -1 -4 -23z"/>
<path d="M6112 9725 c-41 -8 -103 -24 -138 -35 -35 -12 -69 -18 -75 -14 -7 4
-9 3 -6 -3 4 -6 -13 -19 -36 -29 -115 -51 -295 -200 -386 -319 l-23 -30 22 40
c21 38 21 39 1 15 -19 -24 -25 -36 -22 -52 0 -4 -14 -33 -33 -65 -121 -209
-169 -451 -132 -672 10 -57 29 -137 42 -178 13 -41 21 -80 18 -86 -4 -7 -4 -9
1 -5 10 10 107 -161 98 -175 -3 -5 -1 -7 4 -4 6 4 29 -17 52 -46 130 -170 334
-304 540 -357 269 -68 561 -16 794 144 39 27 73 43 82 40 8 -4 15 -1 15 6 0 6
-6 8 -12 4 -7 -4 17 24 53 62 36 38 83 92 104 119 51 66 59 74 52 52 -4 -11
-3 -16 4 -12 6 4 8 14 5 22 -3 8 5 33 19 57 97 166 150 425 126 615 -31 240
-116 426 -273 595 -42 46 -74 87 -70 91 4 5 2 5 -4 2 -6 -4 -35 12 -65 34 -30
22 -67 47 -82 55 -16 9 -25 20 -21 26 4 6 3 8 -3 5 -6 -4 -44 8 -84 27 -159
72 -403 103 -567 71z m393 -150 c118 -33 334 -152 319 -177 -3 -4 0 -7 7 -6 7
2 13 -4 14 -12 0 -8 7 -15 15 -15 18 0 114 -101 107 -112 -8 -12 10 -38 24
-38 17 0 90 -136 85 -158 -2 -9 0 -15 4 -12 5 3 21 -32 36 -77 26 -77 28 -95
29 -248 0 -141 -3 -176 -22 -241 -24 -83 -81 -212 -107 -244 -17 -19 -17 -19
-6 5 l12 25 -25 -26 c-13 -14 -28 -36 -32 -50 l-8 -24 23 25 c12 14 8 4 -10
-21 -17 -25 -59 -72 -92 -105 -34 -32 -55 -50 -47 -39 12 17 10 16 -18 -4 -18
-12 -33 -25 -33 -28 0 -3 8 0 18 8 12 9 11 6 -3 -9 -35 -37 -137 -93 -158 -86
-12 4 -17 2 -13 -4 13 -21 -177 -78 -224 -67 -19 4 -21 3 -10 -5 24 -16 -204
-12 -285 5 -94 20 -186 55 -178 68 3 6 1 7 -5 3 -15 -9 -117 45 -163 87 -19
17 -26 25 -15 17 21 -15 21 -15 2 8 -11 12 -21 20 -24 17 -16 -16 -160 144
-147 164 3 5 0 13 -6 17 -8 4 -9 3 -5 -4 4 -7 5 -12 2 -12 -12 0 -77 122 -72
136 3 8 2 12 -3 9 -12 -7 -24 31 -15 46 4 7 3 9 -4 5 -11 -7 -36 66 -53 162
-16 86 -6 292 20 387 24 92 110 271 128 268 7 -2 10 3 7 11 -3 8 0 17 7 22 8
5 10 3 4 -6 -5 -9 -4 -11 4 -6 6 4 9 12 6 17 -9 13 66 98 138 156 111 91 215
140 367 174 104 23 309 20 405 -6z m483 -350 c-3 -3 -9 2 -12 12 -6 14 -5 15
5 6 7 -7 10 -15 7 -18z"/>
<path d="M5730 9395 c-7 -9 -8 -15 -2 -15 5 0 12 7 16 15 3 8 4 15 2 15 -2 0
-9 -7 -16 -15z"/>
<path d="M6163 9358 c-23 -11 -53 -64 -53 -92 0 -9 -8 -16 -17 -16 -14 0 -15
-2 -4 -9 10 -6 5 -12 -18 -24 -30 -15 -33 -15 -80 14 -64 40 -83 34 -170 -56
-99 -101 -105 -124 -53 -192 22 -29 23 -35 11 -68 -11 -31 -19 -36 -54 -42
-24 -4 -51 -17 -67 -34 -27 -27 -28 -31 -28 -137 0 -110 0 -110 30 -135 16
-14 47 -28 68 -32 32 -5 40 -12 51 -41 12 -32 11 -38 -13 -69 -15 -19 -29 -48
-33 -65 -5 -29 1 -38 79 -116 96 -96 120 -103 187 -58 36 24 41 24 72 11 28
-12 34 -20 36 -48 3 -41 18 -71 44 -87 27 -17 197 -27 231 -13 33 12 68 65 68
102 0 19 9 29 36 43 36 17 37 17 73 -9 22 -15 51 -25 72 -25 30 0 44 10 117
86 45 48 82 96 82 106 0 24 -16 56 -42 85 -18 19 -19 23 -4 50 8 15 15 21 16
13 0 -11 3 -11 12 -2 10 10 10 15 -1 21 -9 6 -1 11 26 15 21 4 50 19 66 34 26
25 27 29 27 135 0 105 -1 109 -28 136 -16 17 -43 30 -67 34 -35 6 -43 11 -54
42 -12 34 -11 37 18 71 50 56 43 77 -52 179 -75 80 -87 89 -119 89 -23 0 -48
-9 -69 -25 -31 -24 -36 -25 -66 -12 -22 9 -35 22 -39 40 -21 98 -46 113 -176
112 -51 0 -103 -5 -115 -11z m182 -157 c4 -28 12 -54 18 -58 7 -5 47 -24 89
-42 83 -35 95 -34 146 12 l23 21 40 -41 c41 -40 41 -41 24 -67 -9 -14 -21 -23
-26 -20 -5 3 -9 2 -8 -3 1 -4 -1 -21 -6 -37 -5 -19 -4 -36 5 -49 10 -17 51
-126 50 -134 -2 -17 3 -23 18 -23 15 0 15 2 2 11 -12 8 -11 9 5 5 11 -2 35 -7
53 -11 31 -6 32 -8 32 -61 0 -50 -2 -54 -27 -60 -59 -12 -73 -24 -99 -81 -39
-90 -41 -107 -9 -153 l28 -40 -41 -44 -41 -44 -41 30 c-39 29 -44 30 -78 19
-20 -7 -62 -24 -92 -39 -52 -25 -56 -30 -64 -74 l-9 -48 -59 0 c-40 0 -58 4
-58 13 0 6 -5 29 -10 49 -10 34 -18 41 -87 73 -42 19 -83 35 -92 35 -10 0 -36
-14 -58 -30 l-41 -30 -36 42 c-39 46 -40 35 10 113 16 24 15 29 -9 83 -14 31
-28 67 -32 79 -5 17 -20 27 -61 39 l-54 15 0 54 c0 51 1 54 30 60 16 4 40 4
52 0 18 -5 20 -4 8 4 -13 10 -13 11 0 12 8 1 18 1 23 0 4 0 6 2 6 6 -1 5 -1
17 0 28 1 17 3 18 12 5 8 -12 9 -10 4 7 -4 13 2 41 14 69 27 60 27 63 -10 114
l-31 43 38 38 39 38 45 -30 c24 -17 51 -28 60 -25 8 3 45 17 82 32 70 29 79
40 93 112 7 32 7 32 65 32 l58 0 7 -49z"/>
<path d="M5894 9078 l-19 -23 23 19 c12 11 22 21 22 23 0 8 -8 2 -26 -19z"/>
<path d="M6660 9045 c12 -15 30 -12 30 6 0 5 -10 9 -21 9 -18 0 -19 -2 -9 -15z"/>
<path d="M6163 8969 c-55 -27 -116 -89 -142 -143 -32 -65 -29 -185 5 -254 23
-47 111 -132 136 -132 5 0 7 -3 5 -7 -6 -10 38 -13 210 -11 13 0 21 3 18 8 -2
4 7 13 21 21 35 18 124 117 124 136 0 9 6 13 15 9 9 -3 15 0 15 10 0 8 -4 13
-9 10 -5 -3 -5 14 0 39 23 125 -50 259 -171 314 -63 29 -170 28 -227 0z m151
-121 c-5 -8 -2 -9 10 -5 9 4 30 0 46 -8 72 -37 89 -172 31 -239 -45 -51 -129
-63 -198 -27 -53 27 -75 59 -81 119 -5 52 20 128 38 117 6 -4 9 -1 8 6 -2 8
13 21 32 31 40 21 126 25 114 6z"/>
<path d="M6230 8190 c0 -5 5 -10 11 -10 5 0 7 5 4 10 -3 6 -8 10 -11 10 -2 0
-4 -4 -4 -10z"/>
<path d="M6310 8190 c0 -5 5 -10 11 -10 5 0 7 5 4 10 -3 6 -8 10 -11 10 -2 0
-4 -4 -4 -10z"/>
<path d="M5752 8918 c-14 -14 -16 -28 -3 -28 9 0 24 30 18 36 -2 2 -9 -2 -15
-8z"/>
<path d="M7132 8770 c0 -14 2 -19 5 -12 2 6 2 18 0 25 -3 6 -5 1 -5 -13z"/>
<path d="M5423 8635 c0 -22 2 -30 4 -17 2 12 2 30 0 40 -3 9 -5 -1 -4 -23z"/>
<path d="M7131 8614 c0 -11 3 -14 6 -6 3 7 2 16 -1 19 -3 4 -6 -2 -5 -13z"/>
<path d="M6193 7833 c15 -2 37 -2 50 0 12 2 0 4 -28 4 -27 0 -38 -2 -22 -4z"/>
<path d="M9445 9674 c-79 -12 -186 -39 -240 -60 -33 -14 -66 -22 -74 -19 -9 3
-12 3 -8 -1 3 -4 -23 -24 -59 -45 -35 -21 -76 -47 -91 -58 -14 -12 -29 -18
-34 -15 -5 3 -8 2 -7 -3 2 -5 -14 -24 -34 -42 -21 -18 -38 -30 -38 -25 0 4 -9
-1 -20 -11 -10 -9 -18 -20 -17 -24 4 -13 -47 -70 -57 -64 -6 3 -8 3 -4 -2 4
-4 -11 -34 -33 -67 -58 -84 -125 -230 -150 -323 -17 -62 -23 -117 -26 -245 -4
-151 -2 -173 21 -263 90 -352 334 -626 655 -736 118 -40 188 -52 321 -52 210
0 379 50 551 163 424 279 586 853 366 1306 -51 106 -135 228 -201 291 -19 19
-33 38 -30 43 3 5 1 7 -4 6 -5 -2 -45 23 -88 54 -122 87 -238 140 -379 173
-62 15 -267 27 -320 19z m248 -145 c185 -29 337 -109 482 -254 85 -85 108
-115 153 -202 98 -188 128 -400 87 -603 -21 -102 -52 -190 -67 -187 -6 1 -13
-4 -16 -12 -3 -9 0 -11 7 -6 21 12 -49 -117 -95 -176 -64 -84 -209 -211 -178
-156 4 7 3 9 -2 4 -5 -5 -9 -14 -9 -20 0 -18 -136 -92 -224 -121 -44 -14 -105
-28 -138 -30 -38 -3 -46 -3 -23 2 22 5 -10 8 -87 8 -68 1 -120 -2 -117 -7 10
-17 -64 -9 -150 16 -129 37 -293 125 -279 149 3 6 3 8 -2 4 -14 -13 -44 12
-125 105 -91 104 -153 216 -197 352 -26 83 -28 102 -28 250 0 145 3 168 28
250 103 341 349 569 682 630 90 16 207 18 298 4z m-833 -133 c0 -2 -8 -10 -17
-17 -16 -13 -17 -12 -4 4 13 16 21 21 21 13z m723 -1643 c-18 -2 -48 -2 -65 0
-18 2 -4 4 32 4 36 0 50 -2 33 -4z"/>
<path d="M9715 9115 l-25 -24 0 -427 c0 -235 -2 -425 -5 -422 -3 3 -6 132 -5
287 0 177 -4 281 -10 281 -6 0 -9 -104 -9 -281 0 -155 -2 -284 -5 -287 -3 -3
-6 124 -6 282 l0 288 -29 29 c-29 29 -30 29 -156 29 -123 0 -126 -1 -150 -26
l-25 -27 0 -289 c0 -159 -3 -287 -8 -284 -4 2 -34 6 -67 7 l-60 3 -5 169 -5
170 -27 20 -28 21 -27 -21 -28 -20 -5 -179 c-3 -98 -7 -166 -8 -151 -1 17 -6
26 -13 21 -6 -3 -9 -15 -6 -25 3 -12 -2 -20 -15 -25 -23 -7 -41 -49 -33 -75 4
-11 15 -24 26 -30 13 -7 203 -10 577 -10 555 1 557 1 575 22 9 12 17 29 17 38
0 26 -29 61 -51 61 -10 0 -18 3 -18 8 1 4 0 16 -1 27 -2 15 -4 12 -10 -10 -4
-16 -8 163 -9 398 l-1 428 -25 24 c-23 24 -29 25 -160 25 -131 0 -137 -1 -160
-25z m225 -479 l0 -384 -47 -6 c-92 -10 -83 -52 -83 386 l0 388 65 0 65 0 0
-384z m-411 -143 c-1 -145 -5 -247 -9 -233 -5 17 -8 19 -9 8 -1 -10 -7 -18
-13 -18 -7 0 -30 -3 -50 -6 l-38 -7 0 251 0 251 58 4 c31 2 58 4 60 5 1 1 2
-114 1 -255z"/>
<path d="M9820 9002 c0 -4 16 -6 35 -4 19 2 41 -1 49 -7 7 -6 16 -8 19 -4 17
16 3 23 -48 23 -30 0 -55 -4 -55 -8z"/>
<path d="M9822 8710 c0 -19 2 -27 5 -17 2 9 2 25 0 35 -3 9 -5 1 -5 -18z"/>
<path d="M9420 8719 c0 -5 5 -7 10 -4 6 3 10 8 10 11 0 2 -4 4 -10 4 -5 0 -10
-5 -10 -11z"/>
<path d="M9423 8445 c0 -22 2 -30 4 -17 2 12 2 30 0 40 -3 9 -5 -1 -4 -23z"/>
<path d="M9420 8264 c0 -8 5 -12 10 -9 6 4 8 11 5 16 -9 14 -15 11 -15 -7z"/>
<path d="M10071 8964 c0 -11 3 -14 6 -6 3 7 2 16 -1 19 -3 4 -6 -2 -5 -13z"/>
<path d="M9271 8664 c0 -11 3 -14 6 -6 3 7 2 16 -1 19 -3 4 -6 -2 -5 -13z"/>
<path d="M9012 8540 c0 -14 2 -19 5 -12 2 6 2 18 0 25 -3 6 -5 1 -5 -13z"/>
<path d="M9210 7830 c8 -5 20 -10 25 -10 6 0 3 5 -5 10 -8 5 -19 10 -25 10 -5
0 -3 -5 5 -10z"/>
<path d="M5307 9053 c-4 -3 -7 -13 -7 -22 1 -13 3 -13 11 2 11 19 8 33 -4 20z"/>
<path d="M7281 8514 c0 -11 3 -14 6 -6 3 7 2 16 -1 19 -3 4 -6 -2 -5 -13z"/>
<path d="M3031 7464 c-12 -15 -21 -32 -21 -39 0 -23 41 -65 64 -65 37 0 66 28
66 64 0 64 -70 90 -109 40z"/>
<path d="M6255 7478 c-28 -16 -35 -28 -35 -64 0 -37 26 -64 62 -64 58 0 80 81
32 119 -31 24 -32 24 -59 9z"/>
<path d="M9510 7430 c-58 -58 20 -142 88 -94 28 19 30 74 4 97 -25 23 -68 21
-92 -3z"/>
<path d="M3030 7193 c-36 -46 -8 -103 50 -103 55 0 80 70 40 110 -28 28 -64
25 -90 -7z"/>
<path d="M6255 7210 c-4 -6 7 -10 27 -10 25 0 29 3 18 10 -19 13 -37 13 -45 0z"/>
<path d="M6236 7174 c-40 -40 -11 -114 45 -114 28 0 69 39 69 65 0 7 -9 24
-21 39 -24 30 -69 35 -93 10z"/>
<path d="M9516 7157 c-33 -33 -33 -61 -1 -92 30 -30 45 -31 79 -4 23 18 26 28
24 63 -2 24 -7 43 -13 44 -5 1 -22 4 -37 8 -21 5 -33 0 -52 -19z"/>
<path d="M3040 6942 c-42 -34 -17 -112 34 -112 63 0 89 71 40 109 -33 26 -45
26 -74 3z"/>
<path d="M6234 6884 c-20 -19 -24 -31 -19 -52 16 -66 79 -82 118 -30 18 24 18
30 7 58 -23 55 -66 65 -106 24z"/>
<path d="M9533 6900 c-46 -18 -56 -74 -20 -108 44 -41 107 -16 107 41 0 38 -7
50 -37 66 -25 13 -21 12 -50 1z"/>
<path d="M3053 6710 c-23 -9 -43 -39 -43 -63 0 -27 35 -59 63 -59 64 0 90 73
41 111 -30 23 -30 23 -61 11z"/>
<path d="M6260 6623 c-45 -16 -56 -92 -17 -118 19 -12 93 -18 81 -6 -2 2 3 12
10 23 18 25 9 64 -22 88 -26 21 -28 22 -52 13z"/>
<path d="M9515 6605 c-31 -30 -32 -65 -1 -94 17 -16 32 -21 59 -18 36 4 67 22
67 39 0 6 -8 2 -17 -9 -10 -10 -15 -14 -10 -9 15 21 7 73 -16 94 -30 28 -52
28 -82 -3z"/>
<path d="M10935 6500 c-61 -10 -191 -53 -248 -81 -96 -49 -235 -166 -289 -246
-23 -34 -35 -42 -70 -47 -66 -9 -288 -6 -307 3 -9 5 -45 6 -80 2 l-63 -8 4 63
c2 34 1 61 -1 58 -3 -2 -15 14 -28 35 -41 69 -82 81 -269 81 -182 0 -218 -7
-261 -52 -39 -40 -53 -75 -54 -136 -1 -36 -3 -41 -8 -22 -6 21 -9 23 -17 9
-14 -24 -62 -31 -259 -35 -139 -3 -196 -9 -253 -24 -71 -20 -191 -74 -243
-111 -14 -10 -29 -16 -33 -14 -3 3 -4 2 -1 -1 2 -4 -18 -25 -46 -48 -28 -22
-77 -76 -109 -118 -32 -42 -61 -74 -66 -70 -4 4 -4 2 0 -5 4 -7 -9 -44 -29
-83 -19 -38 -47 -116 -60 -173 -24 -98 -25 -114 -25 -439 0 -318 -1 -340 -21
-394 -28 -74 -88 -135 -159 -162 -54 -19 -75 -20 -693 -19 l-637 1 -1 23 c-4
77 -3 120 4 116 4 -2 7 3 7 12 0 9 -5 15 -12 13 -6 -2 -25 11 -41 29 -52 60
-67 63 -267 63 -148 0 -188 -3 -217 -16 -46 -22 -83 -78 -84 -129 -1 -38 -15
-101 -18 -80 -1 6 -8 1 -17 -10 -14 -19 -28 -20 -476 -23 -443 -2 -465 -1
-524 18 -79 27 -132 72 -175 152 l-34 63 -6 320 c-8 402 -18 447 -149 640 -54
78 -84 108 -185 185 -39 29 -69 57 -68 61 2 5 -5 5 -14 2 -11 -4 -14 -3 -9 5
5 8 1 10 -10 5 -11 -4 -15 -2 -11 4 4 6 1 10 -6 10 -6 -1 -50 12 -97 28 l-85
29 -377 4 -378 3 0 34 c0 45 -16 84 -48 119 -47 50 -75 56 -265 56 -162 0
-177 -2 -217 -23 -52 -27 -90 -90 -90 -149 l0 -38 -262 2 -261 3 -33 60 c-18
33 -45 74 -60 90 -63 70 -156 165 -162 165 -4 0 -32 15 -62 33 -101 60 -193
95 -300 112 -227 38 -415 -7 -625 -149 -33 -22 -64 -39 -68 -38 -5 1 -6 -1 -3
-6 3 -5 -15 -29 -40 -53 -56 -54 -134 -166 -164 -236 -12 -29 -26 -50 -30 -48
-5 3 -12 0 -16 -6 -5 -8 -3 -9 6 -4 10 6 12 2 6 -16 -48 -167 -58 -321 -29
-456 9 -43 16 -93 16 -111 0 -18 4 -27 7 -21 5 6 12 -3 19 -22 6 -18 9 -35 6
-37 -3 -3 -5 1 -5 8 0 7 -2 11 -5 8 -10 -9 7 -38 18 -31 7 4 8 0 3 -13 -4 -10
-4 -15 0 -11 10 9 86 -111 78 -124 -3 -5 0 -8 8 -7 7 2 13 -5 13 -14 0 -10 6
-23 13 -30 6 -6 12 -8 12 -3 0 5 25 -15 55 -45 30 -29 51 -58 48 -63 -3 -6 -1
-7 5 -3 13 8 74 -33 66 -45 -2 -4 1 -11 7 -15 8 -5 9 -3 4 6 -5 8 -3 11 6 8 8
-3 13 -10 12 -15 -1 -5 6 -9 15 -10 9 0 54 -17 99 -37 145 -65 340 -84 501
-49 42 9 91 17 107 16 17 0 24 2 17 4 -7 3 18 20 55 37 37 18 98 54 136 80 37
25 69 46 72 46 3 0 6 3 6 8 1 4 24 32 52 62 27 30 66 79 86 109 19 29 37 48
39 43 4 -12 32 -4 32 8 0 5 -8 11 -17 13 -10 3 102 5 250 6 l267 1 0 -25 c0
-31 24 -92 48 -120 17 -20 17 -20 -5 -2 -11 10 -27 32 -33 48 -7 16 -15 28
-17 26 -14 -15 44 -90 72 -92 5 -1 23 -6 38 -13 45 -19 378 -16 425 4 20 8 39
15 42 15 3 -1 5 2 6 7 0 4 10 27 22 52 12 25 22 59 23 75 1 29 1 30 9 5 4 -14
8 -19 9 -11 1 9 9 11 26 7 14 -4 31 -3 38 1 7 5 -4 10 -28 14 -22 3 35 7 127
8 92 0 189 -4 217 -10 94 -20 189 -102 194 -167 1 -16 5 -28 9 -26 11 7 31
-96 26 -134 -3 -21 -2 -129 2 -242 7 -177 11 -216 33 -286 61 -196 174 -358
328 -469 44 -32 79 -63 79 -71 0 -8 5 -14 11 -14 5 0 8 4 4 9 -3 5 34 -6 82
-26 153 -62 157 -62 841 -65 343 -2 626 -6 628 -9 2 -4 5 -27 6 -52 2 -25 6
-43 9 -41 3 2 17 -8 30 -23 43 -47 75 -53 259 -53 121 0 180 4 203 14 44 18
85 68 98 121 l11 43 758 0 c855 1 832 0 997 77 252 118 425 342 482 622 18 89
21 137 21 396 l0 295 33 63 c23 45 45 71 80 95 62 43 103 54 203 54 l81 0 12
-39 c15 -50 61 -97 109 -111 49 -13 343 -13 379 1 43 16 92 69 104 111 l10 38
203 0 202 0 18 -37 c32 -67 103 -167 160 -223 30 -30 52 -58 50 -62 -3 -5 0
-7 8 -6 7 2 12 -3 10 -10 -1 -8 2 -11 7 -8 12 8 142 -79 133 -89 -4 -5 -1 -5
5 -1 7 4 33 -2 57 -13 25 -11 85 -29 133 -41 76 -20 106 -22 228 -17 91 3 159
11 195 22 102 31 233 102 307 164 40 34 76 61 80 61 5 0 8 4 8 9 0 5 22 39 48
75 46 63 127 220 127 247 0 11 3 11 11 -1 8 -12 9 -11 5 5 -3 11 1 52 9 90 19
90 19 264 0 353 -8 38 -26 100 -40 137 -13 37 -22 72 -18 78 4 6 1 7 -7 2 -10
-6 -12 -4 -7 9 4 9 3 15 -2 12 -5 -3 -25 21 -45 54 -21 34 -61 86 -91 118 -29
31 -53 60 -54 65 0 4 -2 6 -3 5 -2 -2 -32 18 -68 44 -146 104 -285 153 -456
161 -60 3 -131 2 -159 -3z m309 -155 c238 -63 430 -260 502 -515 25 -89 25
-269 0 -365 -39 -151 -127 -293 -235 -382 -112 -92 -309 -163 -451 -163 -154
0 -361 80 -477 185 -64 57 -147 170 -137 186 3 5 1 9 -4 9 -16 0 -59 111 -76
194 -19 92 -21 181 -5 170 7 -4 9 10 4 48 -23 182 158 466 363 571 76 39 158
66 242 81 47 9 215 -3 274 -19z m-9574 -44 c86 -28 176 -75 172 -90 -1 -7 2
-10 7 -7 23 15 146 -105 215 -208 44 -66 79 -157 70 -181 -5 -12 -4 -16 3 -12
37 23 50 -269 18 -383 -26 -92 -53 -152 -65 -145 -5 3 -7 0 -4 -9 9 -24 -58
-116 -141 -194 -134 -125 -289 -185 -480 -184 -253 1 -461 112 -596 318 -78
118 -128 317 -114 454 33 333 247 582 565 656 82 20 269 11 350 -15z m7754
-96 c-4 -8 -1 -15 5 -15 6 0 11 7 11 15 0 13 21 15 148 13 l147 -3 5 -275 c3
-151 3 -360 0 -465 l-5 -190 -157 -3 c-142 -2 -158 -1 -166 15 -13 24 -13 882
0 906 11 21 20 23 12 2z m-6209 -600 l0 -450 -167 -3 -168 -2 0 448 c0 247 3
452 7 456 4 3 79 5 167 4 l161 -3 0 -450z m6055 109 l0 -274 -92 0 c-112 0
-203 -28 -278 -86 -50 -38 -121 -129 -134 -172 -4 -12 -10 -20 -14 -18 -10 6
-11 -18 -21 -399 -4 -192 -9 -352 -10 -355 -1 -3 -7 4 -12 15 -7 16 -8 14 -5
-12 5 -32 -22 -131 -51 -186 -12 -23 -17 -26 -29 -16 -11 9 -14 7 -14 -10 0
-14 4 -20 11 -15 16 9 -19 -49 -55 -92 -22 -28 -31 -32 -42 -23 -11 9 -14 8
-14 -5 0 -26 -1 -30 -12 -43 -6 -7 -14 -11 -18 -8 -5 3 -12 0 -16 -6 -5 -8 -2
-10 7 -5 8 4 -2 -6 -21 -23 -50 -44 -195 -115 -235 -115 -19 0 -32 -3 -29 -7
11 -18 -115 -22 -818 -26 l-758 -4 0 23 c0 13 -3 70 -5 128 -3 58 -2 158 1
222 l7 117 651 3 c610 3 654 5 701 22 28 11 61 26 75 35 25 15 152 131 144
131 -2 0 2 10 11 23 8 13 25 50 37 83 20 56 22 81 28 439 6 361 7 384 29 450
58 178 178 325 327 402 134 70 195 80 467 81 l187 0 0 -274z m629 258 c1 15
21 16 196 17 107 0 195 -2 195 -5 0 -2 -9 -23 -19 -47 -38 -83 -64 -276 -50
-363 11 -68 11 -116 0 -109 -5 3 -12 1 -15 -4 -4 -5 4 -12 16 -14 13 -2 -59
-5 -159 -6 l-183 -1 1 278 c0 164 4 269 9 257 7 -16 9 -17 9 -3z m-7159 -377
l0 -255 -42 -1 c-152 -5 -428 -3 -428 4 0 4 9 40 20 79 24 88 27 253 5 343 -8
33 -15 66 -15 73 0 9 53 12 230 12 l230 0 0 -255z m1406 230 c42 -14 94 -35
117 -46 63 -32 177 -127 171 -143 -3 -7 3 -19 13 -27 17 -13 17 -12 4 6 -7 11
2 3 22 -18 50 -54 111 -178 102 -208 -4 -15 -3 -19 3 -11 21 31 35 -99 42
-403 7 -322 11 -354 56 -423 8 -12 12 -27 9 -32 -3 -5 0 -12 6 -16 8 -5 9 -3
4 6 -5 9 -4 11 4 6 6 -4 10 -13 9 -20 -2 -6 0 -13 4 -14 5 -1 36 -25 70 -52
77 -62 149 -90 253 -100 44 -4 276 -6 516 -5 l436 3 6 -133 c3 -73 3 -181 0
-240 -6 -105 -6 -106 -30 -101 -12 4 -23 2 -23 -3 0 -5 12 -12 28 -14 15 -3
-256 -4 -603 -2 -673 2 -658 1 -795 55 -73 30 -218 126 -206 137 8 9 -14 34
-25 28 -9 -6 -89 91 -89 108 0 6 -8 19 -17 30 -10 11 -12 17 -5 13 6 -4 12 -3
12 2 0 5 -8 12 -19 15 -12 3 -28 30 -46 78 -48 123 -54 176 -55 424 0 250 -7
294 -56 386 -16 30 -51 77 -79 104 -27 28 -48 54 -47 58 1 5 -2 6 -7 2 -6 -3
-21 1 -34 10 -60 39 -126 49 -334 49 l-203 1 0 258 0 257 356 0 c353 0 356 0
430 -25z m2322 -1702 l-3 -458 -165 0 -165 0 -3 445 c-1 245 0 451 3 458 3 9
47 12 170 12 l165 0 -2 -457z"/>
<path d="M11146 5989 c-41 -32 -34 -62 31 -132 88 -95 121 -134 95 -112 -20
16 -22 17 -16 2 5 -15 -2 -17 -52 -19 -53 -2 -50 -2 26 -8 49 -4 -59 -7 -250
-8 -374 -2 -380 -3 -380 -65 1 -75 9 -77 380 -77 l321 0 -47 -55 c-26 -30 -50
-52 -54 -50 -8 5 -28 -15 -29 -28 0 -4 -12 -22 -26 -41 -30 -40 -32 -69 -5
-96 37 -37 67 -26 135 48 223 243 244 268 245 292 0 17 -21 48 -66 97 -36 40
-62 77 -59 83 4 6 1 9 -7 8 -7 -2 -12 3 -10 10 1 8 -2 11 -7 8 -11 -7 -33 19
-23 28 4 4 2 6 -4 4 -6 -1 -40 27 -75 65 -35 37 -71 67 -80 67 -9 0 -28 -9
-43 -21z"/>
<path d="M11102 5940 c0 -14 2 -19 5 -12 2 6 2 18 0 25 -3 6 -5 1 -5 -13z"/>
<path d="M10777 5723 c18 -2 50 -2 70 0 21 2 7 4 -32 4 -38 0 -55 -2 -38 -4z"/>
<path d="M11053 5553 c26 -2 67 -2 90 0 23 2 2 3 -48 3 -49 0 -68 -1 -42 -3z"/>
<path d="M11253 5545 c0 -11 4 -12 14 -4 7 6 13 13 13 15 0 2 -6 4 -13 4 -8 0
-14 -7 -14 -15z"/>
<path d="M11742 5540 c0 -14 2 -19 5 -12 2 6 2 18 0 25 -3 6 -5 1 -5 -13z"/>
<path d="M11727 5486 c-4 -10 -5 -21 -2 -24 9 -9 17 6 13 25 -3 17 -4 17 -11
-1z"/>
<path d="M11620 5228 c-12 -22 -12 -22 6 -6 10 10 15 20 12 24 -4 3 -12 -5
-18 -18z"/>
<path d="M11148 4943 c6 -2 18 -2 25 0 6 3 1 5 -13 5 -14 0 -19 -2 -12 -5z"/>
<path d="M1580 5963 c-59 -22 -64 -70 -15 -125 21 -22 33 -44 29 -51 -4 -7 -3
-9 1 -4 8 7 95 -70 95 -84 0 -4 -6 -9 -12 -12 -7 -2 -5 -3 4 -2 10 2 21 -1 24
-6 3 -5 -131 -9 -326 -9 l-331 0 -24 -25 c-32 -31 -32 -59 0 -90 l24 -25 332
0 332 0 -35 -42 c-33 -40 -71 -67 -53 -38 6 9 4 11 -4 6 -7 -5 -10 -14 -8 -21
3 -7 -15 -35 -39 -63 -27 -31 -44 -60 -44 -75 0 -27 41 -67 68 -67 9 0 41 26
71 58 30 31 59 56 65 54 6 -2 8 0 4 3 -10 10 62 96 73 89 5 -3 8 0 7 8 -2 7 4
12 12 10 8 -2 12 0 8 4 -4 4 15 33 42 64 28 32 50 67 50 79 0 11 -16 38 -35
59 -19 22 -31 43 -27 47 4 5 2 5 -4 2 -11 -6 -25 13 -29 38 0 6 -6 9 -12 8
-12 -3 -98 92 -98 108 0 4 -7 14 -15 21 -12 11 -12 10 0 -7 8 -11 -10 6 -40
38 -56 57 -62 60 -90 50z"/>
<path d="M1590 5760 c0 -5 5 -10 10 -10 6 0 10 5 10 10 0 6 -4 10 -10 10 -5 0
-10 -4 -10 -10z"/>
<path d="M1618 5513 c6 -2 18 -2 25 0 6 3 1 5 -13 5 -14 0 -19 -2 -12 -5z"/>
<path d="M1665 5510 c4 -6 11 -8 16 -5 14 9 11 15 -7 15 -8 0 -12 -5 -9 -10z"/>
<path d="M2060 5244 c0 -8 5 -12 10 -9 6 3 10 10 10 16 0 5 -4 9 -10 9 -5 0
-10 -7 -10 -16z"/>
<path d="M9710 6200 c0 -5 5 -10 10 -10 6 0 10 5 10 10 0 6 -4 10 -10 10 -5 0
-10 -4 -10 -10z"/>
<path d="M9420 5939 c0 -11 4 -18 10 -14 5 3 7 12 3 20 -7 21 -13 19 -13 -6z"/>
<path d="M9422 5560 c0 -19 2 -27 5 -17 2 9 2 25 0 35 -3 9 -5 1 -5 -18z"/>
<path d="M3202 5700 c0 -14 2 -19 5 -12 2 6 2 18 0 25 -3 6 -5 1 -5 -13z"/>
<path d="M3200 5181 c0 -5 -8 -12 -17 -14 -14 -4 -12 -5 5 -6 13 -1 22 5 22
14 0 8 -2 15 -5 15 -3 0 -5 -4 -5 -9z"/>
<path d="M9250 5471 c0 -5 -10 -12 -22 -14 -20 -4 -19 -4 5 -6 18 -1 27 4 27
14 0 8 -2 15 -5 15 -3 0 -5 -4 -5 -9z"/>
<path d="M8225 3883 c-18 -14 -18 -15 -2 -9 10 3 23 6 28 6 5 0 9 5 9 10 0 14
-12 12 -35 -7z"/>
<path d="M6968 3843 c7 -3 16 -2 19 1 4 3 -2 6 -13 5 -11 0 -14 -3 -6 -6z"/>
<path d="M10013 5453 c9 -2 25 -2 35 0 9 3 1 5 -18 5 -19 0 -27 -2 -17 -5z"/>
<path d="M2723 5730 c0 -30 2 -43 4 -27 2 15 2 39 0 55 -2 15 -4 2 -4 -28z"/>
<path d="M3371 5824 c0 -11 3 -14 6 -6 3 7 2 16 -1 19 -3 4 -6 -2 -5 -13z"/>
<path d="M3498 5353 c6 -2 18 -2 25 0 6 3 1 5 -13 5 -14 0 -19 -2 -12 -5z"/>
<path d="M4592 5270 c0 -14 2 -19 5 -12 2 6 2 18 0 25 -3 6 -5 1 -5 -13z"/>
<path d="M4604 4835 c0 -66 1 -92 3 -57 2 34 2 88 0 120 -2 31 -3 3 -3 -63z"/>
<path d="M4560 3907 c0 -3 15 -10 32 -16 18 -6 28 -7 23 -2 -12 10 -55 25 -55
18z"/>
<path d="M6453 4470 c0 -25 2 -35 4 -22 2 12 2 32 0 45 -2 12 -4 2 -4 -23z"/>
<path d="M6188 3673 c23 -2 61 -2 85 0 23 2 4 4 -43 4 -47 0 -66 -2 -42 -4z"/>
<path d="M6428 3673 c6 -2 18 -2 25 0 6 3 1 5 -13 5 -14 0 -19 -2 -12 -5z"/>
<path d="M3035 6445 c-14 -13 -25 -33 -25 -45 0 -27 43 -70 70 -70 56 0 80 83
34 119 -34 27 -50 26 -79 -4z"/>
<path d="M6237 6322 c-10 -10 -17 -32 -17 -49 0 -61 71 -85 109 -36 48 60 -41
142 -92 85z"/>
<path d="M6265 6052 c-33 -7 -45 -23 -45 -58 0 -38 29 -74 59 -74 30 0 64 33
64 63 0 44 -39 78 -78 69z"/>
<path d="M6231 5744 c-12 -15 -21 -32 -21 -39 0 -27 41 -65 70 -65 38 0 60 24
60 64 0 64 -70 89 -109 40z"/>
<path d="M603 5600 c0 -30 2 -43 4 -27 2 15 2 39 0 55 -2 15 -4 2 -4 -28z"/>
<path d="M6236 5474 c-22 -21 -20 -77 2 -97 42 -38 102 -8 102 50 0 54 -67 85
-104 47z"/>
<path d="M6268 5343 c6 -2 18 -2 25 0 6 3 1 5 -13 5 -14 0 -19 -2 -12 -5z"/>
<path d="M9903 5283 c9 -2 23 -2 30 0 6 3 -1 5 -18 5 -16 0 -22 -2 -12 -5z"/>
<path d="M10173 5283 c15 -2 39 -2 55 0 15 2 2 4 -28 4 -30 0 -43 -2 -27 -4z"/>
<path d="M6247 5219 c-42 -25 -36 -102 9 -119 29 -11 69 2 78 25 26 69 -28
128 -87 94z"/>
<path d="M2598 5183 c6 -2 18 -2 25 0 6 3 1 5 -13 5 -14 0 -19 -2 -12 -5z"/>
<path d="M3800 5166 c0 -3 9 -10 20 -16 11 -6 20 -8 20 -6 0 3 -9 10 -20 16
-11 6 -20 8 -20 6z"/>
<path d="M9528 5123 c6 -2 18 -2 25 0 6 3 1 5 -13 5 -14 0 -19 -2 -12 -5z"/>
<path d="M3188 4993 c12 -2 30 -2 40 0 9 3 -1 5 -23 4 -22 0 -30 -2 -17 -4z"/>
<path d="M6237 4942 c-25 -27 -22 -78 5 -96 29 -21 51 -20 78 2 44 36 17 112
-40 112 -15 0 -34 -8 -43 -18z"/>
<path d="M11258 4793 c7 -3 16 -2 19 1 4 3 -2 6 -13 5 -11 0 -14 -3 -6 -6z"/>
<path d="M11208 4783 c7 -3 16 -2 19 1 4 3 -2 6 -13 5 -11 0 -14 -3 -6 -6z"/>
<path d="M1200 4770 c8 -5 22 -9 30 -9 10 0 8 3 -5 9 -27 12 -43 12 -25 0z"/>
<path d="M1260 4756 c0 -2 7 -7 16 -10 8 -3 12 -2 9 4 -6 10 -25 14 -25 6z"/>
<path d="M1427 4733 c18 -2 50 -2 70 0 21 2 7 4 -32 4 -38 0 -55 -2 -38 -4z"/>
</g>
</svg>
