<?xml version="1.0" standalone="no"?>
<!DOCTYPE svg PUBLIC "-//W3C//DTD SVG 20010904//EN"
 "http://www.w3.org/TR/2001/REC-SVG-20010904/DTD/svg10.dtd">
<svg version="1.0" xmlns="http://www.w3.org/2000/svg"
 width="1536.000000pt" height="1024.000000pt" viewBox="0 0 1536.000000 1024.000000"
 preserveAspectRatio="xMidYMid meet">
<metadata>
Created by potrace 1.16, written by Peter Selinger 2001-2019
</metadata>
<g transform="translate(0.000000,1024.000000) scale(0.100000,-0.100000)"
fill="#000000" stroke="none">
<path d="M6790 9112 c-73 -39 -70 -10 -70 -747 0 -623 1 -662 19 -695 10 -19
30 -41 44 -48 20 -10 170 -13 684 -12 362 0 666 0 675 0 26 0 77 48 86 83 13
46 -4 241 -28 339 -63 245 -198 492 -361 659 -77 78 -165 159 -174 159 -2 0
-32 20 -67 44 -190 132 -434 215 -678 230 -81 5 -100 3 -130 -12z m340 -239
c92 -24 262 -100 345 -156 266 -176 475 -497 526 -808 7 -38 9 -73 5 -77 -4
-4 -246 -8 -537 -10 l-530 -3 1 535 c1 294 4 537 8 541 9 9 112 -4 182 -22z"/>
<path d="M6225 8903 c-232 -29 -507 -131 -684 -255 -262 -182 -473 -463 -579
-768 -78 -225 -102 -493 -63 -719 96 -563 499 -1031 1036 -1204 134 -43 205
-56 355 -67 225 -16 485 23 660 100 152 66 181 81 262 133 187 121 328 257
442 427 156 232 242 486 249 731 2 65 -1 80 -18 99 -45 50 -40 50 -730 50
l-647 0 2 43 c1 23 1 341 1 706 l-1 663 -34 34 -34 34 -93 -1 c-52 -1 -107 -4
-124 -6z m69 -230 c4 -9 6 -325 5 -701 -2 -667 -1 -684 18 -710 36 -48 60 -51
453 -51 987 0 910 1 910 -22 0 -40 -43 -195 -79 -284 -84 -208 -213 -377 -411
-539 -142 -115 -382 -218 -588 -252 -128 -21 -373 -14 -482 15 -168 43 -199
54 -312 113 -144 76 -229 138 -333 243 -410 417 -490 1023 -205 1550 72 132
228 317 322 381 24 16 63 44 87 62 97 73 267 145 426 181 156 35 181 37 189
14z"/>
<path d="M3723 8625 c-12 -8 -43 -45 -69 -82 -27 -38 -63 -88 -81 -113 -169
-234 -183 -258 -183 -301 0 -60 42 -99 105 -99 38 0 52 5 73 28 41 42 67 75
88 111 19 32 19 -10 24 -3131 l5 -3163 30 -58 c33 -67 103 -134 173 -169 l47
-23 3907 -5 3907 -5 -79 -65 c-44 -36 -85 -77 -91 -92 -27 -66 26 -148 97
-148 44 0 65 11 133 69 30 25 67 55 82 66 14 11 79 62 143 114 131 105 148
133 126 206 -10 36 -34 58 -220 205 -223 177 -260 197 -308 168 -15 -9 -36
-32 -46 -51 -18 -30 -18 -40 -8 -75 10 -33 29 -54 90 -104 l77 -63 -3873 -3
c-3500 -2 -3876 -1 -3903 14 -18 9 -38 32 -50 57 -18 41 -19 89 -19 1510 l0
1467 113 0 c91 0 116 4 133 18 71 57 52 164 -32 192 -22 7 -57 9 -89 5 -29 -3
-69 -3 -89 0 l-36 7 0 784 0 784 95 0 c143 0 195 30 195 113 0 85 -37 107
-185 107 l-105 0 0 658 1 657 44 -70 c56 -88 70 -103 114 -115 73 -20 148 50
131 124 -7 30 -70 125 -227 337 -34 48 -63 91 -63 98 0 6 -15 20 -32 31 -39
24 -114 26 -145 5z"/>
<path d="M10610 7421 c-87 -27 -165 -96 -203 -180 -23 -49 -29 -167 -14 -226
8 -29 3 -36 -103 -140 -61 -60 -118 -114 -128 -120 -9 -5 -80 -72 -157 -147
-77 -75 -200 -195 -273 -265 l-134 -129 -56 19 c-74 25 -181 19 -246 -14 -64
-31 -120 -91 -148 -155 l-23 -55 -95 6 c-52 4 -115 10 -140 15 -25 4 -78 8
-119 9 -41 1 -78 4 -82 7 -5 3 -48 7 -96 10 -48 2 -111 7 -139 10 l-52 5 -22
61 c-27 73 -83 132 -168 176 -50 25 -70 30 -123 28 -121 -4 -217 -56 -276
-148 -30 -48 -52 -150 -46 -209 4 -43 3 -44 -44 -73 -26 -16 -109 -67 -183
-113 -74 -46 -159 -98 -188 -116 -29 -17 -89 -55 -132 -84 -44 -29 -100 -64
-126 -78 -26 -14 -90 -54 -143 -89 -53 -35 -125 -80 -161 -102 -36 -21 -80
-49 -98 -63 l-33 -24 -32 31 c-34 32 -130 82 -160 82 -9 0 -25 5 -36 11 -14 9
-36 6 -104 -16 -47 -15 -93 -35 -103 -46 -9 -10 -21 -19 -26 -19 -12 0 -28
-18 -51 -55 -39 -64 -52 -103 -57 -174 l-5 -73 -95 -66 c-96 -66 -184 -127
-275 -191 -27 -19 -90 -62 -140 -96 -49 -34 -110 -76 -136 -94 l-45 -32 -54
28 c-79 41 -187 45 -263 10 -77 -35 -132 -89 -168 -165 -29 -60 -31 -71 -27
-146 3 -66 10 -91 33 -135 57 -103 161 -164 285 -165 62 -1 84 4 131 27 70 34
122 84 156 150 23 44 27 66 28 142 l2 90 128 88 c71 49 224 153 339 231 l211
143 40 -28 c53 -36 99 -49 177 -49 55 0 77 6 136 35 107 54 166 134 179 243
l5 48 102 61 c55 33 180 111 276 171 153 97 580 362 725 450 l51 31 58 -29
c74 -38 175 -41 260 -10 51 19 124 78 157 126 14 20 16 20 154 8 199 -19 598
-54 612 -54 7 0 24 -21 39 -46 33 -56 121 -116 195 -134 198 -48 386 96 394
301 2 44 -2 84 -11 105 -13 32 -13 32 34 75 26 23 112 106 192 183 80 78 217
208 305 290 88 83 186 174 217 205 43 41 60 52 70 44 21 -18 137 -35 182 -28
109 18 193 77 241 169 32 62 35 76 35 151 0 75 -3 89 -35 151 -38 72 -85 114
-169 148 -40 17 -160 21 -206 7z m150 -206 c34 -17 60 -62 60 -100 0 -72 -75
-125 -149 -105 -50 13 -72 40 -78 93 -6 53 13 87 60 111 40 20 70 20 107 1z
m-2622 -1099 c61 -33 79 -114 37 -164 -52 -62 -138 -64 -184 -5 -23 28 -28 91
-10 124 26 49 108 73 157 45z m1334 -76 c49 -14 78 -55 78 -112 0 -103 -131
-147 -202 -68 -52 57 -29 143 46 176 38 16 33 16 78 4z m-3003 -905 c52 -27
71 -114 34 -163 -24 -32 -86 -52 -127 -41 -66 19 -101 88 -75 150 24 60 106
86 168 54z m-1211 -795 c72 -44 73 -140 3 -187 -42 -28 -86 -29 -129 -3 -78
48 -66 158 22 196 43 18 66 17 104 -6z"/>
<path d="M10088 5739 c-15 -11 -36 -35 -48 -54 l-21 -34 -2 -1773 c-1 -1972
-7 -1808 65 -1860 l33 -23 395 -3 c370 -2 397 -1 430 16 19 11 45 34 58 52
l22 33 0 1776 c-1 1375 -3 1781 -13 1797 -25 42 -55 74 -81 84 -17 6 -176 10
-419 10 -377 -1 -393 -1 -419 -21z m722 -1858 c0 -1382 -2 -1670 -13 -1674 -8
-3 -138 -5 -289 -4 l-275 1 -7 241 c-5 183 -3 2270 3 3003 l1 102 290 0 290 0
0 -1669z"/>
<path d="M7655 5010 c-389 -5 -390 -5 -423 -28 -68 -49 -65 -20 -66 -712 -1
-344 -5 -631 -10 -638 -4 -7 -2 -19 4 -27 10 -12 10 -15 -1 -15 -9 0 -10 -3
-4 -8 7 -4 10 -247 10 -712 -1 -388 3 -727 7 -754 5 -29 18 -60 31 -74 46 -51
59 -52 465 -52 420 0 429 1 476 63 l26 33 0 1402 c1 1532 5 1428 -57 1482 -15
14 -37 30 -48 35 -13 6 -160 8 -410 5z m305 -1504 l0 -1294 -122 -6 c-162 -8
-434 -3 -445 7 -8 9 -17 2552 -8 2574 3 10 71 13 290 13 l285 0 0 -1294z"/>
<path d="M8693 4494 c-44 -16 -61 -30 -84 -76 -19 -37 -19 -67 -17 -1181 l3
-1143 25 -36 c46 -68 47 -68 471 -68 416 0 423 1 472 59 l27 33 0 1157 0 1158
-23 33 c-47 72 -43 71 -463 73 -261 1 -388 -2 -411 -9z m670 -201 c16 -4 17
-62 17 -1038 0 -816 -3 -1036 -12 -1042 -7 -4 -136 -9 -285 -10 l-273 -1 0
1043 c0 825 3 1044 13 1049 14 6 513 5 540 -1z"/>
<path d="M5818 3759 c-23 -12 -46 -35 -58 -59 -20 -38 -20 -58 -20 -823 l0
-784 23 -33 c12 -18 38 -41 57 -52 33 -17 60 -18 432 -16 385 3 397 4 425 24
15 12 36 35 46 52 17 29 18 76 18 812 -1 871 3 826 -70 876 l-36 24 -390 0
c-369 -1 -392 -2 -427 -21z m711 -856 c1 -413 -3 -674 -9 -683 -8 -13 -51 -15
-287 -15 l-278 1 -3 682 -2 682 289 0 290 0 0 -667z"/>
</g>
</svg>
