<?xml version="1.0" standalone="no"?>
<!DOCTYPE svg PUBLIC "-//W3C//DTD SVG 20010904//EN"
 "http://www.w3.org/TR/2001/REC-SVG-20010904/DTD/svg10.dtd">
<svg version="1.0" xmlns="http://www.w3.org/2000/svg"
 width="1536.000000pt" height="1024.000000pt" viewBox="0 0 1536.000000 1024.000000"
 preserveAspectRatio="xMidYMid meet">
<metadata>
Created by potrace 1.16, written by Peter Selinger 2001-2019
</metadata>
<g transform="translate(0.000000,1024.000000) scale(0.100000,-0.100000)"
fill="#000000" stroke="none">
<path d="M10910 10210 c-9 -6 -10 -10 -3 -10 6 0 15 5 18 10 8 12 4 12 -15 0z"/>
<path d="M8526 10182 c-3 -5 1 -9 9 -9 8 0 12 4 9 9 -3 4 -7 8 -9 8 -2 0 -6
-4 -9 -8z"/>
<path d="M10910 10130 c-9 -6 -10 -10 -3 -10 6 0 15 5 18 10 8 12 4 12 -15 0z"/>
<path d="M4946 10117 c3 -10 9 -15 12 -12 3 3 0 11 -7 18 -10 9 -11 8 -5 -6z"/>
<path d="M9964 10110 c0 -13 4 -16 10 -10 7 7 7 13 0 20 -6 6 -10 3 -10 -10z"/>
<path d="M9480 10099 c0 -5 5 -7 10 -4 6 3 10 8 10 11 0 2 -4 4 -10 4 -5 0
-10 -5 -10 -11z"/>
<path d="M844 10019 c-4 -7 -3 -9 4 -5 5 3 13 0 15 -6 4 -9 6 -10 6 -1 1 17
-16 25 -25 12z"/>
<path d="M10436 10018 c3 -5 10 -6 15 -3 13 9 11 12 -6 12 -8 0 -12 -4 -9 -9z"/>
<path d="M844 9939 c-4 -7 -3 -9 4 -5 5 3 13 0 15 -6 4 -9 6 -10 6 -1 1 17
-16 25 -25 12z"/>
<path d="M10436 9938 c3 -5 10 -6 15 -3 13 9 11 12 -6 12 -8 0 -12 -4 -9 -9z"/>
<path d="M10446 9813 c-6 -14 -5 -15 5 -6 7 7 10 15 7 18 -3 3 -9 -2 -12 -12z"/>
<path d="M10945 9819 c-4 -6 -5 -12 -2 -15 2 -3 7 2 10 11 7 17 1 20 -8 4z"/>
<path d="M10905 9800 c3 -5 8 -10 11 -10 2 0 4 5 4 10 0 6 -5 10 -11 10 -5 0
-7 -4 -4 -10z"/>
<path d="M4947 9661 c-2 -10 -1 -24 3 -30 4 -7 7 1 8 18 1 35 -3 40 -11 12z"/>
<path d="M4947 9581 c-4 -17 -3 -21 5 -13 5 5 8 16 6 23 -3 8 -7 3 -11 -10z"/>
<path d="M9966 9583 c-6 -14 -5 -15 5 -6 7 7 10 15 7 18 -3 3 -9 -2 -12 -12z"/>
<path d="M846 9462 c-3 -5 1 -9 9 -9 8 0 12 4 9 9 -3 4 -7 8 -9 8 -2 0 -6 -4
-9 -8z"/>
<path d="M9976 9257 c3 -10 9 -15 12 -12 3 3 0 11 -7 18 -10 9 -11 8 -5 -6z"/>
<path d="M9976 9177 c3 -10 9 -15 12 -12 3 3 0 11 -7 18 -10 9 -11 8 -5 -6z"/>
<path d="M9977 9089 c4 -13 8 -18 11 -10 2 7 -1 18 -6 23 -8 8 -9 4 -5 -13z"/>
<path d="M844 9059 c-4 -7 -3 -9 4 -5 5 3 13 0 15 -6 4 -9 6 -10 6 -1 1 17
-16 25 -25 12z"/>
<path d="M9977 9009 c4 -13 8 -18 11 -10 2 7 -1 18 -6 23 -8 8 -9 4 -5 -13z"/>
<path d="M10436 8978 c3 -5 10 -6 15 -3 13 9 11 12 -6 12 -8 0 -12 -4 -9 -9z"/>
<path d="M845 8819 c-6 -8 -4 -10 5 -4 9 5 10 1 6 -16 -6 -21 -6 -22 5 -6 7
13 8 22 1 29 -6 6 -12 6 -17 -3z"/>
<path d="M844 8419 c-4 -7 -3 -9 4 -5 5 3 13 0 15 -6 4 -9 6 -10 6 -1 1 17
-16 25 -25 12z"/>
<path d="M9976 8273 c-6 -14 -5 -15 5 -6 7 7 10 15 7 18 -3 3 -9 -2 -12 -12z"/>
<path d="M836 8099 c3 -5 9 -7 14 -4 4 3 11 0 13 -5 3 -6 4 -5 3 1 -1 7 -10
13 -19 15 -9 1 -15 -2 -11 -7z"/>
<path d="M9480 8099 c0 -5 5 -7 10 -4 6 3 10 8 10 11 0 2 -4 4 -10 4 -5 0 -10
-5 -10 -11z"/>
<path d="M844 7779 c-4 -7 -3 -9 4 -5 5 3 13 0 15 -6 4 -9 6 -10 6 -1 1 17
-16 25 -25 12z"/>
<path d="M10450 7427 c0 -10 8 -17 18 -17 9 0 13 4 7 8 -5 4 -13 11 -17 16 -5
5 -8 2 -8 -7z"/>
<path d="M10419 7421 c-5 -13 -75 -27 -234 -46 -66 -8 -171 -21 -234 -30 -63
-8 -133 -15 -156 -15 -22 0 -56 -9 -75 -20 -19 -11 -43 -23 -52 -26 -10 -4
-18 -11 -18 -16 0 -5 4 -7 9 -4 4 3 4 -11 -2 -32 -8 -32 -6 -45 13 -87 13 -28
23 -52 22 -55 -1 -9 38 -13 141 -12 87 0 96 -2 85 -16 -31 -38 -301 -261 -309
-256 -5 3 -8 1 -7 -5 4 -15 -123 -122 -135 -114 -6 3 -7 1 -4 -5 9 -13 -192
-184 -206 -175 -6 3 -7 2 -4 -4 7 -10 -190 -180 -204 -175 -5 1 -8 -2 -7 -6 5
-14 -93 -93 -104 -86 -6 4 -8 2 -4 -4 8 -13 -171 -165 -185 -156 -5 3 -8 1 -7
-4 2 -5 -28 -35 -66 -68 -38 -32 -94 -80 -124 -106 -30 -26 -59 -45 -65 -41
-5 3 -7 1 -3 -5 3 -6 -8 -21 -26 -34 -18 -12 -44 -32 -58 -44 -79 -69 -125
-102 -133 -97 -6 3 -7 2 -4 -4 4 -6 -19 -31 -51 -56 -31 -25 -88 -70 -126
-101 -37 -31 -72 -53 -77 -50 -5 3 -6 10 -3 16 4 6 2 8 -4 4 -14 -9 -63 14
-55 27 3 6 1 7 -6 3 -6 -4 -42 9 -79 30 -37 21 -83 46 -102 57 -174 97 -204
110 -249 110 -58 0 -69 -6 -195 -108 -57 -46 -107 -81 -111 -77 -4 4 -5 2 -3
-5 2 -6 -85 -87 -192 -179 -107 -92 -253 -219 -324 -281 -70 -62 -133 -110
-139 -106 -5 3 -7 1 -4 -4 4 -6 -14 -29 -39 -52 -45 -41 -61 -51 -48 -29 4 7
3 8 -5 4 -6 -4 -9 -11 -6 -15 2 -5 -64 -68 -148 -142 -184 -162 -213 -192
-228 -236 -41 -126 108 -241 223 -170 20 12 134 110 253 217 119 107 220 194
226 193 5 -2 8 1 6 5 -2 8 149 146 566 515 98 86 185 157 194 157 9 0 103 -49
207 -109 242 -138 246 -140 298 -145 58 -6 81 8 243 144 76 63 154 129 175
145 51 41 477 403 570 485 108 95 156 130 165 122 5 -4 5 -2 2 4 -8 15 281
266 296 257 6 -3 7 -1 3 5 -7 12 50 59 66 54 5 -1 7 2 4 7 -3 5 25 36 63 70
65 58 91 75 75 49 -4 -7 -3 -8 5 -4 6 4 9 11 6 16 -8 13 264 242 278 234 7 -4
9 -4 5 1 -11 11 12 36 25 28 5 -3 7 -1 3 5 -3 6 3 17 15 26 12 8 45 37 72 63
28 26 48 40 44 30 -4 -10 -7 -23 -7 -28 0 -6 -5 -7 -12 -3 -6 4 -8 3 -4 -4 3
-5 -1 -42 -11 -81 -16 -67 -16 -71 2 -112 24 -52 66 -79 124 -79 70 0 101 40
147 188 21 66 41 119 45 116 4 -2 11 1 15 7 4 8 3 9 -4 5 -7 -4 -12 -4 -12 0
0 4 25 92 56 196 37 126 54 198 49 215 -10 42 -37 75 -75 90 -19 9 -38 20 -41
25 -4 7 -8 6 -10 -1z"/>
<path d="M845 7139 c-6 -8 -4 -10 5 -4 10 6 12 4 6 -11 -6 -15 -5 -17 5 -6 9
9 10 15 2 23 -8 8 -13 7 -18 -2z"/>
<path d="M5531 6903 c-56 -28 -71 -64 -71 -173 0 -65 -3 -90 -10 -80 -6 9 -10
10 -10 3 0 -6 4 -14 10 -18 6 -4 9 -388 10 -1041 0 -830 -2 -1034 -12 -1028
-10 6 -11 4 0 -7 9 -10 12 -143 12 -596 0 -511 2 -586 16 -616 17 -35 69 -77
97 -77 9 0 17 -5 17 -11 0 -8 4 -8 13 -2 7 6 834 9 2287 7 1660 -2 2290 0
2330 8 30 7 59 10 65 9 5 -1 7 1 3 5 -4 3 1 17 11 31 34 42 36 97 7 149 -19
34 -22 44 -10 40 9 -3 12 -2 9 5 -4 5 -12 8 -18 6 -7 -2 -24 2 -39 10 -23 11
-385 13 -2260 13 l-2233 0 -2 33 c-2 17 -4 757 -5 1642 -3 1533 -4 1612 -21
1638 -41 63 -126 84 -196 50z"/>
<path d="M9976 6697 c3 -10 9 -15 12 -12 3 3 0 11 -7 18 -10 9 -11 8 -5 -6z"/>
<path d="M854 6250 c0 -13 4 -16 10 -10 7 7 7 13 0 20 -6 6 -10 3 -10 -10z"/>
<path d="M11905 5571 c-3 -5 -2 -12 3 -15 5 -3 9 1 9 9 0 17 -3 19 -12 6z"/>
<path d="M856 5283 c-6 -14 -5 -15 5 -6 7 7 10 15 7 18 -3 3 -9 -2 -12 -12z"/>
<path d="M843 5225 c0 -8 4 -12 9 -9 5 3 6 10 3 15 -9 13 -12 11 -12 -6z"/>
<path d="M856 3283 c-6 -14 -5 -15 5 -6 7 7 10 15 7 18 -3 3 -9 -2 -12 -12z"/>
<path d="M4946 2197 c3 -10 9 -15 12 -12 3 3 0 11 -7 18 -10 9 -11 8 -5 -6z"/>
<path d="M9981 1564 c0 -11 3 -14 6 -6 3 7 2 16 -1 19 -3 4 -6 -2 -5 -13z"/>
<path d="M856 1443 c-6 -14 -5 -15 5 -6 7 7 10 15 7 18 -3 3 -9 -2 -12 -12z"/>
<path d="M9480 1379 c0 -5 5 -7 10 -4 6 3 10 8 10 11 0 2 -4 4 -10 4 -5 0 -10
-5 -10 -11z"/>
<path d="M10446 1093 c-6 -14 -5 -15 5 -6 7 7 10 15 7 18 -3 3 -9 -2 -12 -12z"/>
<path d="M9966 1078 c3 -5 10 -6 15 -3 13 9 11 12 -6 12 -8 0 -12 -4 -9 -9z"/>
<path d="M4946 997 c3 -10 9 -15 12 -12 3 3 0 11 -7 18 -10 9 -11 8 -5 -6z"/>
<path d="M836 979 c3 -5 9 -7 14 -4 4 3 11 0 13 -5 3 -6 4 -5 3 1 -1 7 -10 13
-19 15 -9 1 -15 -2 -11 -7z"/>
<path d="M9480 979 c0 -5 5 -7 10 -4 6 3 10 8 10 11 0 2 -4 4 -10 4 -5 0 -10
-5 -10 -11z"/>
<path d="M4947 941 c-4 -17 -3 -21 5 -13 5 5 8 16 6 23 -3 8 -7 3 -11 -10z"/>
<path d="M9981 684 c0 -11 3 -14 6 -6 3 7 2 16 -1 19 -3 4 -6 -2 -5 -13z"/>
<path d="M845 659 c-6 -8 -4 -10 5 -4 10 6 12 4 6 -11 -6 -15 -5 -17 5 -6 9 9
10 15 2 23 -8 8 -13 7 -18 -2z"/>
<path d="M10446 455 c-9 -26 -7 -32 5 -12 6 10 9 21 6 23 -2 3 -7 -2 -11 -11z"/>
<path d="M4947 381 c-4 -17 -3 -21 5 -13 5 5 8 16 6 23 -3 8 -7 3 -11 -10z"/>
<path d="M845 339 c-6 -8 -4 -10 5 -4 10 6 12 4 6 -11 -6 -15 -5 -17 5 -6 9 9
10 15 2 23 -8 8 -13 7 -18 -2z"/>
<path d="M11906 277 c3 -10 9 -15 12 -12 3 3 0 11 -7 18 -10 9 -11 8 -5 -6z"/>
<path d="M844 259 c-4 -7 -3 -9 4 -5 5 3 13 0 15 -6 4 -9 6 -10 6 -1 1 17 -16
25 -25 12z"/>
<path d="M10910 210 c-9 -6 -10 -10 -3 -10 6 0 15 5 18 10 8 12 4 12 -15 0z"/>
<path d="M4946 117 c3 -10 9 -15 12 -12 3 3 0 11 -7 18 -10 9 -11 8 -5 -6z"/>
<path d="M9480 99 c0 -5 5 -7 10 -4 6 3 10 8 10 11 0 2 -4 4 -10 4 -5 0 -10
-5 -10 -11z"/>
<path d="M844 19 c-4 -7 -3 -9 4 -5 5 3 13 0 15 -6 4 -9 6 -10 6 -1 1 17 -16
25 -25 12z"/>
<path d="M10436 18 c3 -5 10 -6 15 -3 13 9 11 12 -6 12 -8 0 -12 -4 -9 -9z"/>
</g>
</svg>
